<svg id="组_373" data-name="组 373" xmlns="http://www.w3.org/2000/svg" width="36.883" height="48.456" viewBox="0 0 36.883 48.456">
  <path id="路径_4" data-name="路径 4" d="M258.291-88.579c-1.107-.958-2.218-1.871-3.276-2.841a55.475,55.475,0,0,1-11.384-14.015,30.182,30.182,0,0,1-3.508-9.965c-1.36-8.714,3.3-17.274,11.137-20.281a18.427,18.427,0,0,1,25.221,14.115A21.92,21.92,0,0,1,275-109.672,41.866,41.866,0,0,1,267.928-98a63.645,63.645,0,0,1-8.995,8.92C258.752-88.936,258.566-88.795,258.291-88.579Zm.053-36.907a6.918,6.918,0,0,0-6.93,6.938,6.919,6.919,0,0,0,6.923,6.891,6.922,6.922,0,0,0,6.9-6.911A6.92,6.92,0,0,0,258.344-125.486Z" transform="translate(-239.889 137.035)" fill="#fff"/>
</svg>
