<svg id="组_372" data-name="组 372" xmlns="http://www.w3.org/2000/svg" width="59.859" height="41.534" viewBox="0 0 59.859 41.534">
  <path id="路径_1" data-name="路径 1" d="M58.924-89.654H.935A.935.935,0,0,1,0-90.588v-36.55a.936.936,0,0,1,1.48-.759l5.283,3.768q10.476,7.474,20.953,14.947c1.893,1.349,2.5,1.347,4.386,0q13.282-9.466,26.562-18.936l.01-.007a.753.753,0,0,1,1.186.617v36.915A.935.935,0,0,1,58.924-89.654Z" transform="translate(0 131.188)" fill="#fff"/>
  <path id="路径_2" data-name="路径 2" d="M6.6-137.036H60.769a.948.948,0,0,1,.543,1.716L34.237-115.726a.926.926,0,0,1-1.087,0L6.061-135.319A.948.948,0,0,1,6.6-137.036Z" transform="translate(-3.776 137.036)" fill="#fff"/>
</svg>
