<svg xmlns="http://www.w3.org/2000/svg" width="55.352" height="28" viewBox="0 0 55.352 28">
  <g id="组_1643" data-name="组 1643" transform="translate(-795.502 -154.958)">
    <rect id="矩形_1497" data-name="矩形 1497" width="6.127" height="1.556" transform="translate(819.872 172.015)" fill="#fff"/>
    <rect id="矩形_1498" data-name="矩形 1498" width="5.672" height="1.432" transform="translate(819.872 167.237)" fill="#fff"/>
    <path id="路径_539" data-name="路径 539" d="M845.718,154.958H800.639a5.149,5.149,0,0,0-5.137,5.137v17.727a5.149,5.149,0,0,0,5.137,5.137h45.079a5.149,5.149,0,0,0,5.137-5.137V160.095A5.149,5.149,0,0,0,845.718,154.958Zm-8.774,15.281v-1.005H838.6a9.944,9.944,0,0,0-.454-1.06l.716-.234h-2.024v-.991h2.423a20.142,20.142,0,0,0,.551-2.176l.909.248c-.193.633-.427,1.363-.62,1.928h.95v.991h-2a9.5,9.5,0,0,1,.523,1.088l-.509.206h1.858v1.005H838.43v1.129c0,.317.055.441.3.441h1.377a3.729,3.729,0,0,0,.8-.069c.014.276.042.647.083.909a3.785,3.785,0,0,1-.867.069h-1.487c-1,0-1.239-.386-1.239-1.363v-1.115Zm.261-5.246.757-.248a7.389,7.389,0,0,1,.661,1.886l-.8.276A7.347,7.347,0,0,0,837.205,164.993Zm3.91,9.225c.179-.014.234-.069.234-.261v-9.542h-4.833v10.9h-1.129V163.3h7.1v10.657c0,.619-.124.936-.482,1.129a4.168,4.168,0,0,1-1.8.206,4.39,4.39,0,0,0-.344-1.1C840.4,174.218,840.95,174.218,841.115,174.218Zm-6.747-3.3a4.954,4.954,0,0,0-.151-.62c-2.9.454-3.318.565-3.607.716a6.913,6.913,0,0,0-.344-1.074c.289-.083.592-.413.991-.936a15.15,15.15,0,0,0,1.019-1.418,7.086,7.086,0,0,0-1.749.3,9.322,9.322,0,0,0-.358-1.046c.234-.069.468-.344.73-.744a18.855,18.855,0,0,0,1.68-3.414l1.046.441a23.522,23.522,0,0,1-1.955,3.538l1.239-.1c.344-.62.7-1.281.991-1.914l.964.606a27.118,27.118,0,0,1-2.905,4.406l1.969-.275c-.124-.372-.261-.771-.4-1.116l.84-.317a21.59,21.59,0,0,1,.923,2.588Zm.881,2.781-.867.317a20.064,20.064,0,0,0-.744-2.644l.812-.275A21.049,21.049,0,0,1,835.25,173.694Zm-1.845.634-.923.234a26.317,26.317,0,0,0-.316-2.9l.867-.207A23.757,23.757,0,0,1,833.405,174.328Zm-1.721-2.63a20.351,20.351,0,0,1-.633,3.318,5.558,5.558,0,0,0-.936-.358,13.151,13.151,0,0,0,.592-3.139Zm-11.811,3v.578h-1.308v-9.156h8.261v3.649h-6.953v1.115h7.435v4.323H826V174.7Zm7.352-8.275V165.1h-9.087v1.322h-1.28V163.9h5.424a5.027,5.027,0,0,0-.4-1.018l1.308-.289a8.277,8.277,0,0,1,.551,1.308h4.833v2.52Zm-18.139-1.92s-.179-.011-.17.08v11.188a.609.609,0,0,1-.606.607h-1.753a.609.609,0,0,1-.607-.607V164.584c.013-.069-.121-.08-.121-.08H802.8a.563.563,0,0,1-.561-.561V162.1a.563.563,0,0,1,.561-.56h9.466a.563.563,0,0,1,.561.56v1.846a.563.563,0,0,1-.561.561h-3.179Z" fill="#fff"/>
    <path id="路径_540" data-name="路径 540" d="M824.1,174.954v-1.846a.563.563,0,0,0-.561-.56h-9.466a.563.563,0,0,0-.561.56v1.846a.563.563,0,0,0,.561.561H817.1s.135.012.121.08v11.189a.609.609,0,0,0,.607.607h1.753a.609.609,0,0,0,.606-.607V175.6c-.009-.091.17-.08.17-.08h3.179A.563.563,0,0,0,824.1,174.954Z" transform="translate(-11.275 -11.011)" fill="#242424"/>
    <path id="路径_541" data-name="路径 541" d="M864.318,176.691h-4.833a8.277,8.277,0,0,0-.551-1.308l-1.308.289a5.026,5.026,0,0,1,.4,1.018H852.6v2.52h1.28v-1.322h9.087v1.322h1.349Z" transform="translate(-35.744 -12.786)" fill="#242424"/>
    <path id="路径_542" data-name="路径 542" d="M865.908,193.9v-4.323h-7.435v-1.115h6.953v-3.649h-8.261v9.156h1.308v-.578H864.6v.509Zm-7.435-7.972h5.672v1.432h-5.672Zm0,6.334V190.7H864.6v1.555Z" transform="translate(-38.601 -18.686)" fill="#242424"/>
    <path id="路径_543" data-name="路径 543" d="M888.984,202.736a20.35,20.35,0,0,0,.633-3.318l-.977-.179a13.151,13.151,0,0,1-.592,3.139A5.557,5.557,0,0,1,888.984,202.736Z" transform="translate(-57.934 -27.72)" fill="#242424"/>
    <path id="路径_544" data-name="路径 544" d="M893.849,202.166l.923-.234a23.746,23.746,0,0,0-.372-2.878l-.867.207A26.318,26.318,0,0,1,893.849,202.166Z" transform="translate(-61.367 -27.604)" fill="#242424"/>
    <path id="路径_545" data-name="路径 545" d="M908.769,189.047c.358-.193.482-.51.482-1.129V177.261h-7.1v12.02h1.129v-10.9h4.833v9.542c0,.193-.055.248-.234.261s-.716,0-1.253-.028a4.39,4.39,0,0,1,.344,1.1A4.167,4.167,0,0,0,908.769,189.047Z" transform="translate(-66.76 -13.962)" fill="#242424"/>
    <path id="路径_546" data-name="路径 546" d="M907.764,181.126l-.757.248a7.345,7.345,0,0,1,.62,1.914l.8-.276A7.391,7.391,0,0,0,907.764,181.126Z" transform="translate(-69.802 -16.381)" fill="#242424"/>
    <path id="路径_547" data-name="路径 547" d="M898.215,201.016l.867-.317a21.049,21.049,0,0,0-.8-2.6l-.812.275A20.064,20.064,0,0,1,898.215,201.016Z" transform="translate(-63.833 -27.005)" fill="#242424"/>
    <path id="路径_548" data-name="路径 548" d="M907.816,189.144H909.3a3.784,3.784,0,0,0,.867-.069c-.042-.261-.069-.633-.083-.909a3.73,3.73,0,0,1-.8.069h-1.377c-.248,0-.3-.123-.3-.441v-1.129H910.1v-1.005h-1.858l.509-.206a9.5,9.5,0,0,0-.523-1.088h2v-.991h-.95c.193-.565.427-1.294.62-1.928l-.909-.248a20.141,20.141,0,0,1-.551,2.176h-2.423v.991h2.024l-.716.234a9.942,9.942,0,0,1,.454,1.06h-1.652v1.005h.454v1.115C906.577,188.759,906.812,189.144,907.816,189.144Z" transform="translate(-69.18 -16.427)" fill="#242424"/>
    <path id="路径_549" data-name="路径 549" d="M892.394,180.878l-.84.317c.138.344.276.743.4,1.116l-1.969.275a27.118,27.118,0,0,0,2.905-4.406l-.964-.606c-.289.633-.647,1.294-.991,1.914l-1.239.1a23.522,23.522,0,0,0,1.955-3.538L890.6,175.6a18.855,18.855,0,0,1-1.68,3.414c-.262.4-.5.675-.73.744a9.322,9.322,0,0,1,.358,1.046,7.086,7.086,0,0,1,1.749-.3,15.15,15.15,0,0,1-1.019,1.418c-.4.524-.7.854-.991.936a6.913,6.913,0,0,1,.344,1.074c.289-.151.7-.261,3.607-.716a4.954,4.954,0,0,1,.151.62l.923-.372A21.59,21.59,0,0,0,892.394,180.878Z" transform="translate(-58.025 -12.925)" fill="#242424"/>
  </g>
</svg>
