<svg xmlns="http://www.w3.org/2000/svg" width="55.353" height="28" viewBox="0 0 55.353 28">
  <g id="组_1641" data-name="组 1641" transform="translate(-638.157 -156.02)">
    <path id="路径_527" data-name="路径 527" d="M666.195,173.61h-9.466a.562.562,0,0,0-.561.56v1.846a.562.562,0,0,0,.561.561h3.029s.135.012.121.08v11.189a.608.608,0,0,0,.607.607h1.753a.609.609,0,0,0,.607-.607V176.658c-.009-.091.17-.08.17-.08h3.179a.563.563,0,0,0,.561-.561V174.17A.563.563,0,0,0,666.195,173.61Z" transform="translate(-11.275 -11.011)" fill="#fff"/>
    <path id="路径_528" data-name="路径 528" d="M688.373,156.02h-45.08a5.149,5.149,0,0,0-5.137,5.136v17.728a5.149,5.149,0,0,0,5.137,5.136h45.08a5.149,5.149,0,0,0,5.137-5.136V161.156A5.149,5.149,0,0,0,688.373,156.02Zm3.641,22.864a3.653,3.653,0,0,1-3.641,3.64h-45.08a3.653,3.653,0,0,1-3.641-3.64V161.156a3.653,3.653,0,0,1,3.641-3.64h45.08a3.653,3.653,0,0,1,3.641,3.64Z" fill="#fff"/>
    <g id="组_1640" data-name="组 1640" transform="translate(659.512 163.475)">
      <path id="路径_529" data-name="路径 529" d="M701.589,175.954l-1.308.289a5.07,5.07,0,0,1,.4,1.019h-5.425v2.52h1.28V178.46h9.088v1.322h1.349v-2.52H702.14A8.3,8.3,0,0,0,701.589,175.954Z" transform="translate(-695.256 -175.954)" fill="#fff"/>
      <path id="路径_530" data-name="路径 530" d="M701.128,189.027h6.953v-3.649H699.82v9.156h1.308v-.578h6.127v.509h1.308v-4.324h-7.435Zm0-2.534H706.8v1.432h-5.673Zm6.127,4.778v1.555h-6.127v-1.555Z" transform="translate(-698.113 -181.853)" fill="#fff"/>
      <path id="路径_531" data-name="路径 531" d="M730.7,202.949a5.463,5.463,0,0,1,.936.358,20.387,20.387,0,0,0,.634-3.319l-.978-.179A13.134,13.134,0,0,1,730.7,202.949Z" transform="translate(-717.446 -190.888)" fill="#fff"/>
      <path id="路径_532" data-name="路径 532" d="M736.188,199.831a26.32,26.32,0,0,1,.317,2.905l.923-.234a23.6,23.6,0,0,0-.372-2.878Z" transform="translate(-720.879 -190.772)" fill="#fff"/>
      <path id="路径_533" data-name="路径 533" d="M744.8,177.832v12.02h1.129v-10.9h4.833v9.542c0,.193-.055.248-.234.261s-.716,0-1.253-.028a4.406,4.406,0,0,1,.344,1.1,4.157,4.157,0,0,0,1.8-.206c.358-.193.482-.509.482-1.129V177.832Z" transform="translate(-726.272 -177.13)" fill="#fff"/>
      <path id="路径_534" data-name="路径 534" d="M750.419,181.7l-.757.248a7.356,7.356,0,0,1,.62,1.914l.8-.275A7.382,7.382,0,0,0,750.419,181.7Z" transform="translate(-729.314 -179.549)" fill="#fff"/>
      <path id="路径_535" data-name="路径 535" d="M740.127,198.944a20,20,0,0,1,.744,2.643l.867-.317a20.969,20.969,0,0,0-.8-2.6Z" transform="translate(-723.345 -190.173)" fill="#fff"/>
      <path id="路径_536" data-name="路径 536" d="M752.826,189.646c-.042-.261-.069-.633-.083-.908a3.758,3.758,0,0,1-.8.068h-1.377c-.248,0-.3-.123-.3-.44v-1.13h2.492v-1H750.9l.509-.206a9.5,9.5,0,0,0-.523-1.088h2v-.991h-.95c.193-.565.427-1.295.619-1.928l-.909-.248a20.135,20.135,0,0,1-.551,2.176h-2.423v.991h2.024l-.716.234a9.839,9.839,0,0,1,.454,1.06h-1.652v1h.454v1.116c0,.977.234,1.363,1.239,1.363h1.487A3.8,3.8,0,0,0,752.826,189.646Z" transform="translate(-728.692 -179.595)" fill="#fff"/>
      <path id="路径_537" data-name="路径 537" d="M734.209,181.765c.138.344.276.744.4,1.116l-1.969.275a27.131,27.131,0,0,0,2.905-4.406l-.964-.606c-.289.633-.647,1.294-.991,1.914l-1.239.1a23.467,23.467,0,0,0,1.955-3.538l-1.046-.441a18.828,18.828,0,0,1-1.68,3.415c-.261.4-.5.675-.73.744a9.471,9.471,0,0,1,.358,1.046,7.06,7.06,0,0,1,1.749-.3,15.12,15.12,0,0,1-1.019,1.418c-.4.523-.7.854-.991.937a6.86,6.86,0,0,1,.344,1.074c.289-.152.7-.262,3.607-.716a4.892,4.892,0,0,1,.151.619l.923-.371a21.5,21.5,0,0,0-.923-2.589Z" transform="translate(-717.538 -176.092)" fill="#fff"/>
    </g>
  </g>
</svg>
