<svg id="圖層_1" data-name="圖層 1" xmlns="http://www.w3.org/2000/svg" xmlns:xlink="http://www.w3.org/1999/xlink" viewBox="0 0 167.78 74.37"><defs><style>.cls-1{fill:#fff;}.cls-2{fill:url(#未命名漸層_27);}.cls-3{fill:url(#未命名漸層_28);}.cls-4{fill:url(#未命名漸層_29);}.cls-5{fill:url(#未命名漸層_30);}.cls-6{fill:url(#未命名漸層_31);}.cls-7{fill:url(#未命名漸層_32);}.cls-8{fill:url(#未命名漸層_33);}.cls-9{fill:url(#未命名漸層_34);}.cls-10{fill:#040000;}.cls-11{fill:#787878;}.cls-12{fill:#242424;}</style><linearGradient id="未命名漸層_27" x1="-1336.04" y1="-1179.47" x2="-1335.04" y2="-1179.47" gradientTransform="matrix(47.91, 27.66, 27.66, -47.91, 96662.55, -19536.96)" gradientUnits="userSpaceOnUse"><stop offset="0" stop-color="#e50012"/><stop offset="0.06" stop-color="#e50012"/><stop offset="0.18" stop-color="#f19500"/><stop offset="0.33" stop-color="#fff000"/><stop offset="0.52" stop-color="#009844"/><stop offset="0.67" stop-color="#009fe8"/><stop offset="0.81" stop-color="#0068b6"/><stop offset="0.95" stop-color="#8f0882"/><stop offset="1" stop-color="#8f0882"/></linearGradient><linearGradient id="未命名漸層_28" x1="-1336.04" y1="-1179.47" x2="-1335.04" y2="-1179.47" gradientTransform="matrix(47.91, 27.66, 27.66, -47.91, 96659.31, -19531.35)" xlink:href="#未命名漸層_27"/><linearGradient id="未命名漸層_29" x1="-1336.04" y1="-1179.47" x2="-1335.04" y2="-1179.47" gradientTransform="matrix(47.91, 27.66, 27.66, -47.91, 96650.97, -19516.91)" xlink:href="#未命名漸層_27"/><linearGradient id="未命名漸層_30" x1="-1336.04" y1="-1179.47" x2="-1335.04" y2="-1179.47" gradientTransform="matrix(47.91, 27.66, 27.66, -47.91, 96655.07, -19524.17)" xlink:href="#未命名漸層_27"/><linearGradient id="未命名漸層_31" x1="-1336.04" y1="-1179.47" x2="-1335.04" y2="-1179.47" gradientTransform="matrix(47.91, 27.66, 27.66, -47.91, 96654.35, -19522.76)" xlink:href="#未命名漸層_27"/><linearGradient id="未命名漸層_32" x1="-1336.04" y1="-1179.47" x2="-1335.04" y2="-1179.47" gradientTransform="matrix(47.91, 27.66, 27.66, -47.91, 96653.4, -19521.11)" xlink:href="#未命名漸層_27"/><linearGradient id="未命名漸層_33" x1="-1336.04" y1="-1179.47" x2="-1335.04" y2="-1179.47" gradientTransform="matrix(47.91, 27.66, 27.66, -47.91, 96655.22, -19524.26)" xlink:href="#未命名漸層_27"/><linearGradient id="未命名漸層_34" x1="-1336.04" y1="-1179.47" x2="-1335.04" y2="-1179.47" gradientTransform="matrix(47.91, 27.66, 27.66, -47.91, 96657.2, -19527.69)" xlink:href="#未命名漸層_27"/></defs><path class="cls-1" d="M28.22,34.63a1.28,1.28,0,0,0,.48.09,1.22,1.22,0,0,0,.69-.2,1.3,1.3,0,0,0,.45-.54,1.23,1.23,0,0,0,.09-.47,1.21,1.21,0,0,0-1.23-1.22,1.12,1.12,0,0,0-.68.21,1.19,1.19,0,0,0-.45.54,1.16,1.16,0,0,0-.1.47,1.24,1.24,0,0,0,.75,1.12Z"/><rect class="cls-1" x="126.07" y="41.92" width="17.19" height="2.84"/><rect class="cls-1" x="126.07" y="36.61" width="17.19" height="2.8"/><rect class="cls-1" x="88.59" y="34.91" width="17.82" height="3.06"/><rect class="cls-1" x="88.59" y="46.5" width="17.82" height="3.32"/><rect class="cls-1" x="88.59" y="40.67" width="17.82" height="3.14"/><rect class="cls-1" x="126.07" y="31.33" width="17.19" height="2.77"/><path class="cls-1" d="M149.73,0H18.05A18.1,18.1,0,0,0,0,18.05V56.32A18.1,18.1,0,0,0,18.05,74.37H149.73a18.09,18.09,0,0,0,18.05-18.05V18.05A18.09,18.09,0,0,0,149.73,0ZM122.49,47.42V28.64h9.37c.22-.89.44-1.88.59-2.84H119.13V22.66h30.55V25.8H136.4c-.3,1-.63,1.95-.92,2.84H147V47.42Zm9.74,2.36a55.9,55.9,0,0,1-12.06,4.91,22.69,22.69,0,0,0-2.36-2.62,50.18,50.18,0,0,0,11.4-4.58Zm7.05-2.1a103,103,0,0,1,11.8,4.72l-3.32,2.32a76.83,76.83,0,0,0-11-4.79ZM110,31.92v22.8h-3.58V52.8H88.59v1.92H85.16V31.92h9.67c.25-.92.55-2,.73-2.87H81.21V25.87h9A29.86,29.86,0,0,0,87.34,22l3-1.33A22.54,22.54,0,0,1,93.87,25l-1.63.85h9.15a37.15,37.15,0,0,0,3.1-5.05l3.88.88c-1,1.48-2.11,2.95-3.1,4.17h8.78v3.18H99.73c-.4,1-.81,2-1.22,2.87ZM16.56,49.08a3.27,3.27,0,0,1-1.16-1.41,3.33,3.33,0,0,1-.25-1.26v-2.8a3.19,3.19,0,0,1,.55-1.8,3.13,3.13,0,0,1,1.41-1.15,3.25,3.25,0,0,1,.89-.24v-1a3.78,3.78,0,0,1,.16-1.06,3.2,3.2,0,0,1,.47-.92,3.47,3.47,0,0,1,.34-.42A10.3,10.3,0,0,1,24.62,24a10.38,10.38,0,0,1,4-.81,10.23,10.23,0,0,1,3.32.55,2.86,2.86,0,0,1,.68-.39,3.36,3.36,0,0,1,1.3-.27H32.05a3.57,3.57,0,0,1-1.84-.52,3.4,3.4,0,0,1-1.31-1.46,3.26,3.26,0,0,1-.31-1.4V17a3.26,3.26,0,0,1,.18-1.08,3.43,3.43,0,0,1,.48-.91,3.52,3.52,0,0,1,1.53-1.16,3.62,3.62,0,0,1,1.27-.23H47.24a3.45,3.45,0,0,1,1.84.52,3.36,3.36,0,0,1,1.31,1.45A3.31,3.31,0,0,1,50.71,17v2.39a10.21,10.21,0,0,1,7.06,4.87l.26.23a3.66,3.66,0,0,1,.84,1.31h0l.7,1.91.76-2.16a3.73,3.73,0,0,1,.43-.82,3.66,3.66,0,0,1,.54-.63,3.9,3.9,0,0,1,1.36-.82,3.6,3.6,0,0,1,1.18-.2h2.7a3.09,3.09,0,0,1,1.24.25,3,3,0,0,1,1.15.81,3.08,3.08,0,0,1,.52.82,3,3,0,0,1,.24,1.22,3.21,3.21,0,0,1-.19,1.1h0L64.75,40.64a10.06,10.06,0,0,1,1.91-.19,9.75,9.75,0,0,1,3.46.64l.24.08a3.76,3.76,0,0,1,.79.41,3.61,3.61,0,0,1,.66.57,3.47,3.47,0,0,1,.76,1.33,3.59,3.59,0,0,1,.14,1A4.05,4.05,0,0,1,72.4,46h0c-.09.21-.21.54-.33.89s-.25.72-.39,1.09l-.14.36-.24.31a3.36,3.36,0,0,1-.45.47,3.83,3.83,0,0,1-1.09.66,3.56,3.56,0,0,1-1.24.23,3.4,3.4,0,0,1-1.39-.29h0a1.07,1.07,0,0,0-.25,0,1,1,0,0,0-.38.08,1.12,1.12,0,0,0-.36.25,1.46,1.46,0,0,0-.4,1v7.41a3.3,3.3,0,0,1-.58,1.89,3.36,3.36,0,0,1-1.48,1.23,3.45,3.45,0,0,1-1.32.26H59.87A3.25,3.25,0,0,1,58,61.17a3.43,3.43,0,0,1-.93-.93,10.08,10.08,0,0,1-1.57.8,10.21,10.21,0,0,1-3.91.77A11.1,11.1,0,0,1,47.34,61a11.47,11.47,0,0,1-2.23-1.22l-.08.17a3.14,3.14,0,0,1-.42.63h0a3.1,3.1,0,0,1-.63.57,3.88,3.88,0,0,1-.7.36,3.76,3.76,0,0,1-1.29.22h-2.9a4.29,4.29,0,0,1-.78-.06,3.59,3.59,0,0,1-1-.29,3.05,3.05,0,0,1-.74-.49,3.12,3.12,0,0,1-.6-.76,4.11,4.11,0,0,1-.3-.72,3.75,3.75,0,0,1-.13-.82,4.47,4.47,0,0,1-.23,1h0a3.07,3.07,0,0,1-.44.81,3.28,3.28,0,0,1-.73.71l-.06,0-.06,0a3.86,3.86,0,0,1-1,.44h0a4,4,0,0,1-1,.12H29.23a4,4,0,0,1-.94-.1,3.32,3.32,0,0,1-1.73-1,3.58,3.58,0,0,1-1.21.85,3.68,3.68,0,0,1-1.37.27H21.51a3.45,3.45,0,0,1-2-.6A3.54,3.54,0,0,1,18,58.24V49.6A3.2,3.2,0,0,1,16.56,49.08Z"/><path class="cls-1" d="M52.59,27.92a3.76,3.76,0,0,0-7.19,1.54,7.69,7.69,0,0,1,3.74,1.41l.23.14v-.89a.79.79,0,0,1,.79-.79h2.36a.73.73,0,0,1,.41.12,3.52,3.52,0,0,0-.14-1Z"/><path class="cls-2" d="M52.59,27.92a3.76,3.76,0,0,0-7.19,1.54,7.69,7.69,0,0,1,3.74,1.41l.23.14v-.89a.79.79,0,0,1,.79-.79h2.36a.73.73,0,0,1,.41.12,3.52,3.52,0,0,0-.14-1Z"/><path class="cls-1" d="M56.22,44.79l1-2.75a3.93,3.93,0,0,0,.24-.83l-.3-.83-2.21-6a7.7,7.7,0,0,1-1.62,1.5v7.29a7.05,7.05,0,0,1,1.59.7A8.24,8.24,0,0,1,56.22,44.79Z"/><path class="cls-3" d="M56.22,44.79l1-2.75a3.93,3.93,0,0,0,.24-.83l-.3-.83-2.21-6a7.7,7.7,0,0,1-1.62,1.5v7.29a7.05,7.05,0,0,1,1.59.7A8.24,8.24,0,0,1,56.22,44.79Z"/><path class="cls-1" d="M27.06,42.71a6.24,6.24,0,0,0,1.15.55V41.19a7.84,7.84,0,0,1-3.28-.93V43h.41A1.06,1.06,0,0,1,27.06,42.71Z"/><path class="cls-4" d="M27.06,42.71a6.24,6.24,0,0,0,1.15.55V41.19a7.84,7.84,0,0,1-3.28-.93V43h.41A1.06,1.06,0,0,1,27.06,42.71Z"/><path class="cls-1" d="M18.28,59.61a3.52,3.52,0,0,0,1.26,1.54,3.45,3.45,0,0,0,2,.6H24a3.68,3.68,0,0,0,1.37-.27,3.58,3.58,0,0,0,1.21-.85,3.32,3.32,0,0,0,1.73,1,4,4,0,0,0,.94.1h2.84a4,4,0,0,0,1-.12h0a3.86,3.86,0,0,0,1-.44l.06,0,.06,0a3.28,3.28,0,0,0,.73-.71,3.07,3.07,0,0,0,.44-.81h0a4.47,4.47,0,0,0,.23-1,3.75,3.75,0,0,0,.13.82,4.11,4.11,0,0,0,.3.72,3.12,3.12,0,0,0,.6.76,3.05,3.05,0,0,0,.74.49,3.59,3.59,0,0,0,1,.29,4.29,4.29,0,0,0,.78.06H42a3.76,3.76,0,0,0,1.29-.22,3.88,3.88,0,0,0,.7-.36,3.1,3.1,0,0,0,.63-.57h0a3.14,3.14,0,0,0,.42-.63l.08-.17A11.47,11.47,0,0,0,47.34,61a11.1,11.1,0,0,0,4.23.82A10.21,10.21,0,0,0,55.48,61a10.08,10.08,0,0,0,1.57-.8,3.43,3.43,0,0,0,.93.93,3.25,3.25,0,0,0,1.89.58h2.46a3.45,3.45,0,0,0,1.32-.26,3.36,3.36,0,0,0,1.48-1.23,3.3,3.3,0,0,0,.58-1.89V51a1.46,1.46,0,0,1,.4-1,1.12,1.12,0,0,1,.36-.25,1,1,0,0,1,.38-.08,1.07,1.07,0,0,1,.25,0h0a3.4,3.4,0,0,0,1.39.29,3.56,3.56,0,0,0,1.24-.23,3.83,3.83,0,0,0,1.09-.66,3.36,3.36,0,0,0,.45-.47l.24-.31.14-.36c.14-.37.27-.74.39-1.09s.24-.68.33-.89h0a4.05,4.05,0,0,0,.31-1.5,3.59,3.59,0,0,0-.14-1,3.47,3.47,0,0,0-.76-1.33,3.61,3.61,0,0,0-.66-.57,3.76,3.76,0,0,0-.79-.41l-.24-.08a9.75,9.75,0,0,0-3.46-.64,10.06,10.06,0,0,0-1.91.19L69.5,27.28h0a3.21,3.21,0,0,0,.19-1.1A3,3,0,0,0,69.45,25a3.08,3.08,0,0,0-.52-.82,3,3,0,0,0-1.15-.81,3.09,3.09,0,0,0-1.24-.25h-2.7a3.6,3.6,0,0,0-1.18.2,3.9,3.9,0,0,0-1.36.82,3.66,3.66,0,0,0-.54.63,3.73,3.73,0,0,0-.43.82l-.76,2.16-.7-1.91h0A3.66,3.66,0,0,0,58,24.49l-.26-.23a10.21,10.21,0,0,0-7.06-4.87V17a3.31,3.31,0,0,0-.32-1.41,3.36,3.36,0,0,0-1.31-1.45,3.45,3.45,0,0,0-1.84-.52H32.05a3.62,3.62,0,0,0-1.27.23A3.52,3.52,0,0,0,29.25,15a3.43,3.43,0,0,0-.48.91A3.26,3.26,0,0,0,28.59,17v2.68a3.26,3.26,0,0,0,.31,1.4,3.4,3.4,0,0,0,1.31,1.46,3.57,3.57,0,0,0,1.84.52h1.89a3.36,3.36,0,0,0-1.3.27,2.86,2.86,0,0,0-.68.39,10.23,10.23,0,0,0-3.32-.55,10.3,10.3,0,0,0-8.55,4.53A10.27,10.27,0,0,0,19,37.07a3.47,3.47,0,0,0-.34.42,3.2,3.2,0,0,0-.47.92A3.78,3.78,0,0,0,18,39.47v1a3.25,3.25,0,0,0-.89.24,3.13,3.13,0,0,0-1.41,1.15,3.19,3.19,0,0,0-.55,1.8v2.8a3.33,3.33,0,0,0,.25,1.26,3.27,3.27,0,0,0,1.16,1.41A3.2,3.2,0,0,0,18,49.6v8.64A3.49,3.49,0,0,0,18.28,59.61Zm-.57-13.2v-2.8a.65.65,0,0,1,.65-.64h2.2v-3.5a.94.94,0,0,1,1-.91h1.3a7.66,7.66,0,0,1-1.92-5.09A7.75,7.75,0,0,1,33,27.09l.16.09v-.75a.79.79,0,0,1,.78-.79h2.37a.79.79,0,0,1,.79.79v8.79l.07-.24a.8.8,0,0,1-.06-.3V20.61c0-.11-.2-.12-.2-.12H32.05a.87.87,0,0,1-.9-.81V17a.86.86,0,0,1,.9-.81H47.24a.86.86,0,0,1,.9.81v2.68a.87.87,0,0,1-.9.81h-5.1s-.29,0-.27.12V26.5a7.69,7.69,0,0,1,14-.47,1.2,1.2,0,0,1,.64.65l2.72,7.46c.15.42.31.83.36.92s.21-.19.36-.61l2.85-8a1.24,1.24,0,0,1,1.09-.76h2.7a.54.54,0,0,1,.54.77L61.25,42.81h1.08c.45,0,.82.25.82.54v.54h.08A7.27,7.27,0,0,1,66.66,43a7.1,7.1,0,0,1,2.65.51A1,1,0,0,1,70,45c-.26.62-.52,1.45-.74,2a1,1,0,0,1-1.16.3,3,3,0,0,0-1.27-.23,3.83,3.83,0,0,0-3.71,3.74v7.53a.82.82,0,0,1-.82.82H59.87a.82.82,0,0,1-.82-.82V47.28l-.21,0H58.1a7.88,7.88,0,0,1,.41,1,6.71,6.71,0,0,1,.28,2c0,.44,0,.8,0,1.07a1.23,1.23,0,0,1-.19.66.93.93,0,0,1-.59.34,5.18,5.18,0,0,1-1.2.1h-9a3,3,0,0,0,.51,1.34,3.12,3.12,0,0,0,.88.86,3.47,3.47,0,0,0,1.07.46,4.2,4.2,0,0,0,1.07.14,5,5,0,0,0,.93-.09,9.05,9.05,0,0,0,.93-.25,5.5,5.5,0,0,0,.81-.37,2.73,2.73,0,0,0,.6-.43,2.63,2.63,0,0,1,.35-.25.61.61,0,0,1,.3-.08.68.68,0,0,1,.34.11,3.27,3.27,0,0,1,.38.33l1.33,1.51a.88.88,0,0,1,.18.29.86.86,0,0,1,0,.28.71.71,0,0,1-.14.43,1.44,1.44,0,0,1-.33.32,8.38,8.38,0,0,1-2.49,1.59,7.61,7.61,0,0,1-2.93.57,8.56,8.56,0,0,1-5.94-2.37,8.11,8.11,0,0,1-1.84-2.62A8,8,0,0,1,43.11,51a8.56,8.56,0,0,1,.27-2.15,8.47,8.47,0,0,1,2-3.61c.15-.15.3-.3.46-.44a7.88,7.88,0,0,1-1.2.09,7.75,7.75,0,0,1-7.51-5.81v1.53A7.55,7.55,0,0,1,36.47,43a7.37,7.37,0,0,1,.82,0,5.24,5.24,0,0,1,2.48.55A5,5,0,0,1,41.51,45a7,7,0,0,1,1,2.23A10.84,10.84,0,0,1,42.86,50v8.24a1.09,1.09,0,0,1-.21.72.83.83,0,0,1-.66.24h-2.9a1.18,1.18,0,0,1-.75-.18,1,1,0,0,1-.2-.71V50a2.6,2.6,0,0,0-.2-1,2.73,2.73,0,0,0-.56-.81,2.59,2.59,0,0,0-.83-.54,2.54,2.54,0,0,0-1-.19,2.27,2.27,0,0,0-.88.18,2.37,2.37,0,0,0-.78.52,2.74,2.74,0,0,0-.58.79,2.54,2.54,0,0,0-.27,1v8.3a1.26,1.26,0,0,1-.08.43.76.76,0,0,1-.25.33,1.19,1.19,0,0,1-.31.14,1.55,1.55,0,0,1-.33,0H29.23a1,1,0,0,1-.78-.26,1,1,0,0,1-.24-.7V47.36a7.28,7.28,0,0,1-1.26-.3h-2V58.24a1,1,0,0,1-.95.95H21.51a1,1,0,0,1-1-.95V47.06h-2.2A.66.66,0,0,1,17.71,46.41Z"/><path class="cls-5" d="M18.28,59.61a3.52,3.52,0,0,0,1.26,1.54,3.45,3.45,0,0,0,2,.6H24a3.68,3.68,0,0,0,1.37-.27,3.58,3.58,0,0,0,1.21-.85,3.32,3.32,0,0,0,1.73,1,4,4,0,0,0,.94.1h2.84a4,4,0,0,0,1-.12h0a3.86,3.86,0,0,0,1-.44l.06,0,.06,0a3.28,3.28,0,0,0,.73-.71,3.07,3.07,0,0,0,.44-.81h0a4.47,4.47,0,0,0,.23-1,3.75,3.75,0,0,0,.13.82,4.11,4.11,0,0,0,.3.72,3.12,3.12,0,0,0,.6.76,3.05,3.05,0,0,0,.74.49,3.59,3.59,0,0,0,1,.29,4.29,4.29,0,0,0,.78.06H42a3.76,3.76,0,0,0,1.29-.22,3.88,3.88,0,0,0,.7-.36,3.1,3.1,0,0,0,.63-.57h0a3.14,3.14,0,0,0,.42-.63l.08-.17A11.47,11.47,0,0,0,47.34,61a11.1,11.1,0,0,0,4.23.82A10.21,10.21,0,0,0,55.48,61a10.08,10.08,0,0,0,1.57-.8,3.43,3.43,0,0,0,.93.93,3.25,3.25,0,0,0,1.89.58h2.46a3.45,3.45,0,0,0,1.32-.26,3.36,3.36,0,0,0,1.48-1.23,3.3,3.3,0,0,0,.58-1.89V51a1.46,1.46,0,0,1,.4-1,1.12,1.12,0,0,1,.36-.25,1,1,0,0,1,.38-.08,1.07,1.07,0,0,1,.25,0h0a3.4,3.4,0,0,0,1.39.29,3.56,3.56,0,0,0,1.24-.23,3.83,3.83,0,0,0,1.09-.66,3.36,3.36,0,0,0,.45-.47l.24-.31.14-.36c.14-.37.27-.74.39-1.09s.24-.68.33-.89h0a4.05,4.05,0,0,0,.31-1.5,3.59,3.59,0,0,0-.14-1,3.47,3.47,0,0,0-.76-1.33,3.61,3.61,0,0,0-.66-.57,3.76,3.76,0,0,0-.79-.41l-.24-.08a9.75,9.75,0,0,0-3.46-.64,10.06,10.06,0,0,0-1.91.19L69.5,27.28h0a3.21,3.21,0,0,0,.19-1.1A3,3,0,0,0,69.45,25a3.08,3.08,0,0,0-.52-.82,3,3,0,0,0-1.15-.81,3.09,3.09,0,0,0-1.24-.25h-2.7a3.6,3.6,0,0,0-1.18.2,3.9,3.9,0,0,0-1.36.82,3.66,3.66,0,0,0-.54.63,3.73,3.73,0,0,0-.43.82l-.76,2.16-.7-1.91h0A3.66,3.66,0,0,0,58,24.49l-.26-.23a10.21,10.21,0,0,0-7.06-4.87V17a3.31,3.31,0,0,0-.32-1.41,3.36,3.36,0,0,0-1.31-1.45,3.45,3.45,0,0,0-1.84-.52H32.05a3.62,3.62,0,0,0-1.27.23A3.52,3.52,0,0,0,29.25,15a3.43,3.43,0,0,0-.48.91A3.26,3.26,0,0,0,28.59,17v2.68a3.26,3.26,0,0,0,.31,1.4,3.4,3.4,0,0,0,1.31,1.46,3.57,3.57,0,0,0,1.84.52h1.89a3.36,3.36,0,0,0-1.3.27,2.86,2.86,0,0,0-.68.39,10.23,10.23,0,0,0-3.32-.55,10.3,10.3,0,0,0-8.55,4.53A10.27,10.27,0,0,0,19,37.07a3.47,3.47,0,0,0-.34.42,3.2,3.2,0,0,0-.47.92A3.78,3.78,0,0,0,18,39.47v1a3.25,3.25,0,0,0-.89.24,3.13,3.13,0,0,0-1.41,1.15,3.19,3.19,0,0,0-.55,1.8v2.8a3.33,3.33,0,0,0,.25,1.26,3.27,3.27,0,0,0,1.16,1.41A3.2,3.2,0,0,0,18,49.6v8.64A3.49,3.49,0,0,0,18.28,59.61Zm-.57-13.2v-2.8a.65.65,0,0,1,.65-.64h2.2v-3.5a.94.94,0,0,1,1-.91h1.3a7.66,7.66,0,0,1-1.92-5.09A7.75,7.75,0,0,1,33,27.09l.16.09v-.75a.79.79,0,0,1,.78-.79h2.37a.79.79,0,0,1,.79.79v8.79l.07-.24a.8.8,0,0,1-.06-.3V20.61c0-.11-.2-.12-.2-.12H32.05a.87.87,0,0,1-.9-.81V17a.86.86,0,0,1,.9-.81H47.24a.86.86,0,0,1,.9.81v2.68a.87.87,0,0,1-.9.81h-5.1s-.29,0-.27.12V26.5a7.69,7.69,0,0,1,14-.47,1.2,1.2,0,0,1,.64.65l2.72,7.46c.15.42.31.83.36.92s.21-.19.36-.61l2.85-8a1.24,1.24,0,0,1,1.09-.76h2.7a.54.54,0,0,1,.54.77L61.25,42.81h1.08c.45,0,.82.25.82.54v.54h.08A7.27,7.27,0,0,1,66.66,43a7.1,7.1,0,0,1,2.65.51A1,1,0,0,1,70,45c-.26.62-.52,1.45-.74,2a1,1,0,0,1-1.16.3,3,3,0,0,0-1.27-.23,3.83,3.83,0,0,0-3.71,3.74v7.53a.82.82,0,0,1-.82.82H59.87a.82.82,0,0,1-.82-.82V47.28l-.21,0H58.1a7.88,7.88,0,0,1,.41,1,6.71,6.71,0,0,1,.28,2c0,.44,0,.8,0,1.07a1.23,1.23,0,0,1-.19.66.93.93,0,0,1-.59.34,5.18,5.18,0,0,1-1.2.1h-9a3,3,0,0,0,.51,1.34,3.12,3.12,0,0,0,.88.86,3.47,3.47,0,0,0,1.07.46,4.2,4.2,0,0,0,1.07.14,5,5,0,0,0,.93-.09,9.05,9.05,0,0,0,.93-.25,5.5,5.5,0,0,0,.81-.37,2.73,2.73,0,0,0,.6-.43,2.63,2.63,0,0,1,.35-.25.61.61,0,0,1,.3-.08.68.68,0,0,1,.34.11,3.27,3.27,0,0,1,.38.33l1.33,1.51a.88.88,0,0,1,.18.29.86.86,0,0,1,0,.28.71.71,0,0,1-.14.43,1.44,1.44,0,0,1-.33.32,8.38,8.38,0,0,1-2.49,1.59,7.61,7.61,0,0,1-2.93.57,8.56,8.56,0,0,1-5.94-2.37,8.11,8.11,0,0,1-1.84-2.62A8,8,0,0,1,43.11,51a8.56,8.56,0,0,1,.27-2.15,8.47,8.47,0,0,1,2-3.61c.15-.15.3-.3.46-.44a7.88,7.88,0,0,1-1.2.09,7.75,7.75,0,0,1-7.51-5.81v1.53A7.55,7.55,0,0,1,36.47,43a7.37,7.37,0,0,1,.82,0,5.24,5.24,0,0,1,2.48.55A5,5,0,0,1,41.51,45a7,7,0,0,1,1,2.23A10.84,10.84,0,0,1,42.86,50v8.24a1.09,1.09,0,0,1-.21.72.83.83,0,0,1-.66.24h-2.9a1.18,1.18,0,0,1-.75-.18,1,1,0,0,1-.2-.71V50a2.6,2.6,0,0,0-.2-1,2.73,2.73,0,0,0-.56-.81,2.59,2.59,0,0,0-.83-.54,2.54,2.54,0,0,0-1-.19,2.27,2.27,0,0,0-.88.18,2.37,2.37,0,0,0-.78.52,2.74,2.74,0,0,0-.58.79,2.54,2.54,0,0,0-.27,1v8.3a1.26,1.26,0,0,1-.08.43.76.76,0,0,1-.25.33,1.19,1.19,0,0,1-.31.14,1.55,1.55,0,0,1-.33,0H29.23a1,1,0,0,1-.78-.26,1,1,0,0,1-.24-.7V47.36a7.28,7.28,0,0,1-1.26-.3h-2V58.24a1,1,0,0,1-.95.95H21.51a1,1,0,0,1-1-.95V47.06h-2.2A.66.66,0,0,1,17.71,46.41Z"/><path class="cls-1" d="M53,47.27a3.19,3.19,0,0,0-.91-.49,3.55,3.55,0,0,0-1.19-.18,2.45,2.45,0,0,0-.95.2,3.65,3.65,0,0,0-.86.52,5,5,0,0,0-.72.74,4.52,4.52,0,0,0-.52.85h6.42a6.37,6.37,0,0,0-.57-.91A3.73,3.73,0,0,0,53,47.27Z"/><path class="cls-6" d="M53,47.27a3.19,3.19,0,0,0-.91-.49,3.55,3.55,0,0,0-1.19-.18,2.45,2.45,0,0,0-.95.2,3.65,3.65,0,0,0-.86.52,5,5,0,0,0-.72.74,4.52,4.52,0,0,0-.52.85h6.42a6.37,6.37,0,0,0-.57-.91A3.73,3.73,0,0,0,53,47.27Z"/><path class="cls-1" d="M33.16,40.58s.4-1.11,0-.82l-.11.07v1A2.85,2.85,0,0,0,33.16,40.58Z"/><path class="cls-7" d="M33.16,40.58s.4-1.11,0-.82l-.11.07v1A2.85,2.85,0,0,0,33.16,40.58Z"/><path class="cls-1" d="M28.7,37.29a3.79,3.79,0,1,0-3.79-3.78A3.79,3.79,0,0,0,28.7,37.29ZM27.57,33A1.19,1.19,0,0,1,28,32.5a1.12,1.12,0,0,1,.68-.21,1.21,1.21,0,0,1,1.23,1.22,1.23,1.23,0,0,1-.09.47,1.3,1.3,0,0,1-.45.54,1.22,1.22,0,0,1-.69.2,1.28,1.28,0,0,1-.48-.09,1.24,1.24,0,0,1-.75-1.12A1.16,1.16,0,0,1,27.57,33Z"/><path class="cls-8" d="M28.7,37.29a3.79,3.79,0,1,0-3.79-3.78A3.79,3.79,0,0,0,28.7,37.29ZM27.57,33A1.19,1.19,0,0,1,28,32.5a1.12,1.12,0,0,1,.68-.21,1.21,1.21,0,0,1,1.23,1.22,1.23,1.23,0,0,1-.09.47,1.3,1.3,0,0,1-.45.54,1.22,1.22,0,0,1-.69.2,1.28,1.28,0,0,1-.48-.09,1.24,1.24,0,0,1-.75-1.12A1.16,1.16,0,0,1,27.57,33Z"/><path class="cls-1" d="M44.82,40.91a3.8,3.8,0,0,0,3.8-3.73A7.67,7.67,0,0,1,42.7,34a3.9,3.9,0,0,0-.84.78.86.86,0,0,1-.42.64,3.79,3.79,0,0,0,3.38,5.51Z"/><path class="cls-9" d="M44.82,40.91a3.8,3.8,0,0,0,3.8-3.73A7.67,7.67,0,0,1,42.7,34a3.9,3.9,0,0,0-.84.78.86.86,0,0,1-.42.64,3.79,3.79,0,0,0,3.38,5.51Z"/><path class="cls-10" d="M20.45,47.06h.11V58.24a1,1,0,0,0,1,.95H24a1,1,0,0,0,.95-.95V47.06h2a7.48,7.48,0,0,1-2.57-1.4.83.83,0,0,1-.18-1.38L25.31,43l0-.05h-.41V40.26a7.79,7.79,0,0,1-2.12-1.7h-1.3a.94.94,0,0,0-1,.91V43h-2.2a.65.65,0,0,0-.65.64v2.8a.66.66,0,0,0,.65.65Z"/><path class="cls-1" d="M54.93,34.34l2.21,6,.3.83a3.93,3.93,0,0,1-.24.83l-1,2.75.26.24a8.16,8.16,0,0,1,1.23,1.54,7.48,7.48,0,0,1,.39.74h.74l.21,0V43.63a.82.82,0,0,1,.82-.82h1.38l5.83-16.39a.54.54,0,0,0-.54-.77h-2.7a1.24,1.24,0,0,0-1.09.76l-2.85,8c-.15.42-.32.7-.36.61s-.21-.5-.36-.92l-2.72-7.46a1.2,1.2,0,0,0-.64-.65,7.67,7.67,0,0,1-.89,8.31Z"/><path class="cls-10" d="M33,40.85v-1a9.75,9.75,0,0,1-1,.57h0l-.51.23-.05,0-.49.18-.11,0-.45.13-.19,0-.39.08-.3,0-.3,0c-.2,0-.41,0-.61,0h-.43v2.07C31.15,44.28,32.63,41.71,33,40.85Z"/><path class="cls-10" d="M29.49,47.47a7.44,7.44,0,0,1-1.28-.11V58.19a1,1,0,0,0,.24.7,1,1,0,0,0,.78.26h2.84a1.55,1.55,0,0,0,.33,0,1.19,1.19,0,0,0,.31-.14.76.76,0,0,0,.25-.33,1.26,1.26,0,0,0,.08-.43v-8.3a2.54,2.54,0,0,1,.27-1,2.74,2.74,0,0,1,.58-.79,2.37,2.37,0,0,1,.78-.52,2.27,2.27,0,0,1,.88-.18,2.54,2.54,0,0,1,1,.19,2.59,2.59,0,0,1,.83.54,2.73,2.73,0,0,1,.56.81,2.6,2.6,0,0,1,.2,1v8.31a1,1,0,0,0,.2.71,1.18,1.18,0,0,0,.75.18H42a.83.83,0,0,0,.66-.24,1.09,1.09,0,0,0,.21-.72V50a10.84,10.84,0,0,0-.33-2.72,7,7,0,0,0-1-2.23,5,5,0,0,0-1.74-1.5A5.24,5.24,0,0,0,37.29,43a7.37,7.37,0,0,0-.82,0A7.85,7.85,0,0,1,29.49,47.47Z"/><path class="cls-10" d="M56.48,45l-.26-.24a8.24,8.24,0,0,0-1.32-1,7.05,7.05,0,0,0-1.59-.7v1.14a.79.79,0,0,1-.79.79H50.16a.79.79,0,0,1-.79-.79v-.66l0-.36a7.67,7.67,0,0,1-3.54,1.52c-.16.14-.31.29-.46.44A8.44,8.44,0,0,0,43.11,51a8,8,0,0,0,.68,3.28,8.11,8.11,0,0,0,1.84,2.62,8.56,8.56,0,0,0,5.94,2.37,7.61,7.61,0,0,0,2.93-.57A8.38,8.38,0,0,0,57,57.08a1.44,1.44,0,0,0,.33-.32.71.71,0,0,0,.14-.43.86.86,0,0,0,0-.28.88.88,0,0,0-.18-.29l-1.33-1.51a3.27,3.27,0,0,0-.38-.33.68.68,0,0,0-.34-.11.61.61,0,0,0-.3.08,2.63,2.63,0,0,0-.35.25,2.73,2.73,0,0,1-.6.43,5.5,5.5,0,0,1-.81.37,9.05,9.05,0,0,1-.93.25,5,5,0,0,1-.93.09,4.2,4.2,0,0,1-1.07-.14,3.47,3.47,0,0,1-1.07-.46,3.12,3.12,0,0,1-.88-.86,3,3,0,0,1-.51-1.34h9a5.18,5.18,0,0,0,1.2-.1.93.93,0,0,0,.59-.34,1.23,1.23,0,0,0,.19-.66c0-.27,0-.63,0-1.07a6.71,6.71,0,0,0-.28-2,7.88,7.88,0,0,0-.41-1,7.48,7.48,0,0,0-.39-.74A8.16,8.16,0,0,0,56.48,45Zm-8.59,3.88a4.52,4.52,0,0,1,.52-.85,5,5,0,0,1,.72-.74A3.65,3.65,0,0,1,50,46.8a2.45,2.45,0,0,1,.95-.2,3.55,3.55,0,0,1,1.19.18,3.19,3.19,0,0,1,.91.49,3.73,3.73,0,0,1,.7.73,6.37,6.37,0,0,1,.57.91Z"/><path class="cls-10" d="M48.62,37.18v-.06A3.81,3.81,0,0,0,42.7,34,7.67,7.67,0,0,0,48.62,37.18Z"/><path class="cls-10" d="M41.86,34.76a3.92,3.92,0,0,0-.42.64A.86.86,0,0,0,41.86,34.76Z"/><path class="cls-10" d="M44.61,29.41a6.84,6.84,0,0,1,.79.05,3.76,3.76,0,0,1,7.19-1.54l.2.55a3.52,3.52,0,0,1,.14,1,.77.77,0,0,1,.38.67v5.72a7.72,7.72,0,0,0,3.34-6.34,7.69,7.69,0,0,0-14.78-3V20.61c0-.14.27-.12.27-.12h5.1a.87.87,0,0,0,.9-.81V17a.86.86,0,0,0-.9-.81H32.05a.86.86,0,0,0-.9.81v2.68a.87.87,0,0,0,.9.81h4.86s.22,0,.2.12V34.68a.8.8,0,0,0,.06.3A7.75,7.75,0,0,1,44.61,29.41Z"/><path class="cls-1" d="M28.21,41.19h.43l-.43,0V39.77a1,1,0,0,1,.24-.69,1,1,0,0,1,.78-.27h2.84a1.35,1.35,0,0,1,.64.2.76.76,0,0,1,.25.33,1.23,1.23,0,0,1,.08.4v.09a9.75,9.75,0,0,1-1,.57,9.75,9.75,0,0,0,1-.57l.11-.07c.41-.29,0,.82,0,.82a2.85,2.85,0,0,1-.12.27c-.41.86-1.89,3.43-4.83,2.41a6.24,6.24,0,0,1-1.15-.55,1.06,1.06,0,0,0-1.71.26l0,.05L24.2,44.28a.83.83,0,0,0,.18,1.38A7.48,7.48,0,0,0,27,47.06a7.28,7.28,0,0,0,1.26.3,7.44,7.44,0,0,0,1.28.11,7.85,7.85,0,0,0,7-4.47,7.55,7.55,0,0,0,.63-2.42V39.05a7.75,7.75,0,0,0,7.51,5.81,7.88,7.88,0,0,0,1.2-.09,7.67,7.67,0,0,0,3.54-1.52l0,.36v.66a.79.79,0,0,0,.79.79h2.36a.79.79,0,0,0,.79-.79V30.12a.77.77,0,0,0-.38-.67.73.73,0,0,0-.41-.12H50.16a.79.79,0,0,0-.79.79V31l-.23-.14a7.69,7.69,0,0,0-3.74-1.41,6.84,6.84,0,0,0-.79-.05A7.75,7.75,0,0,0,37.17,35l-.07.24V26.43a.79.79,0,0,0-.79-.79H33.94a.79.79,0,0,0-.78.79v.75L33,27.09A7.73,7.73,0,0,0,22.81,38.56a7.72,7.72,0,0,0,5.4,2.63ZM41.44,35.4A4,4,0,0,1,42.7,34a3.81,3.81,0,0,1,5.92,3.14v.06a3.8,3.8,0,1,1-7.18-1.78ZM28.7,29.72a3.79,3.79,0,1,1-3.79,3.79A3.8,3.8,0,0,1,28.7,29.72Z"/><path class="cls-10" d="M59.05,43.63V58.37a.82.82,0,0,0,.82.82h2.46a.82.82,0,0,0,.82-.82V50.84a3.83,3.83,0,0,1,3.71-3.74,3,3,0,0,1,1.27.23,1,1,0,0,0,1.16-.3c.22-.59.48-1.42.74-2a1,1,0,0,0-.72-1.46A7.1,7.1,0,0,0,66.66,43a7.27,7.27,0,0,0-3.43.86h-.08v-.54c0-.29-.37-.54-.82-.54H59.87A.82.82,0,0,0,59.05,43.63Z"/><path class="cls-11" d="M29.55,41.14l.3,0,.39-.08.19,0,.45-.13.11,0,.49-.18.05,0L32,40.4h0a9.75,9.75,0,0,0,1-.57v-.09a1.23,1.23,0,0,0-.08-.4.76.76,0,0,0-.25-.33,1.35,1.35,0,0,0-.64-.2H29.23a1,1,0,0,0-.78.27,1,1,0,0,0-.24.69v1.41l.43,0c.2,0,.41,0,.61,0Z"/><path class="cls-12" d="M114.05,29.05V25.87h-8.78c1-1.22,2.1-2.69,3.1-4.17l-3.88-.88a37.15,37.15,0,0,1-3.1,5.05H92.24L93.87,25a22.54,22.54,0,0,0-3.51-4.31l-3,1.33a29.86,29.86,0,0,1,2.87,3.83h-9v3.18H95.56c-.18.92-.48,1.95-.73,2.87H85.16v22.8h3.43V52.8h17.82v1.92H110V31.92H98.51c.41-.88.82-1.88,1.22-2.87Zm-7.64,20.77H88.59V46.5h17.82Zm0-6H88.59V40.67h17.82Zm0-8.89V38H88.59V34.91Z"/><path class="cls-12" d="M147,28.64H135.48c.29-.89.62-1.85.92-2.84h13.28V22.66H119.13V25.8h13.32c-.15,1-.37,1.95-.59,2.84h-9.37V47.42H147Zm-3.73,16.12H126.07V41.92h17.19Zm0-5.35H126.07v-2.8h17.19Zm0-5.31H126.07V31.33h17.19Z"/><path class="cls-12" d="M120.17,54.69a55.9,55.9,0,0,0,12.06-4.91l-3-2.29a50.18,50.18,0,0,1-11.4,4.58A22.69,22.69,0,0,1,120.17,54.69Z"/><path class="cls-12" d="M151.08,52.4a103,103,0,0,0-11.8-4.72l-2.48,2.25a76.83,76.83,0,0,1,11,4.79Z"/></svg>