<svg xmlns="http://www.w3.org/2000/svg" width="28.283" height="50" viewBox="0 0 28.283 50">
  <path id="路径_36" data-name="路径 36" d="M483.01,305.915a2.542,2.542,0,0,0-1.14-1.158l-.283-.147h-8.261l-.161.042c-.11.029-.183.052-.222.063l-.029.007a12.072,12.072,0,0,0-6.695,2.905,11.559,11.559,0,0,0-2.95,4.093,13.927,13.927,0,0,0-1.057,4.817c-.046.916-.057,1.824-.057,2.721,0,.8.008,1.6.01,2.383h-4.585a3.325,3.325,0,0,0-.945.123,2.272,2.272,0,0,0-.724.357,2.155,2.155,0,0,0-.735,1.005,3.191,3.191,0,0,0-.169,1.077q0,1.758,0,3.517,0,1.853,0,3.707a3.345,3.345,0,0,0,.124.947,2.246,2.246,0,0,0,.363.728,2.149,2.149,0,0,0,1.016.725,3.263,3.263,0,0,0,1.064.159l2.364,0h2.228v6.828q0,5.607,0,11.215a3.575,3.575,0,0,0,.111.947,2.23,2.23,0,0,0,.357.749,2.1,2.1,0,0,0,1.049.738,3.436,3.436,0,0,0,1.067.145h7.356a4.062,4.062,0,0,0,.986-.1,2.286,2.286,0,0,0,.786-.355,2.031,2.031,0,0,0,.495-.511,2.38,2.38,0,0,0,.351-.88,4.347,4.347,0,0,0,.069-.828q0-8.972,0-17.945h2.7q1.474,0,2.949,0a3.315,3.315,0,0,0,.916-.116,2.222,2.222,0,0,0,.713-.345,2.1,2.1,0,0,0,.728-.99,3.09,3.09,0,0,0,.164-1.044q.008-2.291.008-4.584,0-1.365,0-2.732a3.286,3.286,0,0,0-.123-.938,2.231,2.231,0,0,0-.362-.722,2.126,2.126,0,0,0-1.008-.716,3.223,3.223,0,0,0-1.05-.156H474.8c-.006-.647-.012-1.286-.012-1.911,0-.667.008-1.323.033-1.973a2.294,2.294,0,0,1,.118-.7.657.657,0,0,1,.3-.384,1.968,1.968,0,0,1,.921-.2c1.465-.051,2.95-.052,4.453-.066a4.021,4.021,0,0,0,.981-.114,2.306,2.306,0,0,0,.774-.359,2.048,2.048,0,0,0,.488-.5,2.377,2.377,0,0,0,.357-.875,4.179,4.179,0,0,0,.073-.83v-.375q0-1.634,0-3.26,0-1.4.009-2.788v-.035A3.1,3.1,0,0,0,483.01,305.915Zm-2.429,7.873c-1.487.014-2.994.015-4.518.067a5.133,5.133,0,0,0-1.487.255,3.324,3.324,0,0,0-1.764,1.364,4.338,4.338,0,0,0-.609,2.181c-.027.7-.035,1.387-.035,2.075,0,1.075.02,2.143.02,3.22v1.309h8.17q0,1.324,0,2.646,0,2.231-.007,4.463l-2.853,0h-5.322v1.871q0,9.346,0,18.692c0,.022,0,.039,0,.058h-7.391q0-5.589,0-11.176V331.37h-4.845l-2.313,0q0-1.825,0-3.648,0-1.731,0-3.461h7.158v-1.822q0-.226,0-.451c0-.921-.012-1.83-.012-2.728,0-.875.011-1.738.054-2.59a11.3,11.3,0,0,1,.849-3.917,8.933,8.933,0,0,1,2.29-3.173,9.451,9.451,0,0,1,5.3-2.262,2.89,2.89,0,0,0,.409-.088h6.989c0,.016,0,.022,0,.039v.016q-.011,1.406-.009,2.807,0,1.633,0,3.26v.373h0c0,.024,0,.043,0,.063Z" transform="translate(-455.004 -304.61)"/>
</svg>
