<svg id="组_379" data-name="组 379" xmlns="http://www.w3.org/2000/svg" width="27.083" height="50" viewBox="0 0 27.083 50">
  <path id="路径_51" data-name="路径 51" d="M193.838,383.114a1.434,1.434,0,0,1,.75,1.449c-.016,2.262,0,4.525-.007,6.786,0,1.112-.338,1.438-1.454,1.45-1.577.015-3.156.016-4.733.07a2.479,2.479,0,0,0-2.742,2.684c-.071,1.818-.016,3.641-.016,5.532h.532q3.392,0,6.786,0c.936,0,1.3.354,1.3,1.294q.007,3.858,0,7.714c0,.909-.363,1.255-1.282,1.257q-3.369.006-6.738,0h-.606v.594q0,9.862,0,19.724c0,1.127-.32,1.444-1.454,1.444h-7.763c-1.01,0-1.346-.329-1.346-1.34q0-9.863,0-19.725v-.7H174.5q-2.832,0-5.664,0c-.959,0-1.327-.363-1.33-1.323q-.009-3.808,0-7.617c0-.952.387-1.324,1.335-1.325q2.807,0,5.614,0h.6c0-.2,0-.375,0-.548.01-2.05-.055-4.1.047-6.15a11.6,11.6,0,0,1,3.77-8.442,11.356,11.356,0,0,1,6.343-2.729,3.4,3.4,0,0,0,.411-.1Z" transform="translate(-167.504 -383.114)" fill="#3d6ad6"/>
</svg>
