<svg id="圖層_1" data-name="圖層 1" xmlns="http://www.w3.org/2000/svg" xmlns:xlink="http://www.w3.org/1999/xlink" viewBox="0 0 169.38 74.37"><defs><style>.cls-1{fill:none;}.cls-2{fill:url(#未命名漸層_2);}.cls-3{fill:url(#未命名漸層_3);}.cls-4{fill:url(#未命名漸層_4);}.cls-5{fill:url(#未命名漸層_5);}.cls-6{fill:url(#未命名漸層_5-2);}.cls-7{fill:url(#未命名漸層_6);}.cls-8{fill:url(#未命名漸層_7);}.cls-9{fill:url(#未命名漸層_8);}.cls-10{fill:url(#未命名漸層_9);}.cls-11{fill:#040000;}.cls-12{fill:#fff;}.cls-13{fill:#787878;}</style><linearGradient id="未命名漸層_2" x1="-1330.02" y1="-921.65" x2="-1329.02" y2="-921.65" gradientTransform="matrix(47.91, 27.66, 27.66, -47.91, 89243.67, -7351.17)" gradientUnits="userSpaceOnUse"><stop offset="0" stop-color="#e50012"/><stop offset="0.06" stop-color="#e50012"/><stop offset="0.18" stop-color="#f19500"/><stop offset="0.33" stop-color="#fff000"/><stop offset="0.52" stop-color="#009844"/><stop offset="0.67" stop-color="#009fe8"/><stop offset="0.81" stop-color="#0068b6"/><stop offset="0.95" stop-color="#8f0882"/><stop offset="1" stop-color="#8f0882"/></linearGradient><linearGradient id="未命名漸層_3" x1="-1330.02" y1="-921.65" x2="-1329.02" y2="-921.65" gradientTransform="matrix(47.91, 27.66, 27.66, -47.91, 89240.43, -7345.56)" xlink:href="#未命名漸層_2"/><linearGradient id="未命名漸層_4" x1="-1330.02" y1="-921.65" x2="-1329.02" y2="-921.65" gradientTransform="matrix(47.91, 27.66, 27.66, -47.91, 89232.09, -7331.12)" xlink:href="#未命名漸層_2"/><linearGradient id="未命名漸層_5" x1="-1329.72" y1="-922.09" x2="-1329.53" y2="-922.09" gradientTransform="matrix(47.91, 27.66, 27.66, -47.91, 89236.2, -7338.39)" xlink:href="#未命名漸層_2"/><linearGradient id="未命名漸層_5-2" x1="-1330.02" y1="-921.65" x2="-1329.02" y2="-921.65" gradientTransform="matrix(47.91, 27.66, 27.66, -47.91, 89236.2, -7338.39)" xlink:href="#未命名漸層_2"/><linearGradient id="未命名漸層_6" x1="-1330.02" y1="-921.65" x2="-1329.02" y2="-921.65" gradientTransform="matrix(47.91, 27.66, 27.66, -47.91, 89235.47, -7336.97)" xlink:href="#未命名漸層_2"/><linearGradient id="未命名漸層_7" x1="-1330.02" y1="-921.65" x2="-1329.02" y2="-921.65" gradientTransform="matrix(47.91, 27.66, 27.66, -47.91, 89234.52, -7335.32)" xlink:href="#未命名漸層_2"/><linearGradient id="未命名漸層_8" x1="-1330.02" y1="-921.65" x2="-1329.02" y2="-921.65" gradientTransform="matrix(47.91, 27.66, 27.66, -47.91, 89236.34, -7338.47)" xlink:href="#未命名漸層_2"/><linearGradient id="未命名漸層_9" x1="-1330.02" y1="-921.65" x2="-1329.02" y2="-921.65" gradientTransform="matrix(47.91, 27.66, 27.66, -47.91, 89238.31, -7341.9)" xlink:href="#未命名漸層_2"/></defs><rect class="cls-1" x="126.48" y="43.86" width="5.8" height="5.98"/><path class="cls-1" d="M131.87,31.53h-3.73c-.14,1.07-.33,2.07-.51,3.06h4.24Z"/><path class="cls-1" d="M131.87,25.51h-3.1c-.07,1.07-.18,2.1-.29,3.14h3.39Z"/><path class="cls-1" d="M30,32.38a1.21,1.21,0,0,0-.48-.09,1.17,1.17,0,0,0-.69.21,1.23,1.23,0,0,0-.44.54,1.17,1.17,0,0,0,.11,1.14,1.19,1.19,0,0,0,.54.45,1.28,1.28,0,0,0,.48.09,1.22,1.22,0,0,0,.69-.2,1.3,1.3,0,0,0,.45-.54,1.23,1.23,0,0,0,.09-.47,1.21,1.21,0,0,0-.2-.68A1.27,1.27,0,0,0,30,32.38Z"/><path class="cls-1" d="M151.33,3.5H18.05A14.61,14.61,0,0,0,3.5,18.05V56.32A14.61,14.61,0,0,0,18.05,70.87H151.33a14.6,14.6,0,0,0,14.55-14.55V18.05A14.6,14.6,0,0,0,151.33,3.5ZM73.2,46h0c-.09.21-.21.54-.33.89s-.25.72-.39,1.09l-.14.36-.24.31a3.36,3.36,0,0,1-.45.47,3.76,3.76,0,0,1-1.1.66,3.47,3.47,0,0,1-2.63-.06h0a1.07,1.07,0,0,0-.25,0,1,1,0,0,0-.38.08,1.3,1.3,0,0,0-.36.25,1.46,1.46,0,0,0-.4,1v7.41a3.36,3.36,0,0,1-3.38,3.38H60.67a3.23,3.23,0,0,1-1.89-.58,3.43,3.43,0,0,1-.93-.93,10.08,10.08,0,0,1-1.57.8h0a10.21,10.21,0,0,1-3.91.77A11.1,11.1,0,0,1,48.14,61a11.47,11.47,0,0,1-2.23-1.22l-.08.17a3.14,3.14,0,0,1-.42.63h0a3.1,3.1,0,0,1-.63.57,3.88,3.88,0,0,1-.7.36,3.76,3.76,0,0,1-1.29.22h-2.9a4.29,4.29,0,0,1-.78-.06,3.25,3.25,0,0,1-1-.29,3.05,3.05,0,0,1-.74-.49,3.12,3.12,0,0,1-.6-.76,3,3,0,0,1-.3-.72,3.75,3.75,0,0,1-.13-.82,4,4,0,0,1-.24,1h0a3.39,3.39,0,0,1-.44.81,3.28,3.28,0,0,1-.73.71l-.06,0-.06,0a4,4,0,0,1-1,.43h0a4,4,0,0,1-1,.12H30a4.1,4.1,0,0,1-1-.1A3.47,3.47,0,0,1,28,61.18a3.16,3.16,0,0,1-.66-.55,3.68,3.68,0,0,1-1.21.85,3.49,3.49,0,0,1-1.37.27H22.31a3.45,3.45,0,0,1-2-.6,3.61,3.61,0,0,1-1.27-1.54,3.68,3.68,0,0,1-.28-1.37V49.61a3.34,3.34,0,0,1-1.43-.53,3.27,3.27,0,0,1-1.16-1.41A3.33,3.33,0,0,1,16,46.41v-2.8a3.19,3.19,0,0,1,.55-1.8,3.13,3.13,0,0,1,1.41-1.15,3.18,3.18,0,0,1,.88-.24v-1a3.46,3.46,0,0,1,.63-2,4.87,4.87,0,0,1,.35-.42A10.3,10.3,0,0,1,25.42,24a10.38,10.38,0,0,1,4-.81,10.23,10.23,0,0,1,3.32.55,3.25,3.25,0,0,1,.68-.39,3.36,3.36,0,0,1,1.3-.27H32.85A3.55,3.55,0,0,1,31,22.54a3.4,3.4,0,0,1-1.31-1.46,3.26,3.26,0,0,1-.31-1.4V17a3.26,3.26,0,0,1,.18-1.08,3.16,3.16,0,0,1,.48-.91,3.5,3.5,0,0,1,1.53-1.15,3.41,3.41,0,0,1,1.27-.24H48a3.49,3.49,0,0,1,3.15,2A3.31,3.31,0,0,1,51.51,17v2.39a10.21,10.21,0,0,1,7.06,4.87l.26.23a3.8,3.8,0,0,1,.84,1.31h0l.7,1.91.76-2.16a3.48,3.48,0,0,1,1-1.44,3.78,3.78,0,0,1,1.36-.83,3.6,3.6,0,0,1,1.18-.2h2.7a3.31,3.31,0,0,1,1.24.25,3,3,0,0,1,1.15.81,3.08,3.08,0,0,1,.52.82,3,3,0,0,1,.24,1.22,3.21,3.21,0,0,1-.19,1.1h0L65.55,40.64a10.06,10.06,0,0,1,1.91-.19,9.74,9.74,0,0,1,3.45.64l.25.08a3.76,3.76,0,0,1,.79.41,3.61,3.61,0,0,1,.66.57,3.47,3.47,0,0,1,.76,1.33,3.59,3.59,0,0,1,.14,1A4.05,4.05,0,0,1,73.2,46Zm18.27-6.46V54.69H88.14V40.36a30.19,30.19,0,0,1-4.69,3.76A16.39,16.39,0,0,0,82,40.73,29.17,29.17,0,0,0,92.17,30.16H83.05v-3.1h7a24.86,24.86,0,0,0-3.33-4.84l2.66-1.51a21.45,21.45,0,0,1,3.47,4.72l-2.66,1.63H94l.59-.15,1.85,1.3A34.45,34.45,0,0,1,92,36c1.48,1.33,4.21,4.06,5,4.84l-2.14,2.84C94.13,42.61,92.72,41,91.47,39.51ZM116.4,53.39H95.31V50h9.31V35.37H97V32.08h7.65V20.85h3.51V32.08h7.45v3.29h-7.45V50h8.27Zm19.2-.59h-9.12v1.92h-3.14V45.64a19.71,19.71,0,0,1-2.07,2.51,13.58,13.58,0,0,0-2.21-2.7,17.61,17.61,0,0,0,4.54-7.9h-2.29v-3h3c.22-1,.41-2,.55-3.06h-5.32V28.65h5.66c.11-1,.18-2.07.25-3.14h-4V22.59h13.6v6.06h2v2.88h-2v6h-8.17c-.33,1.14-.7,2.25-1.1,3.32h9.78Zm17.88-6.42h-7v8.34h-3.29V46.38h-6.57V43.16h6.57V38.44h-5.28V35.3h5.28V31h-5.76V27.87h2.66a20.22,20.22,0,0,0-2.4-5.87l2.77-.92A19.09,19.09,0,0,1,143.06,27l-2.32.85h8.42l-2.81-.77a42.66,42.66,0,0,0,2.44-6.32l3.29.78c-1,2.21-2,4.69-2.92,6.31h3.54V31h-6.2V35.3H152v3.14h-5.5v4.72h7Z"/><path d="M151.33,0H18.05A18.1,18.1,0,0,0,0,18.05V56.32A18.1,18.1,0,0,0,18.05,74.37H151.33a18.1,18.1,0,0,0,18-18.05V18.05A18.1,18.1,0,0,0,151.33,0Zm14.55,56.32a14.6,14.6,0,0,1-14.55,14.55H18.05A14.61,14.61,0,0,1,3.5,56.32V18.05A14.61,14.61,0,0,1,18.05,3.5H151.33a14.6,14.6,0,0,1,14.55,14.55Z"/><path d="M92,36a34.45,34.45,0,0,0,4.4-7.75l-1.85-1.3-.59.15H90.17l2.66-1.63a21.45,21.45,0,0,0-3.47-4.72L86.7,22.22A24.86,24.86,0,0,1,90,27.06h-7v3.1h9.12A29.17,29.17,0,0,1,82,40.73a16.39,16.39,0,0,1,1.44,3.39,30.19,30.19,0,0,0,4.69-3.76V54.69h3.33V39.51c1.25,1.44,2.66,3.1,3.36,4.13L97,40.8C96.23,40,93.5,37.29,92,36Z"/><polygon points="108.13 35.37 115.58 35.37 115.58 32.08 108.13 32.08 108.13 20.85 104.62 20.85 104.62 32.08 96.97 32.08 96.97 35.37 104.62 35.37 104.62 50.03 95.31 50.03 95.31 53.39 116.4 53.39 116.4 50.03 108.13 50.03 108.13 35.37"/><path d="M148.79,20.78a42.66,42.66,0,0,1-2.44,6.32l2.81.77c.88-1.62,2-4.1,2.92-6.31Z"/><path d="M126.92,37.55h8.17v-6h2V28.65h-2V22.59h-13.6v2.92h4c-.07,1.07-.14,2.1-.25,3.14h-5.66v2.88h5.32c-.14,1.07-.33,2.07-.55,3.06h-3v3h2.29a17.61,17.61,0,0,1-4.54,7.9,13.58,13.58,0,0,1,2.21,2.7,19.71,19.71,0,0,0,2.07-2.51v9.08h3.14V52.8h9.12V40.87h-9.78C126.22,39.8,126.59,38.69,126.92,37.55Zm1.85-12h3.1v3.14h-3.39C128.59,27.61,128.7,26.58,128.77,25.51Zm-.63,6h3.73v3.06h-4.24C127.81,33.6,128,32.6,128.14,31.53Zm-1.66,12.33h5.8v6h-5.8Z"/><path d="M146.5,38.44H152V35.3h-5.5V31h6.2V27.87h-12l2.32-.85a19.09,19.09,0,0,0-2.58-5.94l-2.77.92a20.22,20.22,0,0,1,2.4,5.87h-2.66V31h5.76V35.3h-5.28v3.14h5.28v4.72h-6.57v3.22h6.57v8.34h3.29V46.38h7V43.16h-7Z"/><path class="cls-2" d="M53.39,27.92a3.76,3.76,0,0,0-7.19,1.54,7.62,7.62,0,0,1,3.73,1.41l.24.14v-.89a.79.79,0,0,1,.79-.79h2.36a.82.82,0,0,1,.41.12,3.52,3.52,0,0,0-.14-1Z"/><path class="cls-3" d="M54.11,35.84v7.29a7.53,7.53,0,0,1,1.59.7,8.24,8.24,0,0,1,1.32,1L58,42a3.93,3.93,0,0,0,.24-.83l-.3-.83-2.21-6A7.7,7.7,0,0,1,54.11,35.84Z"/><path class="cls-4" d="M25.74,43h.41a1.06,1.06,0,0,1,1.71-.26,6.24,6.24,0,0,0,1.15.55V41.19a7.84,7.84,0,0,1-3.28-.93V43Z"/><polygon class="cls-5" points="27.34 60.61 27.34 60.61 27.34 60.61 27.34 60.61"/><path class="cls-6" d="M72.61,42.15a3.61,3.61,0,0,0-.66-.57,3.76,3.76,0,0,0-.79-.41l-.25-.08a9.74,9.74,0,0,0-3.45-.64,10.06,10.06,0,0,0-1.91.19L70.3,27.28h0a3.21,3.21,0,0,0,.19-1.1A3,3,0,0,0,70.25,25a3.08,3.08,0,0,0-.52-.82,3,3,0,0,0-1.15-.81,3.31,3.31,0,0,0-1.24-.25h-2.7a3.6,3.6,0,0,0-1.18.2,3.78,3.78,0,0,0-1.36.83,3.48,3.48,0,0,0-1,1.44l-.76,2.16-.7-1.91h0a3.8,3.8,0,0,0-.84-1.31l-.26-.23a10.21,10.21,0,0,0-7.06-4.87V17a3.31,3.31,0,0,0-.32-1.41,3.49,3.49,0,0,0-3.15-2H32.85a3.41,3.41,0,0,0-1.27.24A3.5,3.5,0,0,0,30.05,15a3.16,3.16,0,0,0-.48.91A3.26,3.26,0,0,0,29.39,17v2.68a3.26,3.26,0,0,0,.31,1.4A3.4,3.4,0,0,0,31,22.54a3.55,3.55,0,0,0,1.84.52h1.89a3.36,3.36,0,0,0-1.3.27,3.25,3.25,0,0,0-.68.39,10.23,10.23,0,0,0-3.32-.55,10.3,10.3,0,0,0-8.55,4.53,10.27,10.27,0,0,0-1.12,9.36,4.87,4.87,0,0,0-.35.42,3.46,3.46,0,0,0-.63,2v1a3.18,3.18,0,0,0-.88.24,3.13,3.13,0,0,0-1.41,1.15,3.19,3.19,0,0,0-.55,1.8v2.8a3.33,3.33,0,0,0,.25,1.26,3.27,3.27,0,0,0,1.16,1.41,3.34,3.34,0,0,0,1.43.53v8.63a3.68,3.68,0,0,0,.28,1.37,3.61,3.61,0,0,0,1.27,1.54,3.45,3.45,0,0,0,2,.6h2.47a3.49,3.49,0,0,0,1.37-.27,3.68,3.68,0,0,0,1.21-.85,3.16,3.16,0,0,0,.66.55,3.47,3.47,0,0,0,1.06.44,4.1,4.1,0,0,0,1,.1h2.84a4,4,0,0,0,1-.12h0a4,4,0,0,0,1-.43l.06,0,.06,0a3.28,3.28,0,0,0,.73-.71,3.39,3.39,0,0,0,.44-.81h0a4,4,0,0,0,.24-1,3.75,3.75,0,0,0,.13.82,3,3,0,0,0,.3.72,3.12,3.12,0,0,0,.6.76,3.05,3.05,0,0,0,.74.49,3.25,3.25,0,0,0,1,.29,4.29,4.29,0,0,0,.78.06h2.9a3.76,3.76,0,0,0,1.29-.22,3.88,3.88,0,0,0,.7-.36,3.1,3.1,0,0,0,.63-.57h0a3.14,3.14,0,0,0,.42-.63l.08-.17A11.47,11.47,0,0,0,48.14,61a11.1,11.1,0,0,0,4.23.82A10.21,10.21,0,0,0,56.28,61h0a10.08,10.08,0,0,0,1.57-.8,3.43,3.43,0,0,0,.93.93,3.23,3.23,0,0,0,1.89.58h2.46a3.45,3.45,0,0,0,1.32-.26,3.38,3.38,0,0,0,2.06-3.12V51a1.46,1.46,0,0,1,.4-1,1.3,1.3,0,0,1,.36-.25,1,1,0,0,1,.38-.08,1.07,1.07,0,0,1,.25,0h0a3.47,3.47,0,0,0,2.63.06,3.76,3.76,0,0,0,1.1-.66,3.36,3.36,0,0,0,.45-.47l.24-.31.14-.36c.14-.37.27-.74.39-1.09s.24-.68.33-.89h0a4.05,4.05,0,0,0,.31-1.5,3.59,3.59,0,0,0-.14-1A3.47,3.47,0,0,0,72.61,42.15ZM27.34,60.61ZM70.83,45c-.26.62-.52,1.45-.74,2a1,1,0,0,1-1.16.3,3,3,0,0,0-1.27-.23A3.82,3.82,0,0,0,64,50.84v7.53a.82.82,0,0,1-.82.82H60.67a.82.82,0,0,1-.82-.82V47.28l-.21,0H58.9a7.88,7.88,0,0,1,.41,1,6.71,6.71,0,0,1,.28,2c0,.44,0,.8,0,1.07a1.23,1.23,0,0,1-.19.66.93.93,0,0,1-.59.34,5.18,5.18,0,0,1-1.2.1H48.54a3,3,0,0,0,.51,1.34,3.12,3.12,0,0,0,.88.86,3.37,3.37,0,0,0,1.07.46,4.14,4.14,0,0,0,1.07.14,5,5,0,0,0,.93-.09,6.53,6.53,0,0,0,.92-.25,5.19,5.19,0,0,0,.82-.37,2.73,2.73,0,0,0,.6-.43,2.63,2.63,0,0,1,.35-.25.61.61,0,0,1,.3-.08.68.68,0,0,1,.34.11,3.27,3.27,0,0,1,.38.33L58,55.76a.88.88,0,0,1,.18.29,1.26,1.26,0,0,1,0,.28.71.71,0,0,1-.14.43,1.44,1.44,0,0,1-.33.32,8.38,8.38,0,0,1-2.49,1.59,7.61,7.61,0,0,1-2.93.57,8.44,8.44,0,0,1-3.25-.63,8.58,8.58,0,0,1-2.7-1.74,8.24,8.24,0,0,1-1.83-2.62A8,8,0,0,1,43.91,51a8.43,8.43,0,0,1,1-4.09,8.16,8.16,0,0,1,1.2-1.66c.15-.16.3-.31.46-.45a7.88,7.88,0,0,1-1.2.09,7.74,7.74,0,0,1-7.51-5.81v1.53A7.55,7.55,0,0,1,37.27,43a7.22,7.22,0,0,1,.82,0,5.24,5.24,0,0,1,2.48.55A5,5,0,0,1,42.31,45a7,7,0,0,1,1,2.23A10.84,10.84,0,0,1,43.66,50v8.24a1.07,1.07,0,0,1-.21.72.84.84,0,0,1-.66.25h-2.9a1.17,1.17,0,0,1-.75-.19,1,1,0,0,1-.2-.71V50a2.6,2.6,0,0,0-.2-1,2.73,2.73,0,0,0-.56-.81,2.59,2.59,0,0,0-.83-.54,2.54,2.54,0,0,0-1-.19,2.23,2.23,0,0,0-.88.18,2.37,2.37,0,0,0-.78.52,2.74,2.74,0,0,0-.58.79,2.54,2.54,0,0,0-.27,1v8.3a1.26,1.26,0,0,1-.08.43.76.76,0,0,1-.25.33,1.19,1.19,0,0,1-.31.14,1.49,1.49,0,0,1-.33,0H30a1,1,0,0,1-.78-.27,1,1,0,0,1-.24-.7V47.36a7.28,7.28,0,0,1-1.26-.3h-2V58.24a1,1,0,0,1-.95.95H22.31a1,1,0,0,1-.95-.95V47.06h-2.2a.65.65,0,0,1-.65-.65v-2.8a.65.65,0,0,1,.65-.64h2.19v-3.5a.94.94,0,0,1,.95-.91h1.3a7.66,7.66,0,0,1-1.92-5.09A7.75,7.75,0,0,1,33.8,27.09l.16.09v-.75a.79.79,0,0,1,.78-.79h2.37a.8.8,0,0,1,.79.79v8.79L38,35a.8.8,0,0,1-.06-.3V20.61c0-.1-.2-.12-.2-.12H32.85a.87.87,0,0,1-.9-.81V17a.86.86,0,0,1,.9-.81H48a.86.86,0,0,1,.9.81v2.68a.87.87,0,0,1-.9.81h-5.1s-.29,0-.27.12V26.5A7.69,7.69,0,0,1,56.62,26a1.2,1.2,0,0,1,.64.65L60,34.14a9.82,9.82,0,0,0,.36.92c0,.09.2-.19.36-.61l2.85-8a1.23,1.23,0,0,1,1.09-.77h2.7a.54.54,0,0,1,.54.77L62.05,42.81h1.08c.45,0,.82.25.82.54v.54H64A7.27,7.27,0,0,1,67.46,43a7.1,7.1,0,0,1,2.65.51A1,1,0,0,1,70.83,45Z"/><path class="cls-7" d="M53.84,47.27a3.19,3.19,0,0,0-.91-.49,3.55,3.55,0,0,0-1.19-.18,2.45,2.45,0,0,0-1,.2,3.65,3.65,0,0,0-.86.52,4.58,4.58,0,0,0-.72.74,4.52,4.52,0,0,0-.52.85h6.42a6.37,6.37,0,0,0-.57-.91A3.73,3.73,0,0,0,53.84,47.27Z"/><path class="cls-8" d="M34,40.58s.4-1.11,0-.82l-.11.07v1A2.85,2.85,0,0,0,34,40.58Z"/><path class="cls-9" d="M29.5,29.72a3.79,3.79,0,1,0,3.8,3.79A3.79,3.79,0,0,0,29.5,29.72ZM30.64,34a1.3,1.3,0,0,1-.45.54,1.22,1.22,0,0,1-.69.2,1.28,1.28,0,0,1-.48-.09,1.19,1.19,0,0,1-.54-.45A1.17,1.17,0,0,1,28.37,33a1.23,1.23,0,0,1,.44-.54,1.17,1.17,0,0,1,.69-.21,1.21,1.21,0,0,1,.48.09,1.27,1.27,0,0,1,.55.45,1.21,1.21,0,0,1,.2.68A1.23,1.23,0,0,1,30.64,34Z"/><path class="cls-10" d="M43.5,34a3.9,3.9,0,0,0-.84.78.86.86,0,0,1-.42.64,3.8,3.8,0,1,0,7.18,1.78A7.67,7.67,0,0,1,43.5,34Z"/><path class="cls-11" d="M25,44.28,26.11,43l0-.05h-.41V40.26a7.79,7.79,0,0,1-2.12-1.7h-1.3a.94.94,0,0,0-.95.91V43H19.16a.65.65,0,0,0-.65.64v2.8a.65.65,0,0,0,.65.65h2.2V58.24a1,1,0,0,0,.95.95h2.47a1,1,0,0,0,.95-.95V47.06h2a7.48,7.48,0,0,1-2.57-1.4A.83.83,0,0,1,25,44.28Z"/><path class="cls-12" d="M60.67,42.81h1.38l5.83-16.39a.54.54,0,0,0-.54-.77h-2.7a1.23,1.23,0,0,0-1.09.77l-2.85,8c-.16.42-.32.7-.36.61a9.82,9.82,0,0,1-.36-.92l-2.72-7.46a1.2,1.2,0,0,0-.64-.65,7.67,7.67,0,0,1-.89,8.31l2.21,6,.3.83A3.93,3.93,0,0,1,58,42l-1,2.75.26.24a8.57,8.57,0,0,1,1.23,1.54c.14.24.27.49.39.74h.74l.21,0V43.63A.82.82,0,0,1,60.67,42.81Z"/><path class="cls-11" d="M33.84,40.85v-1a9.75,9.75,0,0,1-1,.57h0l-.51.23,0,0-.49.18-.11,0-.45.13L31,41l-.39.08-.3,0-.3,0c-.2,0-.41,0-.61,0H29v2.07C31.94,44.28,33.43,41.71,33.84,40.85Z"/><path class="cls-11" d="M30.29,47.47A7.44,7.44,0,0,1,29,47.36V58.19a1,1,0,0,0,.24.7,1,1,0,0,0,.78.27h2.84a1.49,1.49,0,0,0,.33,0,1.19,1.19,0,0,0,.31-.14.76.76,0,0,0,.25-.33,1.26,1.26,0,0,0,.08-.43v-8.3a2.54,2.54,0,0,1,.27-1,2.74,2.74,0,0,1,.58-.79,2.37,2.37,0,0,1,.78-.52,2.23,2.23,0,0,1,.88-.18,2.54,2.54,0,0,1,1,.19,2.59,2.59,0,0,1,.83.54,2.73,2.73,0,0,1,.56.81,2.6,2.6,0,0,1,.2,1v8.31a1,1,0,0,0,.2.71,1.17,1.17,0,0,0,.75.19h2.9a.84.84,0,0,0,.66-.25,1.07,1.07,0,0,0,.21-.72V50a10.84,10.84,0,0,0-.33-2.72,7,7,0,0,0-1-2.23,5,5,0,0,0-1.74-1.5A5.24,5.24,0,0,0,38.09,43a7.22,7.22,0,0,0-.82,0A7.85,7.85,0,0,1,30.29,47.47Z"/><path class="cls-11" d="M57.28,45,57,44.79a8.24,8.24,0,0,0-1.32-1,7.53,7.53,0,0,0-1.59-.7v1.14a.79.79,0,0,1-.79.79H51a.79.79,0,0,1-.79-.79v-.66l0-.36a7.67,7.67,0,0,1-3.54,1.52c-.16.14-.31.29-.46.45A8.16,8.16,0,0,0,45,46.88a8.43,8.43,0,0,0-1,4.09,8,8,0,0,0,.68,3.28,8.24,8.24,0,0,0,1.83,2.62,8.58,8.58,0,0,0,2.7,1.74,8.44,8.44,0,0,0,3.25.63,7.61,7.61,0,0,0,2.93-.57,8.38,8.38,0,0,0,2.49-1.59,1.44,1.44,0,0,0,.33-.32.71.71,0,0,0,.14-.43,1.26,1.26,0,0,0,0-.28.88.88,0,0,0-.18-.29l-1.33-1.51a3.27,3.27,0,0,0-.38-.33.68.68,0,0,0-.34-.11.61.61,0,0,0-.3.08,2.63,2.63,0,0,0-.35.25,2.73,2.73,0,0,1-.6.43,5.19,5.19,0,0,1-.82.37,6.53,6.53,0,0,1-.92.25,5,5,0,0,1-.93.09A4.14,4.14,0,0,1,51,55.14a3.37,3.37,0,0,1-1.07-.46,3.12,3.12,0,0,1-.88-.86,3,3,0,0,1-.51-1.34h9.05a5.18,5.18,0,0,0,1.2-.1.93.93,0,0,0,.59-.34,1.23,1.23,0,0,0,.19-.66c0-.27,0-.63,0-1.07a6.71,6.71,0,0,0-.28-2,7.88,7.88,0,0,0-.41-1c-.12-.25-.25-.5-.39-.74A8.57,8.57,0,0,0,57.28,45Zm-8.59,3.88a4.52,4.52,0,0,1,.52-.85,4.58,4.58,0,0,1,.72-.74,3.65,3.65,0,0,1,.86-.52,2.45,2.45,0,0,1,1-.2,3.55,3.55,0,0,1,1.19.18,3.19,3.19,0,0,1,.91.49,3.73,3.73,0,0,1,.7.73,6.37,6.37,0,0,1,.57.91Z"/><path class="cls-11" d="M45.62,33.34A3.78,3.78,0,0,0,43.5,34a7.67,7.67,0,0,0,5.92,3.2v-.06A3.79,3.79,0,0,0,45.62,33.34Z"/><path class="cls-11" d="M42.66,34.76a3.92,3.92,0,0,0-.42.64A.86.86,0,0,0,42.66,34.76Z"/><path class="cls-11" d="M45.41,29.41a6.84,6.84,0,0,1,.79.05,3.76,3.76,0,0,1,7.19-1.54l.2.55a3.52,3.52,0,0,1,.14,1,.77.77,0,0,1,.38.67v5.72a7.72,7.72,0,0,0,3.34-6.34,7.69,7.69,0,0,0-14.78-3V20.61c0-.14.27-.12.27-.12H48a.87.87,0,0,0,.9-.81V17a.86.86,0,0,0-.9-.81H32.85A.86.86,0,0,0,32,17v2.68a.87.87,0,0,0,.9.81h4.86s.22,0,.2.12V34.68A.8.8,0,0,0,38,35,7.75,7.75,0,0,1,45.41,29.41Z"/><path class="cls-12" d="M50.17,43.61v.66a.79.79,0,0,0,.79.79h2.36a.79.79,0,0,0,.79-.79V30.12a.77.77,0,0,0-.38-.67.82.82,0,0,0-.41-.12H51a.79.79,0,0,0-.79.79V31l-.24-.14a7.62,7.62,0,0,0-3.73-1.41,6.84,6.84,0,0,0-.79-.05A7.75,7.75,0,0,0,38,35l-.07.24V26.43a.8.8,0,0,0-.79-.79H34.74a.79.79,0,0,0-.78.79v.75l-.16-.09A7.73,7.73,0,0,0,23.61,38.56,7.72,7.72,0,0,0,29,41.19h.43l-.43,0V39.77a1,1,0,0,1,.24-.69,1,1,0,0,1,.78-.27h2.84a1.35,1.35,0,0,1,.64.2.76.76,0,0,1,.25.33,1.23,1.23,0,0,1,.08.4v.09l.11-.07c.41-.29,0,.82,0,.82a2.85,2.85,0,0,1-.12.27c-.41.86-1.9,3.43-4.83,2.41a6.24,6.24,0,0,1-1.15-.55,1.06,1.06,0,0,0-1.71.26l0,.05L25,44.28a.83.83,0,0,0,.18,1.38,7.48,7.48,0,0,0,2.57,1.4,7.28,7.28,0,0,0,1.26.3,7.44,7.44,0,0,0,1.28.11,7.85,7.85,0,0,0,7-4.47,7.55,7.55,0,0,0,.63-2.42V39.05a7.74,7.74,0,0,0,7.51,5.81,7.88,7.88,0,0,0,1.2-.09,7.67,7.67,0,0,0,3.54-1.52ZM29.5,37.29a3.79,3.79,0,1,1,3.8-3.78A3.79,3.79,0,0,1,29.5,37.29Zm19.92-.11a3.8,3.8,0,1,1-7.18-1.78A4,4,0,0,1,43.5,34a3.81,3.81,0,0,1,5.92,3.14Z"/><path class="cls-11" d="M70.11,43.53A7.1,7.1,0,0,0,67.46,43a7.27,7.27,0,0,0-3.43.86H64v-.54c0-.29-.37-.54-.82-.54H60.67a.82.82,0,0,0-.82.82V58.37a.82.82,0,0,0,.82.82h2.46a.82.82,0,0,0,.82-.82V50.84a3.82,3.82,0,0,1,3.71-3.74,3,3,0,0,1,1.27.23,1,1,0,0,0,1.16-.3c.22-.59.48-1.42.74-2A1,1,0,0,0,70.11,43.53Z"/><path class="cls-13" d="M30.35,41.14l.3,0L31,41l.19,0,.45-.13.11,0,.49-.18,0,0,.51-.23h0a9.75,9.75,0,0,0,1-.57v-.09a1.23,1.23,0,0,0-.08-.4.76.76,0,0,0-.25-.33,1.35,1.35,0,0,0-.64-.2H30a1,1,0,0,0-.78.27,1,1,0,0,0-.24.69v1.41l.43,0c.2,0,.41,0,.61,0Z"/></svg>