<svg xmlns="http://www.w3.org/2000/svg" width="25" height="25" viewBox="0 0 25 25">
  <path id="路径_460" data-name="路径 460" d="M-86.856,229.747l-11.832-9.3a.667.667,0,0,0-.825,0l-11.832,9.3a.667.667,0,0,0-.255.525v14.36a.672.672,0,0,0,.2.473.672.672,0,0,0,.472.2h8.046a.672.672,0,0,0,.472-.2.672.672,0,0,0,.2-.473v-9.465a1.219,1.219,0,0,1,.359-.867,1.218,1.218,0,0,1,.867-.359h3.786a1.219,1.219,0,0,1,.867.359,1.219,1.219,0,0,1,.359.867v9.465a.674.674,0,0,0,.2.473.673.673,0,0,0,.472.2h8.046a.673.673,0,0,0,.472-.2.674.674,0,0,0,.2-.473v-14.36A.667.667,0,0,0-86.856,229.747Z" transform="translate(111.601 -220.3)" fill="#fff"/>
</svg>
