<svg xmlns="http://www.w3.org/2000/svg" width="28.021" height="25" viewBox="0 0 28.021 25"><path d="M411.787,877.424l-1.777-1.317h0l-11.582-8.586a.651.651,0,0,0-.776,0l-13.359,9.9a.652.652,0,0,0,.776,1.047L387,877.037v14.7a.652.652,0,0,0,.652.652h20.77a.652.652,0,0,0,.652-.652v-14.7l.157.116,1.777,1.318a.652.652,0,0,0,.776-1.047Zm-16.45,3.6h5.406v10.064h-5.406Zm12.436-4.921h0v14.985h-5.727V880.373a.652.652,0,0,0-.652-.652h-6.709a.652.652,0,0,0-.652.652v10.716h-5.727V876.1c0-.01,0-.02,0-.031l9.737-7.218,9.737,7.218C407.776,876.083,407.774,876.093,407.774,876.1Z" transform="translate(-384.03 -867.392)" fill="#fff"/></svg>