<svg xmlns="http://www.w3.org/2000/svg" width="25" height="25" viewBox="0 0 25 25">
  <path id="路径_522" data-name="路径 522" d="M413.2,155.425l-11.832-9.3a.668.668,0,0,0-.826,0l-11.832,9.3a.667.667,0,0,0-.255.525v14.36a.668.668,0,0,0,.668.668h8.046a.668.668,0,0,0,.668-.668v-9.466a1.225,1.225,0,0,1,1.225-1.225h3.786a1.226,1.226,0,0,1,1.225,1.225v9.466a.668.668,0,0,0,.668.668h8.046a.668.668,0,0,0,.668-.668V155.95A.668.668,0,0,0,413.2,155.425Zm-1.081,14.217h-6.71v-8.8a2.561,2.561,0,0,0-2.561-2.561h-3.786a2.561,2.561,0,0,0-2.561,2.561v8.8h-6.71V156.275l11.164-8.78,11.164,8.78Z" transform="translate(-388.455 -145.978)" fill="#fff"/>
</svg>
