<svg id="圖層_1" data-name="圖層 1" xmlns="http://www.w3.org/2000/svg" xmlns:xlink="http://www.w3.org/1999/xlink" viewBox="0 0 67.72 56.69"><defs><style>.cls-1{fill:url(#未命名漸層_10);}.cls-2{fill:url(#未命名漸層_10-2);}.cls-3{fill:url(#未命名漸層_10-3);}.cls-4{fill:url(#未命名漸層_10-4);}.cls-5{fill:url(#未命名漸層_10-5);}.cls-6{fill:url(#未命名漸層_10-6);}.cls-7{fill:url(#未命名漸層_10-7);}.cls-8{fill:url(#未命名漸層_10-8);}.cls-9{fill:#040000;}.cls-10{fill:#fff;}.cls-11{fill:#787878;}</style><linearGradient id="未命名漸層_10" x1="-1459.4" y1="-147.65" x2="-1459.11" y2="-147.65" gradientTransform="matrix(195.97, 113.14, -113.14, 195.97, 269305.84, 194058.7)" gradientUnits="userSpaceOnUse"><stop offset="0" stop-color="#e50012"/><stop offset="0.06" stop-color="#e50012"/><stop offset="0.18" stop-color="#f19500"/><stop offset="0.33" stop-color="#fff000"/><stop offset="0.52" stop-color="#009844"/><stop offset="0.67" stop-color="#009fe8"/><stop offset="0.81" stop-color="#0068b6"/><stop offset="0.95" stop-color="#8f0882"/><stop offset="1" stop-color="#8f0882"/></linearGradient><linearGradient id="未命名漸層_10-2" x1="-1459.4" y1="-147.74" x2="-1459.11" y2="-147.74" gradientTransform="matrix(195.97, 113.14, -113.14, 195.97, 269292.57, 194081.68)" xlink:href="#未命名漸層_10"/><linearGradient id="未命名漸層_10-3" x1="-1459.4" y1="-147.95" x2="-1459.11" y2="-147.95" gradientTransform="matrix(195.97, 113.14, -113.14, 195.97, 269258.48, 194140.73)" xlink:href="#未命名漸層_10"/><linearGradient id="未命名漸層_10-4" x1="-1459.4" y1="-147.84" x2="-1459.11" y2="-147.84" gradientTransform="matrix(195.97, 113.14, -113.14, 195.97, 269275.69, 194110.93)" xlink:href="#未命名漸層_10"/><linearGradient id="未命名漸層_10-5" x1="-1459.4" y1="-147.86" x2="-1459.11" y2="-147.86" gradientTransform="matrix(195.97, 113.14, -113.14, 195.97, 269272.29, 194116.81)" xlink:href="#未命名漸層_10"/><linearGradient id="未命名漸層_10-6" x1="-1459.4" y1="-147.89" x2="-1459.11" y2="-147.89" gradientTransform="matrix(195.97, 113.14, -113.14, 195.97, 269268.39, 194123.57)" xlink:href="#未命名漸層_10"/><linearGradient id="未命名漸層_10-7" x1="-1459.4" y1="-147.84" x2="-1459.11" y2="-147.84" gradientTransform="matrix(195.97, 113.14, -113.14, 195.97, 269275.84, 194110.67)" xlink:href="#未命名漸層_10"/><linearGradient id="未命名漸層_10-8" x1="-1459.4" y1="-147.79" x2="-1459.11" y2="-147.79" gradientTransform="matrix(195.97, 113.14, -113.14, 195.97, 269283.93, 194096.65)" xlink:href="#未命名漸層_10"/></defs><path class="cls-1" d="M44.05,16.82a4.43,4.43,0,0,0-8.46,1.81A9,9,0,0,1,40,20.29l.27.17V19.41a.93.93,0,0,1,.93-.93H44a.87.87,0,0,1,.48.14,4.32,4.32,0,0,0-.16-1.15Z"/><path class="cls-2" d="M44.9,26.14v8.57a9,9,0,0,1,1.87.83,9.45,9.45,0,0,1,1.55,1.13l1.15-3.24a4.75,4.75,0,0,0,.29-1s-.18-.48-.36-1l-2.59-7.12A9.18,9.18,0,0,1,44.9,26.14Z"/><path class="cls-3" d="M11.51,34.3v.23H12a1.26,1.26,0,0,1,2-.31,6.88,6.88,0,0,0,1.35.65V32.43a9,9,0,0,1-3.86-1.09Z"/><path class="cls-4" d="M67.55,35.13a4,4,0,0,0-.89-1.57,4.51,4.51,0,0,0-.78-.67,5.16,5.16,0,0,0-.92-.48l-.29-.1a11.52,11.52,0,0,0-4.07-.74,11.05,11.05,0,0,0-2.24.22L64,16.07h0a3.85,3.85,0,0,0,.22-1.3,3.61,3.61,0,0,0-.29-1.42,3.18,3.18,0,0,0-.61-1,3.57,3.57,0,0,0-1.35-1,3.86,3.86,0,0,0-1.45-.29H57.29a4.25,4.25,0,0,0-1.39.24,4.76,4.76,0,0,0-1.61,1,4.55,4.55,0,0,0-.63.74,3.85,3.85,0,0,0-.5,1l-.9,2.54-.82-2.25h0a4.31,4.31,0,0,0-1-1.54l-.3-.28a12,12,0,0,0-4-4.06,11.89,11.89,0,0,0-4.35-1.66V4a3.68,3.68,0,0,0-.37-1.66A4,4,0,0,0,39.92.61,4.17,4.17,0,0,0,37.76,0H19.89A4.11,4.11,0,0,0,18.4.28a4,4,0,0,0-1.8,1.35A3.79,3.79,0,0,0,16,2.7,3.91,3.91,0,0,0,15.81,4V7.12a3.94,3.94,0,0,0,1.91,3.37,4.17,4.17,0,0,0,2.17.61h2.92v0h-.7a4,4,0,0,0-1.53.31,4.17,4.17,0,0,0-.8.46A12.11,12.11,0,0,0,4.5,27.59a3.94,3.94,0,0,0-.41.49,4.07,4.07,0,0,0-.74,2.34v1.11A3.79,3.79,0,0,0,0,35.29v3.29a3.87,3.87,0,0,0,.3,1.48,3.73,3.73,0,0,0,1.36,1.65,3.79,3.79,0,0,0,1.69.62V52.49a4.19,4.19,0,0,0,.33,1.62,4.25,4.25,0,0,0,1.49,1.81,4.21,4.21,0,0,0,2.32.71h2.9a4.14,4.14,0,0,0,3-1.33,3.64,3.64,0,0,0,.78.65,4,4,0,0,0,1.26.52,5,5,0,0,0,1.11.12h3.34a4.45,4.45,0,0,0,1.15-.14h0a4.29,4.29,0,0,0,1.18-.52l.07,0,.07,0a4,4,0,0,0,.86-.83,3.88,3.88,0,0,0,.52-.95h0a4.28,4.28,0,0,0,.28-1.16,4.66,4.66,0,0,0,.16,1,4,4,0,0,0,.34.84,3.56,3.56,0,0,0,.71.89,3.29,3.29,0,0,0,.87.58,4.29,4.29,0,0,0,1.12.35,6,6,0,0,0,.91.07h3.42a4.36,4.36,0,0,0,1.51-.26,3.86,3.86,0,0,0,.83-.43,3.35,3.35,0,0,0,.74-.67h0a3.73,3.73,0,0,0,.49-.73,2,2,0,0,0,.1-.21,13.06,13.06,0,0,0,7.6,2.4,12,12,0,0,0,4.6-.9h0a11.53,11.53,0,0,0,1.85-.95,4,4,0,0,0,3.32,1.79h2.89a3.87,3.87,0,0,0,1.55-.32,4,4,0,0,0,1.75-1.43,4.07,4.07,0,0,0,.68-2.23V43.93A1.74,1.74,0,0,1,60,42.8a1.22,1.22,0,0,1,.42-.29,1,1,0,0,1,.45-.1,1.7,1.7,0,0,1,.3,0h0a4,4,0,0,0,3.09.08,4.38,4.38,0,0,0,1.29-.78,4.09,4.09,0,0,0,.54-.56l.28-.36.16-.42c.17-.44.32-.87.46-1.29s.28-.79.38-1h0a4.62,4.62,0,0,0,.37-1.77A4.12,4.12,0,0,0,67.55,35.13ZM13.41,55.29h0Zm20.35-2.23ZM64.56,36.9c-.3.73-.6,1.71-.87,2.41a1.17,1.17,0,0,1-1.36.35,3.53,3.53,0,0,0-1.49-.27,4.48,4.48,0,0,0-4.36,4.4v8.86a1,1,0,0,1-1,1H52.62a1,1,0,0,1-1-1v-13a1,1,0,0,1-.25,0h-.86A10.22,10.22,0,0,1,51,40.87a8,8,0,0,1,.33,2.3c0,.51,0,.93,0,1.26a1.35,1.35,0,0,1-.23.77,1,1,0,0,1-.68.4,6.49,6.49,0,0,1-1.42.11H38.34a3.77,3.77,0,0,0,.6,1.59,3.83,3.83,0,0,0,1,1,4.36,4.36,0,0,0,1.26.54,5.22,5.22,0,0,0,2.35,0,7.58,7.58,0,0,0,1.09-.29,7.11,7.11,0,0,0,1-.43,3.53,3.53,0,0,0,.7-.51,2.93,2.93,0,0,1,.41-.29.68.68,0,0,1,.36-.1.82.82,0,0,1,.4.13,3.42,3.42,0,0,1,.45.39l1.56,1.77a1,1,0,0,1,.21.35,1.19,1.19,0,0,1,.05.32.8.8,0,0,1-.17.51,2,2,0,0,1-.38.38A10,10,0,0,1,46.3,53a8.88,8.88,0,0,1-3.45.67A9.86,9.86,0,0,1,39,52.93,9.87,9.87,0,0,1,33.7,47.8a9.17,9.17,0,0,1-.8-3.86,10,10,0,0,1,.31-2.52,10.23,10.23,0,0,1,.91-2.29,9.69,9.69,0,0,1,1.42-2c.17-.18.35-.36.53-.52a9.36,9.36,0,0,1-1.41.11,9.11,9.11,0,0,1-8.83-6.84v1.8a9,9,0,0,1-.74,2.85,6,6,0,0,1,1-.07,6.23,6.23,0,0,1,2.92.65,5.8,5.8,0,0,1,2,1.77,7.78,7.78,0,0,1,1.2,2.62,12.7,12.7,0,0,1,.39,3.2v9.69a1.29,1.29,0,0,1-.24.85,1,1,0,0,1-.78.29H28.16a1.35,1.35,0,0,1-.87-.21,1.14,1.14,0,0,1-.24-.84V42.74a2.9,2.9,0,0,0-.24-1.18,2.94,2.94,0,0,0-.66-1A3.09,3.09,0,0,0,24,39.74,2.73,2.73,0,0,0,23,40a2.91,2.91,0,0,0-.91.61,3.29,3.29,0,0,0-.68.94,3,3,0,0,0-.32,1.21v9.77a1.31,1.31,0,0,1-.1.5.75.75,0,0,1-.29.38,1.29,1.29,0,0,1-.36.17,2.13,2.13,0,0,1-.39,0H16.57a1,1,0,0,1-1.2-1.14V39.7a9.86,9.86,0,0,1-1.49-.36H11.52s0,.5,0,.54V52.49a1.12,1.12,0,0,1-1.12,1.12H7.49a1.12,1.12,0,0,1-1.12-1.12V39.34H3.78A.76.76,0,0,1,3,38.58V35.29a.76.76,0,0,1,.76-.76H6.36V30.42a1.1,1.1,0,0,1,1.12-1.08H9a9.08,9.08,0,0,1,6.86-15.07A9.15,9.15,0,0,1,21,15.84l.18.12v-.89a.93.93,0,0,1,.92-.93H24.9a.93.93,0,0,1,.93.93V25.41c0-.09.05-.19.08-.29a.81.81,0,0,1-.07-.35V8.22c0-.12-.23-.14-.23-.14H19.89a1,1,0,0,1-1.06-1V4a1,1,0,0,1,1.06-1H37.76a1,1,0,0,1,1.05,1V7.12a1,1,0,0,1-1.05,1h-6s-.33,0-.32.14v6.93a9.06,9.06,0,0,1,16.42-.55,1.41,1.41,0,0,1,.75.77l3.2,8.77c.18.49.37,1,.43,1.08s.24-.22.42-.72L56,15.05a1.44,1.44,0,0,1,1.28-.9h3.17a.64.64,0,0,1,.64.91L54.24,34.35h1.27c.53,0,1,.28,1,.63v.64l.1,0a8.62,8.62,0,0,1,4-1,8.53,8.53,0,0,1,3.12.59A1.19,1.19,0,0,1,64.56,36.9Z"/><path class="cls-5" d="M46.08,41.51a9.14,9.14,0,0,0-.67-1.06,4.84,4.84,0,0,0-.83-.86A3.56,3.56,0,0,0,43.51,39a4.21,4.21,0,0,0-1.4-.21A2.87,2.87,0,0,0,41,39a4.49,4.49,0,0,0-1,.62,5.39,5.39,0,0,0-.85.87,5.89,5.89,0,0,0-.61,1Z"/><path class="cls-6" d="M21.05,32l.14-.32s.47-1.31,0-1l-.13.08Z"/><path class="cls-7" d="M16,18.94a4.46,4.46,0,1,0,4.47,4.45A4.46,4.46,0,0,0,16,18.94Zm1.34,5a1.48,1.48,0,0,1-.53.63,1.39,1.39,0,0,1-.81.25,1.52,1.52,0,0,1-.57-.11,1.56,1.56,0,0,1-.64-.53,1.44,1.44,0,0,1-.13-1.35,1.48,1.48,0,0,1,.53-.63A1.39,1.39,0,0,1,16,22a1.42,1.42,0,0,1,1.2.64,1.35,1.35,0,0,1,.25.79A1.43,1.43,0,0,1,17.29,24Z"/><path class="cls-8" d="M31.42,24.87a1,1,0,0,1-.48.75,4.36,4.36,0,0,0-.5,2,4.47,4.47,0,0,0,8.94.07,9,9,0,0,1-7-3.77A4.86,4.86,0,0,0,31.42,24.87Z"/><path class="cls-9" d="M10.65,36.07,12,34.59l.05-.06h-.48V31.34a9.34,9.34,0,0,1-2.5-2H7.49a1.1,1.1,0,0,0-1.12,1.08v4.11H3.78a.76.76,0,0,0-.76.76v3.29a.76.76,0,0,0,.76.76H6.37V52.49a1.12,1.12,0,0,0,1.12,1.12h2.9a1.12,1.12,0,0,0,1.12-1.12V39.88s0-.54,0-.54h2.36a8.71,8.71,0,0,1-3-1.65A1,1,0,0,1,10.65,36.07Z"/><path class="cls-10" d="M44.29,17.47a3.61,3.61,0,0,0-.24-.65Z"/><path class="cls-10" d="M51.65,35.31a1,1,0,0,1,1-1h1.62L61.1,15.06a.64.64,0,0,0-.64-.91H57.29a1.44,1.44,0,0,0-1.28.9L52.65,24.5c-.18.5-.37.83-.42.72s-.25-.59-.43-1.08l-3.2-8.77a1.41,1.41,0,0,0-.75-.77,9.06,9.06,0,0,1-1,9.77l2.59,7.12c.18.49.34.93.36,1a4.75,4.75,0,0,1-.29,1l-1.15,3.24.3.29a8.94,8.94,0,0,1,1.45,1.81c.17.28.33.57.47.86h.86a1,1,0,0,0,.25,0Z"/><path class="cls-9" d="M15.37,34.87c3.45,1.2,5.2-1.82,5.68-2.83V30.83a8.44,8.44,0,0,1-1.17.67h0l-.61.27-.05,0-.59.21-.12,0a5.26,5.26,0,0,1-.53.15l-.22.05-.46.09-.36,0-.35.05c-.23,0-.48,0-.72,0l-.5,0Z"/><path class="cls-9" d="M16.88,39.82a10.16,10.16,0,0,1-1.51-.12V52.43a1,1,0,0,0,1.2,1.14h3.34a2.13,2.13,0,0,0,.39,0,1.29,1.29,0,0,0,.36-.17A.75.75,0,0,0,21,53a1.31,1.31,0,0,0,.1-.5V42.71a3,3,0,0,1,.32-1.21,3.29,3.29,0,0,1,.68-.94A2.91,2.91,0,0,1,23,40,2.73,2.73,0,0,1,24,39.74a3.09,3.09,0,0,1,2.14.86,2.94,2.94,0,0,1,.66,1,2.9,2.9,0,0,1,.24,1.18v9.78a1.14,1.14,0,0,0,.24.84,1.35,1.35,0,0,0,.87.21h3.42a1,1,0,0,0,.78-.29,1.29,1.29,0,0,0,.24-.85V42.74a12.7,12.7,0,0,0-.39-3.2A7.78,7.78,0,0,0,31,36.92a5.8,5.8,0,0,0-2-1.77,6.23,6.23,0,0,0-2.92-.65,6,6,0,0,0-1,.07A9.23,9.23,0,0,1,16.88,39.82Z"/><path class="cls-9" d="M50.07,38.77A8.94,8.94,0,0,0,48.62,37l-.3-.29a9.45,9.45,0,0,0-1.55-1.13,9,9,0,0,0-1.87-.83v1.35A.93.93,0,0,1,44,37H41.19a.93.93,0,0,1-.93-.93v-.78l0-.42a9,9,0,0,1-4.17,1.79c-.18.16-.36.34-.53.52a9.69,9.69,0,0,0-1.42,2,10.23,10.23,0,0,0-.91,2.29,10,10,0,0,0-.31,2.52,9.17,9.17,0,0,0,.8,3.86A9.87,9.87,0,0,0,39,52.93a9.86,9.86,0,0,0,3.83.74A8.88,8.88,0,0,0,46.3,53a10,10,0,0,0,2.93-1.87,2,2,0,0,0,.38-.38.8.8,0,0,0,.17-.51,1.19,1.19,0,0,0-.05-.32,1,1,0,0,0-.21-.35L48,47.8a3.42,3.42,0,0,0-.45-.39.82.82,0,0,0-.4-.13.68.68,0,0,0-.36.1,2.93,2.93,0,0,0-.41.29,3.53,3.53,0,0,1-.7.51,7.11,7.11,0,0,1-1,.43,7.58,7.58,0,0,1-1.09.29,5.22,5.22,0,0,1-2.35,0A4.36,4.36,0,0,1,40,48.31a3.83,3.83,0,0,1-1-1,3.77,3.77,0,0,1-.6-1.59H49a6.49,6.49,0,0,0,1.42-.11,1,1,0,0,0,.68-.4,1.35,1.35,0,0,0,.23-.77c0-.33,0-.75,0-1.26a8,8,0,0,0-.33-2.3,10.22,10.22,0,0,0-.47-1.24C50.4,39.34,50.24,39.05,50.07,38.77ZM40,39.65A4.49,4.49,0,0,1,41,39a2.87,2.87,0,0,1,1.11-.23,4.21,4.21,0,0,1,1.4.21,3.56,3.56,0,0,1,1.07.58,4.84,4.84,0,0,1,.83.86,9.14,9.14,0,0,1,.67,1.06H38.52a5.89,5.89,0,0,1,.61-1A5.39,5.39,0,0,1,40,39.65Z"/><path class="cls-10" d="M16.94,32.37l-.35.05Z"/><path class="cls-10" d="M19.88,31.51l-.61.27Z"/><path class="cls-10" d="M17.76,32.24l-.46.09Z"/><path class="cls-10" d="M18,32.19a5.26,5.26,0,0,0,.53-.15A5.26,5.26,0,0,1,18,32.19Z"/><path class="cls-10" d="M18.63,32l.59-.21Z"/><path class="cls-9" d="M39.38,27.72v-.07a4.48,4.48,0,0,0-7-3.7A9,9,0,0,0,39.38,27.72Z"/><path class="cls-9" d="M31.42,24.87a4.55,4.55,0,0,0-.48.75A1,1,0,0,0,31.42,24.87Z"/><path class="cls-9" d="M34.66,18.58c.31,0,.62,0,.93.05a4.43,4.43,0,0,1,8.46-1.81,3.61,3.61,0,0,1,.24.65,4.32,4.32,0,0,1,.16,1.15.91.91,0,0,1,.45.79v6.73a9.18,9.18,0,0,0,1.91-1.77,9.05,9.05,0,1,0-15.38-9.22V8.22c0-.16.32-.14.32-.14h6a1,1,0,0,0,1.05-1V4a1,1,0,0,0-1.05-1H19.89a1,1,0,0,0-1.06,1V7.12a1,1,0,0,0,1.06,1h5.72s.25,0,.23.14V24.77a.81.81,0,0,0,.07.35A9.1,9.1,0,0,1,34.66,18.58Z"/><path class="cls-10" d="M40.24,34.86l0,.42v.78a.93.93,0,0,0,.93.93H44a.93.93,0,0,0,.93-.93V19.41a.91.91,0,0,0-.45-.79.87.87,0,0,0-.48-.14H41.19a.93.93,0,0,0-.93.93v1.05L40,20.29a9,9,0,0,0-4.4-1.66c-.31,0-.62-.05-.93-.05a9.1,9.1,0,0,0-8.75,6.54c0,.1-.06.2-.08.29V15.07a.93.93,0,0,0-.93-.93H22.11a.93.93,0,0,0-.92.93V16L21,15.84A9.14,9.14,0,0,0,6.75,23.36a9.06,9.06,0,0,0,2.26,6,9.34,9.34,0,0,0,2.5,2,9,9,0,0,0,3.86,1.09l.5,0c-.17,0-.34,0-.5,0V30.76a1.16,1.16,0,0,1,.28-.81,1.18,1.18,0,0,1,.92-.31h3.34a1.57,1.57,0,0,1,.75.23.78.78,0,0,1,.29.39,1.21,1.21,0,0,1,.1.47v.1a8.44,8.44,0,0,1-1.17.67,8.44,8.44,0,0,0,1.17-.67l.13-.08c.48-.34,0,1,0,1l-.14.32c-.48,1-2.23,4-5.68,2.83A6.88,6.88,0,0,1,14,34.22a1.26,1.26,0,0,0-2,.31l-.05.06-1.3,1.48a1,1,0,0,0,.22,1.62,8.71,8.71,0,0,0,3,1.65,9.86,9.86,0,0,0,1.49.36,10.16,10.16,0,0,0,1.51.12,9.23,9.23,0,0,0,8.21-5.25,9,9,0,0,0,.74-2.85v-1.8a9.11,9.11,0,0,0,8.83,6.84,9.36,9.36,0,0,0,1.41-.11A9,9,0,0,0,40.24,34.86ZM32.42,24a4.48,4.48,0,0,1,7,3.7v.07a4.47,4.47,0,0,1-8.94-.07,4.36,4.36,0,0,1,.5-2,4.55,4.55,0,0,1,.48-.75A4.86,4.86,0,0,1,32.42,24ZM16,27.85a4.46,4.46,0,1,1,4.47-4.46A4.47,4.47,0,0,1,16,27.85Z"/><path class="cls-9" d="M63.72,35.18a8.53,8.53,0,0,0-3.12-.59,8.62,8.62,0,0,0-4,1l-.1,0V35c0-.35-.43-.63-1-.63H52.62a1,1,0,0,0-1,1V52.65a1,1,0,0,0,1,1h2.89a1,1,0,0,0,1-1V43.79a4.48,4.48,0,0,1,4.36-4.4,3.53,3.53,0,0,1,1.49.27,1.17,1.17,0,0,0,1.36-.35c.27-.7.57-1.68.87-2.41A1.19,1.19,0,0,0,63.72,35.18Z"/><path class="cls-11" d="M16.59,32.42l.35-.05.36,0,.46-.09.22-.05a5.26,5.26,0,0,0,.53-.15l.12,0,.59-.21.05,0,.61-.27h0a8.44,8.44,0,0,0,1.17-.67v-.1a1.21,1.21,0,0,0-.1-.47.78.78,0,0,0-.29-.39,1.57,1.57,0,0,0-.75-.23H16.57a1.18,1.18,0,0,0-.92.31,1.16,1.16,0,0,0-.28.81v1.66c.16,0,.33,0,.5,0S16.36,32.44,16.59,32.42Z"/></svg>