<svg xmlns="http://www.w3.org/2000/svg" width="50.001" height="50" viewBox="0 0 50.001 50">
  <g id="组_367" data-name="组 367" transform="translate(-332.108 -307.652)">
    <path id="路径_37" data-name="路径 37" d="M369.629,307.652H344.587a12.511,12.511,0,0,0-12.479,12.479v25.042a12.511,12.511,0,0,0,12.479,12.479h25.042a12.511,12.511,0,0,0,12.48-12.479V320.131A12.511,12.511,0,0,0,369.629,307.652Zm9.753,37.521a9.785,9.785,0,0,1-9.753,9.753H344.587a9.785,9.785,0,0,1-9.752-9.753V320.131a9.785,9.785,0,0,1,9.752-9.753h25.042a9.785,9.785,0,0,1,9.753,9.753Z" transform="translate(0 0)"/>
    <path id="路径_38" data-name="路径 38" d="M362.3,324.022a13.893,13.893,0,1,0,13.894,13.893A13.893,13.893,0,0,0,362.3,324.022Zm7.9,21.789a11.166,11.166,0,1,1,3.271-7.9A11.128,11.128,0,0,1,370.194,345.811Z" transform="translate(-5.189 -5.213)"/>
    <path id="路径_39" data-name="路径 39" d="M388.6,316.554a4.107,4.107,0,1,0,4.107,4.107A4.107,4.107,0,0,0,388.6,316.554Zm.976,5.084a1.382,1.382,0,1,1,.4-.977A1.371,1.371,0,0,1,389.571,321.638Z" transform="translate(-16.679 -2.835)"/>
  </g>
</svg>
