<svg xmlns="http://www.w3.org/2000/svg" width="25" height="25" viewBox="0 0 25 25"><g transform="translate(-307 -12)"><rect width="25" height="25" rx="3" transform="translate(307 12)" fill="#fff"/><path d="M299.417,432.083h3.214a.569.569,0,0,0,.567-.567v-1.865a.568.568,0,0,0-.567-.566h-9.566a.568.568,0,0,0-.567.566v1.865a.569.569,0,0,0,.567.567h3.061s.136.012.122.081v11.308a.615.615,0,0,0,.613.613h1.772a.615.615,0,0,0,.613-.613V432.164c-.01-.092.17-.081.17-.081" transform="translate(21.652 -411.584)" fill="#1d1d1d"/></g></svg>