<svg xmlns="http://www.w3.org/2000/svg" width="24.992" height="25" viewBox="0 0 24.992 25"><path d="M318.843,164.75a12.531,12.531,0,0,0-5.208-3.983,7.252,7.252,0,1,0-9.445,0,12.5,12.5,0,0,0-7.774,11.57.682.682,0,0,0,.682.682h23.629a.682.682,0,0,0,.682-.682A12.447,12.447,0,0,0,318.843,164.75Zm-15.817-9.479a5.887,5.887,0,1,1,1.724,4.163A5.866,5.866,0,0,1,303.026,155.27Zm-2.959,10.308a11.151,11.151,0,0,1,5.531-3.864,7.21,7.21,0,0,0,6.631,0,11.11,11.11,0,0,1,7.794,9.94H297.8A11.07,11.07,0,0,1,300.067,165.579Z" transform="translate(-296.418 -148.019)" fill="#fff"/></svg>