<svg xmlns="http://www.w3.org/2000/svg" width="49.984" height="50" viewBox="0 0 49.984 50">
  <path id="路径_47" data-name="路径 47" d="M476.419,274.818a25.055,25.055,0,0,0-10.675-8.061,14.431,14.431,0,1,0-18.369,0,24.965,24.965,0,0,0-15.807,23.236v1.2h49.984v-1.2A24.889,24.889,0,0,0,476.419,274.818Zm-31.887-19.192a12.028,12.028,0,1,1,3.523,8.5A11.983,11.983,0,0,1,444.531,255.626Zm-5.922,20.652a22.622,22.622,0,0,1,11.285-7.861,14.372,14.372,0,0,0,13.331,0,22.552,22.552,0,0,1,15.888,20.374H434.006A22.467,22.467,0,0,1,438.609,276.279Z" transform="translate(-431.567 -241.195)" fill="#1a1311"/>
</svg>
