<svg xmlns="http://www.w3.org/2000/svg" width="27.122" height="25" viewBox="0 0 27.122 25">
  <path id="路径_467" data-name="路径 467" d="M371.306,143.506a12.171,12.171,0,0,0-5.056-4.967,15.516,15.516,0,0,0-7.361-1.834,15.085,15.085,0,0,0-9.408,3.193,11.516,11.516,0,0,0-3.016,3.624,9.96,9.96,0,0,0-1.137,4.629,10.179,10.179,0,0,0,2.083,6.131l-1.988,6.353a.824.824,0,0,0,1.113,1l7.12-3.076a21.405,21.405,0,0,0,5.089.639,15.337,15.337,0,0,0,9.82-3.233,10.125,10.125,0,0,0,3.886-7.817A9.962,9.962,0,0,0,371.306,143.506Z" transform="translate(-345.328 -136.704)" fill="#fff"/>
</svg>
