<svg xmlns="http://www.w3.org/2000/svg" width="27.122" height="25" viewBox="0 0 27.122 25"><path d="M584.944,774.078a12.168,12.168,0,0,0-5.056-4.968,15.516,15.516,0,0,0-7.361-1.834,15.085,15.085,0,0,0-9.408,3.193,11.512,11.512,0,0,0-3.015,3.624,9.952,9.952,0,0,0-1.137,4.629,10.173,10.173,0,0,0,2.083,6.131l-1.988,6.353a.824.824,0,0,0,1.112,1l7.121-3.076a21.4,21.4,0,0,0,5.089.639,15.336,15.336,0,0,0,9.82-3.233,10.123,10.123,0,0,0,3.885-7.817A9.951,9.951,0,0,0,584.944,774.078Zm-3.789,11.188a13.7,13.7,0,0,1-8.773,2.858,19.89,19.89,0,0,1-4.957-.655.82.82,0,0,0-.532.041l-5.724,2.472,1.579-5.045a.824.824,0,0,0-.155-.775,8.538,8.538,0,0,1-1.981-5.442,8.31,8.31,0,0,1,.951-3.868,10.53,10.53,0,0,1,4.37-4.288,13.859,13.859,0,0,1,6.592-1.643,13.473,13.473,0,0,1,8.36,2.817,9.869,9.869,0,0,1,2.6,3.1,8.3,8.3,0,0,1,.956,3.881A8.472,8.472,0,0,1,581.155,785.266Z" transform="translate(-558.966 -767.276)" fill="#fff"/></svg>