<svg xmlns="http://www.w3.org/2000/svg" width="22.367" height="25" viewBox="0 0 22.367 25"><path d="M324.034,892.087a1.806,1.806,0,0,0-.369-.437,8.763,8.763,0,0,1-2.22-2.985,8.887,8.887,0,0,1-.733-3.65V885q0-.876,0-1.754,0-.747-.005-1.5a8.5,8.5,0,0,0-.077-1.185,7.658,7.658,0,0,0-5.67-6.341v-1.012a1.874,1.874,0,0,0-1.874-1.874h0a1.874,1.874,0,0,0-1.874,1.874v.976c-.057.014-.115.024-.172.039a7.694,7.694,0,0,0-5.713,7.266c0,.279,0,.556,0,.833,0,.586.005,1.168.005,1.746,0,.457,0,.912-.015,1.364a8.2,8.2,0,0,1-1.823,5.029c-.333.419-.775.823-1.229,1.285a1.629,1.629,0,0,0-.287.388,1.238,1.238,0,0,0-.14.568,1.3,1.3,0,0,0,.085.456,1.276,1.276,0,0,0,.511.638,1.429,1.429,0,0,0,.689.208h0c.059,0,.111,0,.158,0h6.353a3.06,3.06,0,0,0,.254.541,3.7,3.7,0,0,0,1.31,1.28,3.608,3.608,0,0,0,1.809.507h.036a3.767,3.767,0,0,0,2.325-.877,3.526,3.526,0,0,0,.8-.926,2.959,2.959,0,0,0,.246-.538h.1q3.12.005,6.24.015h.015a1.626,1.626,0,0,0,.706-.143,1.229,1.229,0,0,0,.374-.274,1.335,1.335,0,0,0,.255-.407,1.289,1.289,0,0,0,.1-.485A1.219,1.219,0,0,0,324.034,892.087Zm-11.392-18.874a.447.447,0,0,1,.894,0V874c-.169-.011-.338-.023-.51-.023-.127,0-.256.006-.384.012Zm-8.033,18.141a9.638,9.638,0,0,0,2.133-5.882c.012-.469.015-.936.015-1.4,0-.586-.005-1.168-.005-1.746,0-.273,0-.544,0-.815a6.266,6.266,0,0,1,4.643-5.9,6.5,6.5,0,0,1,1.627-.209,6.248,6.248,0,0,1,6.2,5.374,7.176,7.176,0,0,1,.061.987q.006.741.005,1.485,0,.875,0,1.752v.015a10.317,10.317,0,0,0,.855,4.229,10.146,10.146,0,0,0,2.435,3.341q-3.029-.01-6.058-.015h-4.2v.014h-8.866A14.687,14.687,0,0,0,304.609,891.354Zm9.528,3.233a2.269,2.269,0,0,1-1.109.324h-.021a2.277,2.277,0,0,1-1.408-.536,2.2,2.2,0,0,1-.34-.357h3.534A2.347,2.347,0,0,1,314.138,894.587Z" transform="translate(-301.838 -871.339)" fill="#fff"/></svg>