<svg xmlns="http://www.w3.org/2000/svg" width="22.367" height="25" viewBox="0 0 22.367 25">
  <path id="路径_468" data-name="路径 468" d="M411.124,347.73a1.817,1.817,0,0,0-.369-.438,8.77,8.77,0,0,1-2.22-2.985,8.887,8.887,0,0,1-.732-3.65v-.013q0-.875,0-1.754,0-.747-.005-1.5a8.545,8.545,0,0,0-.077-1.185,7.658,7.658,0,0,0-5.67-6.341v-1.012a1.874,1.874,0,0,0-1.874-1.874h0a1.874,1.874,0,0,0-1.874,1.874v.976c-.057.014-.115.024-.172.039a7.694,7.694,0,0,0-5.714,7.265q-.005.418,0,.834c0,.586.005,1.168.005,1.746,0,.457,0,.912-.015,1.364a8.2,8.2,0,0,1-1.823,5.029c-.332.419-.775.823-1.228,1.284a1.613,1.613,0,0,0-.287.388,1.242,1.242,0,0,0-.141.568,1.3,1.3,0,0,0,.085.456,1.275,1.275,0,0,0,.51.638,1.432,1.432,0,0,0,.689.209h0c.058,0,.111,0,.157,0h6.353a3.111,3.111,0,0,0,.254.541,3.7,3.7,0,0,0,1.309,1.28,3.606,3.606,0,0,0,1.809.507h.036a3.767,3.767,0,0,0,2.325-.877,3.534,3.534,0,0,0,.8-.926,2.932,2.932,0,0,0,.247-.538h.1q3.12.005,6.24.015h.015a1.629,1.629,0,0,0,.705-.143,1.231,1.231,0,0,0,.374-.274,1.326,1.326,0,0,0,.255-.407,1.291,1.291,0,0,0,.1-.485A1.226,1.226,0,0,0,411.124,347.73Z" transform="translate(-388.927 -326.982)" fill="#fff"/>
</svg>
