<svg xmlns="http://www.w3.org/2000/svg" width="25" height="25" viewBox="0 0 25 25"><g transform="translate(-1356 -8)"><path d="M12.5,0A12.5,12.5,0,1,1,0,12.5,12.5,12.5,0,0,1,12.5,0Z" transform="translate(1356 8)" fill="#f5f5f5"/><g transform="translate(1362.5 14.5)"><path d="M12,1H0A1,1,0,0,1-1,0,1,1,0,0,1,0-1H12a1,1,0,0,1,1,1A1,1,0,0,1,12,1Z" transform="translate(0 5.829)" fill="#242424"/><path d="M0,13a1,1,0,0,1-1-1V0A1,1,0,0,1,0-1,1,1,0,0,1,1,0V12A1,1,0,0,1,0,13Z" transform="translate(6.171)" fill="#242424"/></g></g></svg>