<svg xmlns="http://www.w3.org/2000/svg" width="25" height="25" viewBox="0 0 25 25">
  <g id="组_1634" data-name="组 1634" transform="translate(-433.456 -326.722)">
    <path id="路径_523" data-name="路径 523" d="M445.956,326.722a12.5,12.5,0,1,0,12.5,12.5A12.5,12.5,0,0,0,445.956,326.722Zm7.894,20.394a11.164,11.164,0,1,1,3.27-7.894A11.127,11.127,0,0,1,453.85,347.116Z" fill="#fff"/>
    <path id="路径_524" data-name="路径 524" d="M463.437,349.883h-5.484V344.4a.668.668,0,1,0-1.336,0v5.485h-5.485a.668.668,0,0,0,0,1.336h5.485V356.7a.668.668,0,1,0,1.336,0v-5.484h5.484a.668.668,0,1,0,0-1.336Z" transform="translate(-11.329 -11.329)" fill="#fff"/>
  </g>
</svg>
