<svg xmlns="http://www.w3.org/2000/svg" width="24.076" height="25" viewBox="0 0 24.076 25">
  <g id="组_1587" data-name="组 1587" transform="translate(-176.749 -136.736)">
    <path id="路径_462" data-name="路径 462" d="M200.61,160.486,194,153.872a10.061,10.061,0,1,0-1.1.968l6.681,6.681a.732.732,0,0,0,1.036-1.036Zm-13.79-19.631a5.957,5.957,0,0,0-5.636,7.87.732.732,0,1,1-1.386.471,7.423,7.423,0,0,1,8.706-9.613h0a.732.732,0,0,1-.332,1.426A5.966,5.966,0,0,0,186.82,140.855Z" fill="#fff"/>
    <path id="路径_463" data-name="路径 463" d="M193.649,145.06a.732.732,0,0,0-.547-.879h0a7.422,7.422,0,0,0-8.706,9.613.732.732,0,1,0,1.386-.471,5.958,5.958,0,0,1,6.988-7.716A.732.732,0,0,0,193.649,145.06Z" transform="translate(-4.598 -4.598)"/>
  </g>
</svg>
