<svg xmlns="http://www.w3.org/2000/svg" width="24.076" height="25" viewBox="0 0 24.076 25">
  <g id="组_1590" data-name="组 1590" transform="translate(-98.155 -136.736)">
    <path id="路径_464" data-name="路径 464" d="M104.676,155.429a8.608,8.608,0,1,0-2.521-6.086A8.577,8.577,0,0,0,104.676,155.429Zm6.086-13.5a7.427,7.427,0,0,1,1.683.192h0a.732.732,0,1,1-.331,1.426,5.957,5.957,0,0,0-6.988,7.716.732.732,0,0,1-1.387.471,7.421,7.421,0,0,1,7.023-9.8Z" transform="translate(-2.536 -2.536)" fill="none"/>
    <path id="路径_465" data-name="路径 465" d="M122.016,160.486l-6.614-6.614a10.06,10.06,0,1,0-1.1.969l6.682,6.681a.732.732,0,0,0,1.035-1.036ZM108.226,138.2a8.607,8.607,0,1,1-6.086,2.521A8.577,8.577,0,0,1,108.226,138.2Z" fill="#fff"/>
    <path id="路径_466" data-name="路径 466" d="M105.8,153.794a.732.732,0,0,0,1.387-.471,5.958,5.958,0,0,1,6.988-7.716.732.732,0,1,0,.331-1.426h0a7.422,7.422,0,0,0-8.706,9.613Z" transform="translate(-4.598 -4.598)" fill="#fff"/>
  </g>
</svg>
