<svg xmlns="http://www.w3.org/2000/svg" width="60" height="60" viewBox="0 0 60 60"><g transform="translate(-793.094 -907.556)"><path d="M5,1A4,4,0,0,0,1,5V55a4,4,0,0,0,4,4H55a4,4,0,0,0,4-4V5a4,4,0,0,0-4-4H5M5,0H55a5,5,0,0,1,5,5V55a5,5,0,0,1-5,5H5a5,5,0,0,1-5-5V5A5,5,0,0,1,5,0Z" transform="translate(793.094 907.556)" fill="gray"/><g transform="translate(808.594 922.555)"><path d="M30,.5H0A.5.5,0,0,1-.5,0,.5.5,0,0,1,0-.5H30a.5.5,0,0,1,.5.5A.5.5,0,0,1,30,.5Z" transform="translate(0 14.571)" fill="gray"/><path d="M0,30.5A.5.5,0,0,1-.5,30V0A.5.5,0,0,1,0-.5.5.5,0,0,1,.5,0V30A.5.5,0,0,1,0,30.5Z" transform="translate(15.429 0)" fill="gray"/></g></g></svg>