<?xml version="1.0" encoding="utf-8"?>
<!-- Generator: Adobe Illustrator 24.0.1, SVG Export Plug-In . SVG Version: 6.00 Build 0)  -->
<svg version="1.1" id="圖層_1" xmlns="http://www.w3.org/2000/svg" xmlns:xlink="http://www.w3.org/1999/xlink" x="0px" y="0px"
	 viewBox="0 0 200 200" style="enable-background:new 0 0 200 200;" xml:space="preserve">
<style type="text/css">
	.st0{fill:none;stroke:url(#SVGID_1_);stroke-width:21;stroke-miterlimit:10;}
	.st1{fill:#040000;}
	.st2{fill:#FFFFFF;}
	.st3{fill:#797878;}
	.st4{fill:url(#SVGID_2_);}
	.st5{fill:url(#SVGID_3_);}
	.st6{fill:url(#SVGID_4_);}
	.st7{fill:url(#SVGID_5_);}
	.st8{fill:url(#SVGID_6_);}
	.st9{fill:url(#SVGID_7_);}
	.st10{fill:url(#SVGID_8_);}
	.st11{fill:url(#SVGID_9_);}
</style>
<linearGradient id="SVGID_1_" gradientUnits="userSpaceOnUse" x1="691.9161" y1="100.598" x2="887.8846" y2="213.7405">
	<stop  offset="0.0602" style="stop-color:#E60012"/>
	<stop  offset="0.1797" style="stop-color:#F29700"/>
	<stop  offset="0.325" style="stop-color:#FFF100"/>
	<stop  offset="0.5168" style="stop-color:#009944"/>
	<stop  offset="0.6705" style="stop-color:#00A0E9"/>
	<stop  offset="0.8134" style="stop-color:#0068B7"/>
	<stop  offset="0.9465" style="stop-color:#900883"/>
</linearGradient>
<path class="st0" d="M894.96,162.56c-3.38-1.34-7.04-2.07-10.87-2.07c-5.02,0-9.78,1.26-14,3.5l-0.36,0.08c0,0,0-0.99,0-2.21
	s-1.51-2.21-3.35-2.21H862l23.84-67.06c0.61-1.73-0.39-3.14-2.23-3.15l-11.03-0.02c-1.84,0-3.85,1.41-4.46,3.14l-11.68,32.86
	c-0.61,1.73-1.27,2.86-1.45,2.5c-0.19-0.35-0.85-2.05-1.48-3.77l-11.13-30.5c-0.41-1.14-1.44-2.13-2.61-2.67
	c-5.19-10.25-15.81-17.28-28.08-17.28c-13.03,0-24.21,7.92-28.99,19.21V68.81c-0.06-0.54,1.11-0.48,1.11-0.48h20.87
	c2.02,0,3.68-1.5,3.68-3.32V54.06c0-1.83-1.65-3.32-3.68-3.32h-62.12c-2.02,0-3.68,1.5-3.68,3.32v10.94c0,1.83,1.65,3.32,3.68,3.32
	h19.88c0,0,0.88,0.07,0.8,0.48v57.56c0,0.43,0.1,0.84,0.25,1.22c-0.1,0.33-0.2,0.67-0.28,1.01V92.63c0-1.77-1.45-3.22-3.23-3.22
	h-9.68c-1.77,0-3.23,1.45-3.23,3.22v3.1l-0.63-0.39c-5.08-3.46-11.23-5.49-17.85-5.49c-17.51,0-31.7,14.15-31.7,31.6
	c0,7.97,2.97,15.24,7.85,20.8h-5.3c-2.13,0-3.88,1.68-3.88,3.74v13.51l-0.03,0.78h-8.97c-1.45,0-2.65,1.19-2.65,2.65v11.45
	c0,1.45,1.19,2.65,2.65,2.65h8.55h0.46c0,0,0,1.29,0,1.48v44.24c0,2.13,1.75,3.88,3.88,3.88h10.09c2.13,0,3.88-1.75,3.88-3.88V178.9
	c0-0.13,0.05-1.88,0.05-1.88h8.21c1.57,0.51,3.3,0.94,5.17,1.24v2.04v0.36v41.87c0,1.2,0.33,2.16,0.98,2.88
	c0.65,0.72,1.71,1.08,3.19,1.08h11.62c0.51,0,0.97-0.05,1.36-0.15c0.39-0.1,0.81-0.29,1.26-0.57c0.45-0.31,0.78-0.75,1-1.34
	c0.22-0.58,0.33-1.17,0.33-1.75v-33.95c0.1-1.54,0.47-2.95,1.11-4.22c0.63-1.27,1.42-2.36,2.37-3.27c0.94-0.91,2.01-1.61,3.19-2.11
	c1.18-0.5,2.39-0.75,3.63-0.75c1.44,0,2.8,0.27,4.09,0.8c1.29,0.53,2.41,1.27,3.37,2.21c0.96,0.94,1.72,2.05,2.29,3.32
	c0.57,1.27,0.85,2.64,0.85,4.11v34c0,1.44,0.27,2.41,0.82,2.91c0.55,0.5,1.56,0.75,3.03,0.75h11.88c1.23,0,2.13-0.33,2.7-1
	c0.57-0.67,0.85-1.65,0.85-2.96v-33.69c0-3.94-0.46-7.65-1.36-11.13c-0.91-3.48-2.3-6.51-4.17-9.11c-1.87-2.6-4.24-4.65-7.1-6.16
	c-2.86-1.5-6.25-2.26-10.16-2.26c-1.15,0-2.26,0.08-3.35,0.23c1.33-2.95,2.24-6.24,2.58-9.89v-6.26
	c3.5,13.66,15.92,23.77,30.72,23.77c1.67,0,3.31-0.13,4.91-0.38c-0.64,0.58-1.27,1.18-1.86,1.82c-1.94,2.08-3.58,4.35-4.94,6.82
	c-1.35,2.47-2.4,5.12-3.14,7.95c-0.74,2.83-1.11,5.75-1.11,8.77c0,4.83,0.93,9.31,2.78,13.43c1.85,4.11,4.35,7.69,7.51,10.72
	c3.15,3.04,6.82,5.41,11.01,7.12c4.18,1.71,8.62,2.57,13.32,2.57c4.22,0,8.21-0.78,11.99-2.34c3.77-1.56,7.17-3.73,10.18-6.51
	c0.51-0.38,0.96-0.81,1.34-1.31c0.38-0.5,0.57-1.09,0.57-1.77c0-0.38-0.05-0.75-0.15-1.11c-0.1-0.36-0.34-0.76-0.72-1.21l-5.45-6.17
	c-0.58-0.58-1.11-1.03-1.57-1.34c-0.46-0.31-0.92-0.46-1.36-0.46c-0.45,0-0.87,0.11-1.26,0.33c-0.4,0.22-0.87,0.56-1.42,1
	c-0.62,0.62-1.43,1.21-2.44,1.77c-1.01,0.57-2.13,1.06-3.35,1.49c-1.22,0.43-2.48,0.77-3.78,1.03c-1.3,0.26-2.57,0.39-3.81,0.39
	c-1.37,0-2.83-0.19-4.37-0.57c-1.54-0.38-3-1-4.37-1.88c-1.37-0.87-2.58-2.05-3.62-3.52c-1.05-1.47-1.74-3.31-2.08-5.5h37.03
	c2.16,0,3.8-0.13,4.91-0.39c1.11-0.26,1.91-0.72,2.39-1.39c0.48-0.67,0.75-1.57,0.8-2.7c0.05-1.13,0.08-2.59,0.08-4.37
	c0-2.74-0.39-5.41-1.16-8c-0.44-1.48-1-2.91-1.65-4.29l3.01,0c0.29,0,0.59-0.05,0.88-0.11v45.35c0,1.84,1.51,3.35,3.35,3.35h10.05
	c1.84,0,3.35-1.51,3.35-3.35v-30.01l0.02-0.78c0.41-8.52,7.05-15.29,15.18-15.29c1.81,0,3.62,0.2,5.19,0.92
	c2.77,1.26,4.72-1.22,4.72-1.22c0.93-2.4,1.97-5.83,3.02-8.36C899.87,163.74,894.96,162.56,894.96,162.56z M722.14,159.23
	c0,0-3.54-3.63-7.01,1.05h-1.67l-0.05-0.78v-10.3c4.03,2.19,8.58,3.54,13.43,3.8v8.48C725.36,160.96,723.79,160.23,722.14,159.23z
	 M747.06,150.53c0,0-0.16,0.43-0.48,1.11v-4.2c0.15-0.1,0.31-0.19,0.45-0.29C748.71,145.99,747.06,150.53,747.06,150.53z
	 M728.86,106.09c8.58,0,15.53,6.93,15.53,15.48c0,8.55-6.95,15.48-15.53,15.48c-8.58,0-15.53-6.93-15.53-15.48
	C713.32,113.03,720.28,106.09,728.86,106.09z M812.55,89.7c6.24,0,11.59,3.71,14.02,9.03l0.81,2.23c0.36,1.28,0.56,2.62,0.57,4.01
	c-0.49-0.3-1.06-0.49-1.68-0.49h-9.68c-1.77,0-3.23,1.45-3.23,3.22v3.66l-0.95-0.6c-4.39-3.15-9.62-5.19-15.29-5.76
	C797.19,96.55,804.07,89.7,812.55,89.7z M779.25,136.37c0-2.54,0.62-4.92,1.71-7.04c0.95-0.59,1.58-1.54,1.7-2.62
	c0.99-1.23,2.15-2.31,3.46-3.19c5.46,7.6,14.22,12.67,24.18,13.1c-0.13,8.44-7.02,15.24-15.52,15.24
	C786.21,151.85,779.25,144.92,779.25,136.37z M807.32,184.57c0.55-1.17,1.26-2.31,2.14-3.45c0.87-1.13,1.86-2.14,2.96-3.03
	c1.1-0.89,2.27-1.6,3.53-2.13c1.25-0.53,2.54-0.8,3.88-0.8c1.85,0,3.47,0.24,4.86,0.72c1.39,0.48,2.62,1.15,3.7,2.01
	c1.08,0.86,2.04,1.85,2.88,2.98c0.84,1.13,1.62,2.37,2.34,3.7H807.32z M829.51,160.93v-29.82c2.5-1.72,4.73-3.79,6.63-6.14
	l9.02,24.73c0.63,1.72,1.19,3.24,1.25,3.38c0.06,0.14-0.4,1.66-1.01,3.39l-4.01,11.27c-1.67-1.5-3.46-2.83-5.4-3.96
	C833.96,162.6,831.79,161.66,829.51,160.93z"/>
<path class="st1" d="M713.46,177.02h9.59c1.45,0,2.65-1.19,2.65-2.65v-11.45c0-1.45-1.19-2.65-2.65-2.65h-9.59l-0.05-0.78v-13.51
	c0-2.06-1.75-3.74-3.88-3.74h-10.09c-2.13,0-3.88,1.68-3.88,3.74v13.51l-0.03,0.78h-8.97c-1.45,0-2.65,1.19-2.65,2.65v11.45
	c0,1.45,1.19,2.65,2.65,2.65h8.55h0.46c0,0,0,1.29,0,1.48v44.24c0,2.13,1.75,3.88,3.88,3.88h10.09c2.13,0,3.88-1.75,3.88-3.88V178.9
	C713.41,178.77,713.46,177.02,713.46,177.02z"/>
<path class="st2" d="M846.42,153.09c-0.06-0.14-0.62-1.66-1.25-3.38l-20.44-56.03c-0.63-1.72,0.36-3.13,2.2-3.14l10.96-0.01
	c1.84,0,3.86,1.41,4.49,3.13l11.13,30.5c0.63,1.72,1.29,3.42,1.48,3.77c0.19,0.35,0.84-0.78,1.45-2.5l11.68-32.86
	c0.61-1.73,2.62-3.14,4.46-3.14l11.03,0.02c1.84,0,2.84,1.42,2.23,3.15l-29.26,82.31c-0.61,1.73-2.62,3.14-4.46,3.14l-11.03-0.02
	c-1.84,0-2.84-1.42-2.23-3.15l6.54-18.4C846.02,154.75,846.47,153.22,846.42,153.09z"/>
<path class="st1" d="M746.58,168.04c0.65-0.96,1.55-1.91,2.7-2.85c1.15-0.94,2.47-1.78,3.96-2.51c1.49-0.73,3.15-1.33,4.96-1.79
	c1.82-0.46,3.74-0.69,5.76-0.69c3.91,0,7.29,0.75,10.16,2.26c2.86,1.5,5.23,3.56,7.1,6.16c1.87,2.6,3.26,5.64,4.17,9.11
	c0.91,3.48,1.36,7.18,1.36,11.13v33.69c0,1.3-0.28,2.29-0.85,2.96c-0.57,0.67-1.47,1-2.7,1h-11.88c-1.47,0-2.49-0.25-3.03-0.75
	c-0.55-0.5-0.82-1.47-0.82-2.91v-34c0-1.47-0.28-2.85-0.85-4.11c-0.57-1.27-1.33-2.37-2.29-3.32c-0.96-0.94-2.08-1.68-3.37-2.21
	c-1.29-0.53-2.65-0.8-4.09-0.8c-1.23,0-2.44,0.25-3.63,0.75c-1.18,0.5-2.25,1.2-3.19,2.11c-0.94,0.91-1.73,2-2.37,3.27
	c-0.64,1.27-1,2.67-1.11,4.22v33.95c0,0.58-0.11,1.17-0.33,1.75c-0.22,0.58-0.56,1.03-1,1.34c-0.45,0.27-0.87,0.46-1.26,0.57
	c-0.39,0.1-0.85,0.15-1.36,0.15H731c-1.47,0-2.54-0.36-3.19-1.08c-0.65-0.72-0.98-1.68-0.98-2.88v-41.87v-0.36V165v-0.26v-19.08
	c0-1.17,0.33-2.11,0.98-2.83c0.65-0.72,1.71-1.08,3.19-1.08h11.62c0.79,0,1.66,0.28,2.62,0.82c0.45,0.31,0.78,0.75,1,1.34
	c0.22,0.58,0.33,1.13,0.33,1.65V168.04z"/>
<path class="st1" d="M850.76,182.33c-0.77-2.59-1.86-5.02-3.27-7.3c-1.41-2.28-3.08-4.38-5.04-6.3c-1.96-1.92-4.11-3.57-6.46-4.94
	c-2.35-1.37-4.86-2.43-7.54-3.19c-2.67-0.75-5.44-1.13-8.28-1.13c-3.12,0-6.09,0.41-8.9,1.23c-2.81,0.82-5.42,1.97-7.82,3.45
	c-2.4,1.47-4.57,3.25-6.51,5.32c-1.94,2.08-3.58,4.35-4.94,6.82c-1.35,2.47-2.4,5.12-3.14,7.95c-0.74,2.83-1.11,5.75-1.11,8.77
	c0,4.83,0.93,9.31,2.78,13.43c1.85,4.11,4.35,7.69,7.51,10.72c3.15,3.04,6.82,5.41,11.01,7.12c4.18,1.71,8.62,2.57,13.32,2.57
	c4.22,0,8.21-0.78,11.99-2.34c3.77-1.56,7.17-3.73,10.18-6.51c0.51-0.38,0.96-0.81,1.34-1.31c0.38-0.5,0.57-1.09,0.57-1.77
	c0-0.38-0.05-0.75-0.15-1.11c-0.1-0.36-0.34-0.76-0.72-1.21l-5.45-6.17c-0.58-0.58-1.11-1.03-1.57-1.34
	c-0.46-0.31-0.92-0.46-1.36-0.46c-0.45,0-0.87,0.11-1.26,0.33c-0.4,0.22-0.87,0.56-1.42,1c-0.62,0.62-1.43,1.21-2.44,1.77
	c-1.01,0.57-2.13,1.06-3.35,1.49c-1.22,0.43-2.48,0.77-3.78,1.03c-1.3,0.26-2.57,0.39-3.81,0.39c-1.37,0-2.83-0.19-4.37-0.57
	c-1.54-0.38-3-1-4.37-1.88c-1.37-0.87-2.58-2.05-3.62-3.52c-1.05-1.47-1.74-3.31-2.08-5.5h37.03c2.16,0,3.8-0.13,4.91-0.39
	c1.11-0.26,1.91-0.72,2.39-1.39c0.48-0.67,0.75-1.57,0.8-2.7c0.05-1.13,0.08-2.59,0.08-4.37
	C851.92,187.59,851.53,184.92,850.76,182.33z M807.32,184.57c0.55-1.17,1.26-2.31,2.14-3.45c0.87-1.13,1.86-2.14,2.96-3.03
	c1.1-0.89,2.27-1.6,3.53-2.13c1.25-0.53,2.54-0.8,3.88-0.8c1.85,0,3.47,0.24,4.86,0.72c1.39,0.48,2.62,1.15,3.7,2.01
	c1.08,0.86,2.04,1.85,2.88,2.98c0.84,1.13,1.62,2.37,2.34,3.7H807.32z"/>
<path class="st2" d="M759.97,89.41h-9.68c-1.77,0-3.23,1.45-3.23,3.22v3.1l-0.63-0.39c-5.08-3.46-11.23-5.49-17.85-5.49
	c-17.51,0-31.7,14.15-31.7,31.6c0,17.45,14.19,31.6,31.7,31.6c6.88,0,13.2-2.27,18.45-5.9c1.68-1.16,0.03,3.39,0.03,3.39
	s-7.18,19.37-24.93,8.7c0,0-3.65-3.77-7.18,1.26l-4.53,5.15c0,0-3.27,3.26,0.76,5.65c0,0,7.93,7.41,20.9,7.41
	c12.97,0,29.37-9.5,31.12-28.16V92.63C763.2,90.86,761.75,89.41,759.97,89.41z M728.86,137.06c-8.58,0-15.53-6.93-15.53-15.48
	c0-8.55,6.95-15.48,15.53-15.48c8.58,0,15.53,6.93,15.53,15.48C744.39,130.13,737.44,137.06,728.86,137.06z"/>
<path class="st1" d="M811.69,73.71c-17.38,0-31.47,14.09-31.47,31.47s14.09,31.47,31.47,31.47s31.47-14.09,31.47-31.47
	S829.07,73.71,811.69,73.71z M812.55,120.54c-8.52,0-15.42-6.9-15.42-15.42c0-8.52,6.9-15.42,15.42-15.42
	c8.52,0,15.42,6.9,15.42,15.42C827.97,113.63,821.07,120.54,812.55,120.54z"/>
<path class="st1" d="M783.8,68.33h20.87c2.02,0,3.68-1.5,3.68-3.32V54.06c0-1.83-1.65-3.32-3.68-3.32h-62.12
	c-2.02,0-3.68,1.5-3.68,3.32v10.94c0,1.83,1.65,3.32,3.68,3.32h19.88c0,0,0.88,0.07,0.8,0.48v57.56c0,1.98,1.79,3.6,3.98,3.6h11.51
	c2.19,0,3.98-1.62,3.98-3.6V68.81C782.64,68.27,783.8,68.33,783.8,68.33z"/>
<path class="st2" d="M826.28,104.5h-9.68c-1.77,0-3.23,1.45-3.23,3.22v3.66l-0.95-0.6c-5.21-3.74-11.6-5.95-18.51-5.95
	c-17.51,0-31.7,14.15-31.7,31.6c0,17.45,14.19,31.6,31.7,31.6c7.31,0,14.03-2.46,19.39-6.6l0.07,1.47v2.72
	c0,1.77,1.45,3.22,3.23,3.22h9.68c1.77,0,3.23-1.45,3.23-3.22v-57.91C829.51,105.94,828.06,104.5,826.28,104.5z M794.79,151.85
	c-8.58,0-15.53-6.93-15.53-15.48c0-8.55,6.95-15.48,15.53-15.48c8.58,0,15.53,6.93,15.53,15.48
	C810.32,144.92,803.36,151.85,794.79,151.85z"/>
<path class="st1" d="M869.74,193.27l0.02-0.78c0.41-8.52,7.05-15.29,15.18-15.29c1.81,0,3.62,0.2,5.19,0.92
	c2.77,1.26,4.72-1.22,4.72-1.22c0.93-2.4,1.97-5.83,3.02-8.36c1.99-4.79-2.92-5.97-2.92-5.97c-3.38-1.34-7.04-2.07-10.87-2.07
	c-5.02,0-9.78,1.26-14,3.5l-0.36,0.08c0,0,0-0.99,0-2.21c0-1.21-1.51-2.21-3.35-2.21h-10.05c-1.84,0-3.35,1.51-3.35,3.35v60.27
	c0,1.84,1.51,3.35,3.35,3.35h10.05c1.84,0,3.35-1.51,3.35-3.35V193.27"/>
<g>
	<path class="st3" d="M746.58,147.44v-0.34c0-0.51-0.11-1.06-0.33-1.65c-0.22-0.58-0.56-1.03-1-1.34c-0.96-0.55-1.83-0.82-2.62-0.82
		H731c-1.47,0-2.54,0.36-3.19,1.08c-0.65,0.72-0.98,1.66-0.98,2.83v5.77c0.58,0.03,1.16,0.09,1.75,0.09
		C735.28,153.05,741.42,150.89,746.58,147.44z"/>
</g>
<rect class="st1" width="200" height="200"/>
<g>
	
		<linearGradient id="SVGID_2_" gradientUnits="userSpaceOnUse" x1="95.8441" y1="102.2079" x2="96.5237" y2="102.2079" gradientTransform="matrix(195.97 113.1433 -113.1433 195.97 -7165.3594 -30835.2598)">
		<stop  offset="0" style="stop-color:#E60012"/>
		<stop  offset="0.0602" style="stop-color:#E60012"/>
		<stop  offset="0.1797" style="stop-color:#F29600"/>
		<stop  offset="0.325" style="stop-color:#FFF100"/>
		<stop  offset="0.5168" style="stop-color:#009944"/>
		<stop  offset="0.6705" style="stop-color:#00A0E9"/>
		<stop  offset="0.8134" style="stop-color:#0068B7"/>
		<stop  offset="0.9465" style="stop-color:#900883"/>
		<stop  offset="1" style="stop-color:#900883"/>
	</linearGradient>
	<path class="st4" d="M124.09,72.77c-1.65-3.62-5.29-6.14-9.53-6.14c-5.76,0-10.44,4.65-10.47,10.41c3.85,0.39,7.41,1.78,10.39,3.92
		l0.64,0.41v-2.49c0-1.2,0.99-2.19,2.19-2.19h6.58c0.42,0,0.81,0.12,1.14,0.33c-0.01-0.95-0.15-1.86-0.39-2.73L124.09,72.77z"/>
	
		<linearGradient id="SVGID_3_" gradientUnits="userSpaceOnUse" x1="95.8441" y1="102.1703" x2="96.5237" y2="102.1703" gradientTransform="matrix(195.97 113.1433 -113.1433 195.97 -7178.6235 -30812.2852)">
		<stop  offset="0" style="stop-color:#E60012"/>
		<stop  offset="0.0602" style="stop-color:#E60012"/>
		<stop  offset="0.1797" style="stop-color:#F29600"/>
		<stop  offset="0.325" style="stop-color:#FFF100"/>
		<stop  offset="0.5168" style="stop-color:#009944"/>
		<stop  offset="0.6705" style="stop-color:#00A0E9"/>
		<stop  offset="0.8134" style="stop-color:#0068B7"/>
		<stop  offset="0.9465" style="stop-color:#900883"/>
		<stop  offset="1" style="stop-color:#900883"/>
	</linearGradient>
	<path class="st5" d="M126.08,94.78v20.26c1.55,0.49,3.03,1.13,4.41,1.94c1.32,0.77,2.53,1.67,3.67,2.69l2.72-7.66
		c0.42-1.17,0.73-2.21,0.69-2.3c-0.04-0.09-0.42-1.13-0.85-2.3l-6.13-16.81C129.3,92.2,127.78,93.61,126.08,94.78z"/>
	
		<linearGradient id="SVGID_4_" gradientUnits="userSpaceOnUse" x1="95.8441" y1="102.0738" x2="96.5237" y2="102.0738" gradientTransform="matrix(195.97 113.1433 -113.1433 195.97 -7212.7207 -30753.2266)">
		<stop  offset="0" style="stop-color:#E60012"/>
		<stop  offset="0.0602" style="stop-color:#E60012"/>
		<stop  offset="0.1797" style="stop-color:#F29600"/>
		<stop  offset="0.325" style="stop-color:#FFF100"/>
		<stop  offset="0.5168" style="stop-color:#009944"/>
		<stop  offset="0.6705" style="stop-color:#00A0E9"/>
		<stop  offset="0.8134" style="stop-color:#0068B7"/>
		<stop  offset="0.9465" style="stop-color:#900883"/>
		<stop  offset="1" style="stop-color:#900883"/>
	</linearGradient>
	<path class="st6" d="M47.18,114.07l0.03,0.53h1.13c2.36-3.18,4.77-0.71,4.77-0.71c1.13,0.68,2.19,1.17,3.19,1.52v-5.76
		c-3.29-0.18-6.39-1.09-9.12-2.58V114.07z"/>
	
		<linearGradient id="SVGID_5_" gradientUnits="userSpaceOnUse" x1="95.8441" y1="102.1225" x2="96.5237" y2="102.1225" gradientTransform="matrix(195.97 113.1433 -113.1433 195.97 -7195.5112 -30783.0352)">
		<stop  offset="0" style="stop-color:#E60012"/>
		<stop  offset="0.0602" style="stop-color:#E60012"/>
		<stop  offset="0.1797" style="stop-color:#F29600"/>
		<stop  offset="0.325" style="stop-color:#FFF100"/>
		<stop  offset="0.5168" style="stop-color:#009944"/>
		<stop  offset="0.6705" style="stop-color:#00A0E9"/>
		<stop  offset="0.8134" style="stop-color:#0068B7"/>
		<stop  offset="0.9465" style="stop-color:#900883"/>
		<stop  offset="1" style="stop-color:#900883"/>
	</linearGradient>
	<path class="st7" d="M179.61,116.03c-0.45-1.54-1.28-2.81-2.11-3.71c-0.63-0.68-1.26-1.18-1.83-1.57
		c-0.86-0.58-1.61-0.91-2.19-1.14c-0.26-0.1-0.49-0.18-0.68-0.24c-3-1.14-6.25-1.77-9.62-1.77c-1.8,0-3.57,0.18-5.29,0.52L171.09,71
		l0,0c0.33-0.93,0.53-1.96,0.53-3.06c0-1.1-0.21-2.27-0.68-3.38c-0.35-0.83-0.84-1.61-1.44-2.29c-0.9-1.02-2.03-1.79-3.19-2.26
		c-1.16-0.48-2.34-0.67-3.45-0.67l-7.5-0.01h-0.01c-1.23,0-2.32,0.23-3.29,0.57c-1.46,0.52-2.69,1.28-3.78,2.28
		c-0.54,0.51-1.05,1.08-1.51,1.74c-0.46,0.66-0.86,1.42-1.17,2.29l-2.13,6l-1.94-5.31l0,0c-0.57-1.53-1.41-2.7-2.33-3.63
		c-0.23-0.23-0.47-0.45-0.72-0.66c-2.32-3.9-5.53-7.19-9.37-9.6c-3.07-1.93-6.56-3.28-10.27-3.92v-6.65c0-1.39-0.32-2.74-0.88-3.91
		c-0.83-1.76-2.13-3.12-3.64-4.04c-1.51-0.93-3.28-1.44-5.12-1.44H66.99c-1.22,0-2.42,0.23-3.53,0.65c-1.66,0.64-3.13,1.71-4.25,3.2
		c-0.56,0.74-1.02,1.6-1.35,2.54c-0.33,0.94-0.51,1.96-0.51,3v7.44c0,1.39,0.32,2.74,0.88,3.91c0.83,1.76,2.13,3.12,3.64,4.04
		c1.51,0.93,3.28,1.44,5.12,1.44h6.89v0.05h-1.64c-1.27,0-2.52,0.26-3.64,0.74c-0.68,0.29-1.31,0.65-1.89,1.08
		c-2.9-0.98-6.01-1.52-9.23-1.52c-3.94,0-7.72,0.8-11.16,2.25c-5.15,2.17-9.52,5.79-12.61,10.35c-3.09,4.56-4.91,10.1-4.91,16.01
		c0,3.5,0.64,6.88,1.81,10c-0.35,0.36-0.67,0.75-0.96,1.16c-0.54,0.77-0.98,1.63-1.28,2.56c-0.3,0.93-0.47,1.94-0.47,2.96v2.64
		c-0.86,0.1-1.7,0.32-2.47,0.65c-1.61,0.69-2.95,1.8-3.91,3.22c-0.96,1.41-1.54,3.17-1.53,5v7.78c0,1.22,0.25,2.42,0.71,3.49
		c0.69,1.61,1.8,2.95,3.22,3.91c1.15,0.78,2.53,1.3,3.99,1.47v24c0,1.34,0.28,2.64,0.78,3.81c0.75,1.76,1.97,3.23,3.52,4.28
		c1.54,1.05,3.46,1.68,5.47,1.68h6.86c1.34,0,2.64-0.28,3.81-0.78c1.29-0.55,2.43-1.36,3.35-2.36c0.55,0.61,1.19,1.13,1.84,1.54
		c1,0.63,2.03,1.01,2.97,1.22c0.94,0.22,1.81,0.29,2.62,0.29h7.9c0.83,0,1.73-0.08,2.72-0.33l0.01,0l0.01,0
		c1.11-0.29,2.01-0.73,2.78-1.21l0.17-0.1l0.16-0.11c0.78-0.54,1.48-1.22,2.03-1.96c0.55-0.73,0.96-1.51,1.24-2.25l0.01-0.02
		c0.32-0.84,0.55-1.78,0.65-2.74c0.04,0.69,0.14,1.44,0.38,2.29c0.17,0.61,0.42,1.28,0.82,1.98c0.39,0.7,0.95,1.45,1.68,2.11
		c0.68,0.62,1.4,1.06,2.05,1.37c0.99,0.47,1.86,0.68,2.64,0.81c0.78,0.13,1.48,0.17,2.16,0.17h8.07c1.06,0,2.26-0.13,3.57-0.62
		c0.65-0.24,1.32-0.58,1.96-1.01c0.64-0.43,1.24-0.97,1.75-1.57l0.01-0.01c0.47-0.55,0.85-1.14,1.15-1.73
		c0.08-0.17,0.16-0.33,0.23-0.5c1.92,1.36,4,2.5,6.2,3.4c3.71,1.52,7.7,2.28,11.76,2.28c3.75,0,7.44-0.71,10.87-2.13h0
		c1.52-0.63,2.97-1.38,4.36-2.24c0.68,1.03,1.55,1.91,2.57,2.6c1.49,1.01,3.33,1.62,5.27,1.62h6.83c1.29,0,2.55-0.27,3.67-0.75
		c1.69-0.72,3.11-1.9,4.12-3.39c1.01-1.49,1.62-3.33,1.62-5.27v-20.29l0.01-0.3c0.06-1.12,0.52-2.05,1.13-2.67
		c0.31-0.31,0.65-0.54,0.99-0.69c0.34-0.15,0.68-0.22,1.07-0.22c0.35,0,0.59,0.02,0.69,0.04l0.04,0.01
		c1.22,0.54,2.59,0.83,3.87,0.82c1.31,0,2.49-0.28,3.44-0.64c1.43-0.56,2.38-1.27,3.05-1.84c0.66-0.58,1.05-1.05,1.26-1.31
		l0.66-0.84l0.39-1c0.4-1.03,0.74-2.07,1.08-3.04c0.33-0.97,0.66-1.88,0.9-2.46l0,0c0.52-1.25,0.87-2.68,0.87-4.18
		C180,117.84,179.87,116.9,179.61,116.03z M51.68,163.65L51.68,163.65L51.68,163.65L51.68,163.65z M99.77,158.39L99.77,158.39
		L99.77,158.39z M172.54,120.21c-0.72,1.72-1.43,4.05-2.06,5.68c0,0-1.32,1.69-3.21,0.83c-1.07-0.49-2.29-0.62-3.53-0.62
		c-5.53,0-10.04,4.6-10.32,10.39l-0.01,0.53v20.39c0,1.25-1.02,2.28-2.28,2.28h-6.83c-1.25,0-2.28-1.02-2.28-2.28v-30.82
		c-0.2,0.04-0.4,0.08-0.6,0.08l-2.04,0c0.44,0.94,0.82,1.91,1.12,2.92c0.52,1.76,0.79,3.57,0.79,5.44c0,1.21-0.02,2.2-0.05,2.97
		c-0.03,0.77-0.22,1.38-0.54,1.83c-0.33,0.45-0.87,0.77-1.62,0.94c-0.76,0.17-1.87,0.26-3.34,0.26h-25.17
		c0.23,1.49,0.7,2.74,1.42,3.74c0.71,1,1.53,1.8,2.46,2.4c0.93,0.59,1.92,1.02,2.97,1.28c1.05,0.26,2.04,0.38,2.97,0.38
		c0.84,0,1.7-0.09,2.59-0.26c0.89-0.17,1.74-0.41,2.57-0.7c0.83-0.29,1.58-0.63,2.27-1.01c0.69-0.38,1.24-0.79,1.66-1.21
		c0.37-0.3,0.69-0.53,0.96-0.68c0.27-0.15,0.55-0.23,0.86-0.23c0.3,0,0.61,0.1,0.93,0.31c0.32,0.21,0.67,0.51,1.07,0.91l3.71,4.19
		c0.26,0.3,0.42,0.58,0.49,0.82c0.07,0.24,0.1,0.5,0.1,0.75c0,0.47-0.13,0.87-0.38,1.21c-0.26,0.34-0.56,0.64-0.91,0.89
		c-2.05,1.89-4.36,3.36-6.92,4.42c-2.56,1.06-5.28,1.59-8.14,1.59c-3.19,0-6.21-0.58-9.05-1.75c-2.84-1.17-5.34-2.78-7.48-4.84
		c-2.14-2.06-3.85-4.49-5.1-7.29c-1.26-2.8-1.89-5.84-1.89-9.12c0-2.05,0.25-4.04,0.75-5.96c0.5-1.92,1.21-3.72,2.13-5.4
		c0.92-1.68,2.04-3.22,3.36-4.63c0.4-0.43,0.83-0.84,1.26-1.24c-1.09,0.17-2.2,0.26-3.33,0.26c-10.05,0-18.5-6.87-20.87-16.15v4.26
		c-0.23,2.48-0.85,4.72-1.75,6.72c0.74-0.1,1.49-0.16,2.27-0.16c2.66,0,4.96,0.51,6.9,1.53c1.95,1.02,3.55,2.42,4.82,4.18
		c1.27,1.77,2.21,3.83,2.83,6.19c0.62,2.36,0.93,4.88,0.93,7.56v22.89c0,0.89-0.19,1.56-0.58,2.01c-0.38,0.45-1,0.68-1.83,0.68
		h-8.07c-1,0-1.69-0.17-2.06-0.51c-0.37-0.34-0.56-1-0.56-1.98v-23.1c0-1-0.19-1.93-0.58-2.8c-0.38-0.86-0.9-1.61-1.56-2.26
		c-0.65-0.64-1.42-1.14-2.29-1.5c-0.87-0.36-1.8-0.54-2.78-0.54c-0.84,0-1.66,0.17-2.46,0.51c-0.8,0.34-1.53,0.82-2.17,1.43
		c-0.64,0.62-1.18,1.36-1.61,2.22c-0.43,0.86-0.68,1.82-0.75,2.87v23.07c0,0.4-0.08,0.79-0.23,1.19c-0.15,0.4-0.38,0.7-0.68,0.91
		c-0.3,0.19-0.59,0.31-0.86,0.38c-0.27,0.07-0.58,0.1-0.93,0.1h-7.9c-1,0-1.72-0.24-2.17-0.73c-0.44-0.49-0.66-1.14-0.66-1.96
		v-28.45v-0.24v-1.39c-1.27-0.2-2.45-0.49-3.51-0.84h-5.58c0,0-0.03,1.19-0.03,1.28v29.8c0,1.45-1.19,2.64-2.64,2.64h-6.86
		c-1.45,0-2.64-1.19-2.64-2.64v-23.94v-6.13v-1.01h-0.31h-5.81c-0.99,0-1.8-0.81-1.8-1.8v-7.78c0-0.99,0.81-1.8,1.8-1.8h6.1
		l0.02-0.53v-9.18c0-1.4,1.19-2.54,2.64-2.54h3.6c-3.32-3.78-5.33-8.72-5.33-14.14c0-11.86,9.64-21.48,21.54-21.48
		c4.5,0,8.68,1.38,12.13,3.73l0.43,0.27v-2.1c0-1.2,0.99-2.19,2.19-2.19h6.58c1.21,0,2.19,0.98,2.19,2.19v24.45
		c0.06-0.23,0.13-0.46,0.19-0.68c-0.11-0.26-0.17-0.54-0.17-0.83V52.44c0.06-0.28-0.54-0.32-0.54-0.32H66.99
		c-1.37,0-2.5-1.02-2.5-2.26v-7.44c0-1.24,1.12-2.26,2.5-2.26h42.21c1.37,0,2.5,1.02,2.5,2.26v7.44c0,1.24-1.12,2.26-2.5,2.26H95.02
		c0,0-0.79-0.04-0.75,0.32v16.39c3.25-7.67,10.85-13.05,19.7-13.05c8.34,0,15.56,4.78,19.08,11.74c0.8,0.37,1.49,1.05,1.77,1.82
		l7.56,20.73c0.43,1.17,0.88,2.32,1.01,2.56c0.13,0.24,0.57-0.53,0.99-1.7l7.94-22.33c0.42-1.17,1.78-2.13,3.03-2.13l7.49,0.01
		c1.25,0,1.93,0.96,1.51,2.14l-16.2,45.57h2.98c1.25,0,2.28,0.68,2.28,1.5c0,0.82,0,1.5,0,1.5l0.24-0.05
		c2.87-1.52,6.1-2.38,9.51-2.38c2.6,0,5.09,0.5,7.38,1.41C170.56,116.15,173.9,116.95,172.54,120.21z"/>
	
		<linearGradient id="SVGID_6_" gradientUnits="userSpaceOnUse" x1="95.8441" y1="102.1129" x2="96.5237" y2="102.1129" gradientTransform="matrix(195.97 113.1433 -113.1433 195.97 -7198.9072 -30777.1523)">
		<stop  offset="0" style="stop-color:#E60012"/>
		<stop  offset="0.0602" style="stop-color:#E60012"/>
		<stop  offset="0.1797" style="stop-color:#F29600"/>
		<stop  offset="0.325" style="stop-color:#FFF100"/>
		<stop  offset="0.5168" style="stop-color:#009944"/>
		<stop  offset="0.6705" style="stop-color:#00A0E9"/>
		<stop  offset="0.8134" style="stop-color:#0068B7"/>
		<stop  offset="0.9465" style="stop-color:#900883"/>
		<stop  offset="1" style="stop-color:#900883"/>
	</linearGradient>
	<path class="st8" d="M128.87,131.11c-0.49-0.91-1.02-1.75-1.59-2.52c-0.57-0.77-1.22-1.44-1.96-2.03
		c-0.73-0.58-1.57-1.04-2.52-1.36c-0.94-0.33-2.04-0.49-3.3-0.49c-0.91,0-1.79,0.18-2.64,0.54c-0.85,0.36-1.65,0.84-2.4,1.45
		c-0.74,0.61-1.41,1.29-2.01,2.06c-0.59,0.77-1.08,1.55-1.45,2.34H128.87z"/>
	
		<linearGradient id="SVGID_7_" gradientUnits="userSpaceOnUse" x1="95.8441" y1="102.1019" x2="96.5237" y2="102.1019" gradientTransform="matrix(195.97 113.1433 -113.1433 195.97 -7202.8096 -30770.3926)">
		<stop  offset="0" style="stop-color:#E60012"/>
		<stop  offset="0.0602" style="stop-color:#E60012"/>
		<stop  offset="0.1797" style="stop-color:#F29600"/>
		<stop  offset="0.325" style="stop-color:#FFF100"/>
		<stop  offset="0.5168" style="stop-color:#009944"/>
		<stop  offset="0.6705" style="stop-color:#00A0E9"/>
		<stop  offset="0.8134" style="stop-color:#0068B7"/>
		<stop  offset="0.9465" style="stop-color:#900883"/>
		<stop  offset="1" style="stop-color:#900883"/>
	</linearGradient>
	<path class="st9" d="M69.73,108.73c0.22-0.46,0.33-0.75,0.33-0.75s1.12-3.09-0.02-2.3c-0.1,0.07-0.21,0.13-0.31,0.2V108.73z"/>
	
		<linearGradient id="SVGID_8_" gradientUnits="userSpaceOnUse" x1="95.8441" y1="102.1229" x2="96.5237" y2="102.1229" gradientTransform="matrix(195.97 113.1433 -113.1433 195.97 -7195.3604 -30783.2949)">
		<stop  offset="0" style="stop-color:#E60012"/>
		<stop  offset="0.0602" style="stop-color:#E60012"/>
		<stop  offset="0.1797" style="stop-color:#F29600"/>
		<stop  offset="0.325" style="stop-color:#FFF100"/>
		<stop  offset="0.5168" style="stop-color:#009944"/>
		<stop  offset="0.6705" style="stop-color:#00A0E9"/>
		<stop  offset="0.8134" style="stop-color:#0068B7"/>
		<stop  offset="0.9465" style="stop-color:#900883"/>
		<stop  offset="1" style="stop-color:#900883"/>
	</linearGradient>
	<path class="st10" d="M57.68,77.78c-5.83,0-10.56,4.71-10.56,10.52c0,5.81,4.73,10.52,10.56,10.52s10.56-4.71,10.56-10.52
		C68.24,82.49,63.51,77.78,57.68,77.78z M60.84,89.61c-0.25,0.6-0.69,1.13-1.24,1.5c-0.55,0.37-1.18,0.58-1.92,0.58
		c-0.5,0-0.93-0.1-1.34-0.27c-0.61-0.25-1.14-0.7-1.51-1.24c-0.37-0.55-0.57-1.16-0.57-1.88c0-0.48,0.09-0.91,0.26-1.31
		c0.25-0.6,0.69-1.13,1.24-1.5c0.55-0.37,1.18-0.58,1.92-0.58c0.5,0,0.93,0.1,1.34,0.27c0.61,0.25,1.14,0.7,1.51,1.24
		c0.37,0.55,0.57,1.16,0.57,1.88C61.1,88.78,61.01,89.21,60.84,89.61z"/>
	
		<linearGradient id="SVGID_9_" gradientUnits="userSpaceOnUse" x1="95.8441" y1="102.1459" x2="96.5237" y2="102.1459" gradientTransform="matrix(195.97 113.1433 -113.1433 195.97 -7187.271 -30797.3066)">
		<stop  offset="0" style="stop-color:#E60012"/>
		<stop  offset="0.0602" style="stop-color:#E60012"/>
		<stop  offset="0.1797" style="stop-color:#F29600"/>
		<stop  offset="0.325" style="stop-color:#FFF100"/>
		<stop  offset="0.5168" style="stop-color:#009944"/>
		<stop  offset="0.6705" style="stop-color:#00A0E9"/>
		<stop  offset="0.8134" style="stop-color:#0068B7"/>
		<stop  offset="0.9465" style="stop-color:#900883"/>
		<stop  offset="1" style="stop-color:#900883"/>
	</linearGradient>
	<path class="st11" d="M94.24,91.79c-0.08,0.74-0.51,1.38-1.15,1.78c-0.74,1.44-1.16,3.06-1.16,4.78c0,5.81,4.73,10.52,10.56,10.52
		c5.77,0,10.46-4.62,10.55-10.36c-6.77-0.29-12.72-3.74-16.43-8.9C95.7,90.22,94.91,90.95,94.24,91.79z"/>
	<path class="st1" d="M45.16,118.24l3.08-3.5l0.11-0.14h-1.13l-0.03-0.53v-7c-2.24-1.22-4.23-2.82-5.89-4.72h-3.6
		c-1.45,0-2.64,1.14-2.64,2.54v9.18l-0.02,0.53h-6.1c-0.99,0-1.8,0.81-1.8,1.8v7.78c0,0.99,0.81,1.8,1.8,1.8h5.81h0.31v1.01v6.13
		v23.94c0,1.45,1.19,2.64,2.64,2.64h6.86c1.45,0,2.64-1.19,2.64-2.64v-29.8c0-0.09,0.03-1.28,0.03-1.28h5.58
		c-4.53-1.48-7.12-3.9-7.12-3.9C42.94,120.46,45.16,118.24,45.16,118.24z"/>
	<path class="st2" d="M124.64,74.29c-0.15-0.52-0.33-1.03-0.55-1.52L124.64,74.29z"/>
	<path class="st2" d="M142.04,116.45c0-1.25,1.02-2.28,2.28-2.28h3.84l16.2-45.57c0.42-1.17-0.26-2.14-1.51-2.14l-7.49-0.01
		c-1.25,0-2.61,0.96-3.03,2.13l-7.94,22.33c-0.42,1.17-0.86,1.94-0.99,1.7c-0.13-0.24-0.58-1.39-1.01-2.56l-7.56-20.73
		c-0.28-0.77-0.98-1.44-1.77-1.82c1.47,2.9,2.3,6.17,2.3,9.64c0,5.1-1.79,9.78-4.76,13.45l6.13,16.81c0.43,1.17,0.81,2.21,0.85,2.3
		c0.04,0.09-0.27,1.13-0.69,2.3l-2.72,7.66c0.24,0.22,0.49,0.43,0.72,0.66c1.33,1.31,2.47,2.73,3.42,4.28
		c0.41,0.66,0.77,1.35,1.1,2.04l2.04,0c0.2,0,0.4-0.03,0.6-0.08V116.45z"/>
	<path class="st1" d="M56.31,115.41c8.16,2.84,12.3-4.3,13.42-6.68v-2.85c-0.88,0.59-1.79,1.12-2.75,1.58l-0.02,0.01
		c-0.47,0.23-0.94,0.44-1.43,0.64l-0.13,0.05c-0.45,0.18-0.91,0.35-1.37,0.5c-0.1,0.03-0.2,0.05-0.29,0.08
		c-0.42,0.13-0.84,0.25-1.26,0.36c-0.17,0.04-0.34,0.07-0.51,0.11c-0.36,0.08-0.72,0.16-1.09,0.22c-0.28,0.04-0.56,0.07-0.84,0.1
		c-0.27,0.03-0.54,0.08-0.82,0.1c-0.56,0.05-1.13,0.07-1.71,0.07c-0.4,0-0.8-0.01-1.19-0.03V115.41z"/>
	<path class="st1" d="M59.88,127.11c-1.26,0-2.45-0.11-3.57-0.29v1.39v0.24v28.45c0,0.82,0.22,1.47,0.66,1.96
		c0.44,0.49,1.16,0.73,2.17,0.73h7.9c0.35,0,0.66-0.04,0.93-0.1c0.27-0.07,0.55-0.2,0.86-0.38c0.3-0.21,0.53-0.51,0.68-0.91
		c0.15-0.4,0.23-0.79,0.23-1.19v-23.07c0.07-1.05,0.32-2,0.75-2.87c0.43-0.86,0.97-1.6,1.61-2.22c0.64-0.62,1.36-1.1,2.17-1.43
		c0.8-0.34,1.63-0.51,2.46-0.51c0.98,0,1.9,0.18,2.78,0.54c0.87,0.36,1.64,0.86,2.29,1.5c0.65,0.64,1.17,1.39,1.56,2.26
		c0.38,0.86,0.58,1.79,0.58,2.8v23.1c0,0.98,0.19,1.64,0.56,1.98c0.37,0.34,1.06,0.51,2.06,0.51h8.07c0.84,0,1.45-0.23,1.83-0.68
		c0.38-0.45,0.58-1.12,0.58-2.01v-22.89c0-2.68-0.31-5.2-0.93-7.56c-0.62-2.36-1.56-4.43-2.83-6.19c-1.27-1.77-2.88-3.16-4.82-4.18
		c-1.95-1.02-4.25-1.53-6.9-1.53c-0.78,0-1.54,0.06-2.27,0.16C75.56,122.93,66.96,127.11,59.88,127.11z"/>
	<path class="st1" d="M138.3,124.62c-0.95-1.55-2.1-2.98-3.42-4.28c-0.23-0.23-0.48-0.45-0.72-0.66c-1.13-1.02-2.35-1.92-3.67-2.69
		c-1.38-0.81-2.86-1.45-4.41-1.94v3.19c0,1.2-0.99,2.19-2.19,2.19h-6.58c-1.21,0-2.19-0.98-2.19-2.19v-1.85l-0.04-1
		c-2.81,2.17-6.18,3.66-9.84,4.23c-0.43,0.39-0.86,0.8-1.26,1.24c-1.32,1.41-2.43,2.95-3.36,4.63c-0.92,1.68-1.63,3.48-2.13,5.4
		c-0.5,1.92-0.75,3.91-0.75,5.96c0,3.29,0.63,6.33,1.89,9.12c1.26,2.8,2.96,5.23,5.1,7.29c2.14,2.06,4.64,3.68,7.48,4.84
		c2.84,1.16,5.86,1.75,9.05,1.75c2.87,0,5.58-0.53,8.14-1.59c2.56-1.06,4.87-2.53,6.92-4.42c0.35-0.26,0.65-0.55,0.91-0.89
		c0.26-0.34,0.38-0.74,0.38-1.21c0-0.26-0.03-0.51-0.1-0.75c-0.07-0.24-0.23-0.52-0.49-0.82l-3.71-4.19c-0.4-0.4-0.75-0.7-1.07-0.91
		c-0.31-0.21-0.62-0.31-0.93-0.31c-0.3,0-0.59,0.08-0.86,0.23c-0.27,0.15-0.59,0.38-0.96,0.68c-0.42,0.42-0.97,0.82-1.66,1.21
		c-0.69,0.38-1.45,0.72-2.27,1.01c-0.83,0.29-1.68,0.52-2.57,0.7c-0.89,0.18-1.75,0.26-2.59,0.26c-0.93,0-1.92-0.13-2.97-0.38
		c-1.05-0.26-2.04-0.68-2.97-1.28c-0.93-0.59-1.75-1.39-2.46-2.4c-0.71-1-1.18-2.25-1.42-3.74h25.17c1.47,0,2.58-0.09,3.34-0.26
		c0.76-0.18,1.3-0.49,1.62-0.94c0.33-0.45,0.51-1.07,0.54-1.83c0.03-0.77,0.05-1.76,0.05-2.97c0-1.86-0.26-3.68-0.79-5.44
		c-0.3-1.01-0.68-1.98-1.12-2.92C139.07,125.97,138.71,125.28,138.3,124.62z M114.47,126.7c0.75-0.61,1.54-1.09,2.4-1.45
		c0.85-0.36,1.73-0.54,2.64-0.54c1.26,0,2.36,0.16,3.3,0.49c0.94,0.33,1.78,0.78,2.52,1.36c0.74,0.58,1.39,1.26,1.96,2.03
		c0.57,0.77,1.1,1.61,1.59,2.52h-17.86c0.37-0.79,0.86-1.57,1.45-2.34C113.05,128,113.72,127.31,114.47,126.7z"/>
	<path class="st2" d="M60.03,109.52c-0.27,0.03-0.54,0.08-0.82,0.1C59.48,109.59,59.75,109.55,60.03,109.52z"/>
	<path class="st2" d="M66.96,107.47c-0.47,0.23-0.94,0.44-1.43,0.64C66.02,107.91,66.49,107.7,66.96,107.47z"/>
	<path class="st2" d="M61.96,109.2c-0.36,0.08-0.72,0.16-1.09,0.22C61.23,109.36,61.59,109.27,61.96,109.2z"/>
	<path class="st2" d="M62.47,109.09c0.43-0.1,0.85-0.23,1.26-0.36C63.32,108.86,62.9,108.99,62.47,109.09z"/>
	<path class="st2" d="M64.03,108.65c0.47-0.15,0.92-0.32,1.37-0.5C64.95,108.33,64.49,108.5,64.03,108.65z"/>
	<path class="st1" d="M113.03,98.52l0.01-0.17c0-5.81-4.73-10.52-10.56-10.52c-2.18,0-4.21,0.66-5.89,1.79
		C100.31,94.78,106.26,98.22,113.03,98.52z"/>
	<path class="st1" d="M94.24,91.79c-0.44,0.55-0.83,1.15-1.15,1.78C93.73,93.17,94.17,92.52,94.24,91.79z"/>
	<path class="st1" d="M101.89,76.92c0.74,0,1.47,0.05,2.19,0.12c0.04-5.75,4.71-10.41,10.47-10.41c4.24,0,7.88,2.52,9.53,6.14
		c0.22,0.49,0.41,0.99,0.55,1.52c0.24,0.87,0.38,1.78,0.39,2.73c0.63,0.39,1.05,1.07,1.05,1.86v15.9c1.7-1.17,3.21-2.57,4.51-4.17
		c2.98-3.67,4.76-8.35,4.76-13.45c0-3.47-0.83-6.75-2.3-9.64c-3.53-6.96-10.75-11.74-19.08-11.74c-8.86,0-16.45,5.38-19.7,13.05
		V52.44c-0.04-0.37,0.75-0.32,0.75-0.32h14.18c1.37,0,2.5-1.02,2.5-2.26v-7.44c0-1.24-1.12-2.26-2.5-2.26H66.99
		c-1.37,0-2.5,1.02-2.5,2.26v7.44c0,1.24,1.12,2.26,2.5,2.26H80.5c0,0,0.6,0.05,0.54,0.32v39.12c0,0.29,0.07,0.57,0.17,0.83
		C83.82,83.45,92.09,76.92,101.89,76.92z"/>
	<path class="st2" d="M115.07,115.38l0.04,1v1.85c0,1.2,0.99,2.19,2.19,2.19h6.58c1.21,0,2.19-0.98,2.19-2.19v-3.19V94.78v-15.9
		c0-0.79-0.42-1.47-1.05-1.86c-0.33-0.21-0.72-0.33-1.14-0.33h-6.58c-1.21,0-2.19,0.98-2.19,2.19v2.49l-0.64-0.41
		c-2.98-2.14-6.54-3.53-10.39-3.92c-0.72-0.07-1.45-0.12-2.19-0.12c-9.81,0-18.07,6.53-20.68,15.47c-0.07,0.23-0.13,0.45-0.19,0.68
		V68.62c0-1.2-0.99-2.19-2.19-2.19h-6.58c-1.21,0-2.19,0.98-2.19,2.19v2.1l-0.43-0.27c-3.46-2.35-7.63-3.73-12.13-3.73
		c-11.9,0-21.54,9.61-21.54,21.48c0,5.42,2.02,10.36,5.33,14.14c1.67,1.9,3.66,3.5,5.89,4.72c2.74,1.49,5.83,2.41,9.12,2.58
		c0.39,0.02,0.79,0.03,1.19,0.03c-0.4,0-0.79-0.04-1.19-0.06v-3.92c0-0.79,0.22-1.43,0.66-1.92c0.44-0.49,1.16-0.73,2.17-0.73h7.9
		c0.54,0,1.13,0.19,1.78,0.56c0.3,0.21,0.53,0.51,0.68,0.91c0.15,0.4,0.23,0.77,0.23,1.12v0.23c-0.88,0.59-1.79,1.12-2.75,1.59
		c0.96-0.47,1.87-1,2.75-1.58c0.1-0.07,0.21-0.13,0.31-0.2c1.14-0.79,0.02,2.3,0.02,2.3s-0.11,0.29-0.33,0.75
		c-1.13,2.39-5.26,9.52-13.42,6.68c-1-0.35-2.07-0.85-3.19-1.52c0,0-2.4-2.47-4.77,0.71l-0.11,0.14l-3.08,3.5
		c0,0-2.22,2.22,0.51,3.84c0,0,2.59,2.42,7.12,3.9c1.07,0.35,2.24,0.64,3.51,0.84c1.12,0.18,2.3,0.29,3.57,0.29
		c7.09,0,15.68-4.18,19.39-12.41c0.9-2,1.52-4.24,1.75-6.72v-4.26c2.38,9.28,10.82,16.15,20.87,16.15c1.13,0,2.25-0.09,3.33-0.26
		C108.9,119.04,112.26,117.55,115.07,115.38z M96.6,89.62c1.68-1.13,3.71-1.79,5.89-1.79c5.83,0,10.56,4.71,10.56,10.52l-0.01,0.17
		c-0.09,5.73-4.77,10.36-10.55,10.36c-5.83,0-10.56-4.71-10.56-10.52c0-1.72,0.42-3.35,1.16-4.78c0.33-0.63,0.71-1.23,1.15-1.78
		C94.91,90.95,95.7,90.22,96.6,89.62z M57.68,98.82c-5.83,0-10.56-4.71-10.56-10.52c0-5.81,4.73-10.52,10.56-10.52
		s10.56,4.71,10.56,10.52C68.24,94.11,63.51,98.82,57.68,98.82z"/>
	<path class="st1" d="M170.56,116.15c-2.3-0.91-4.79-1.41-7.38-1.41c-3.41,0-6.64,0.86-9.51,2.38l-0.24,0.05c0,0,0-0.68,0-1.5
		c0-0.83-1.02-1.5-2.28-1.5h-2.98h-3.84c-1.25,0-2.28,1.02-2.28,2.28v10.14v30.82c0,1.25,1.02,2.28,2.28,2.28h6.83
		c1.25,0,2.28-1.02,2.28-2.28v-20.39l0.01-0.53c0.28-5.79,4.79-10.39,10.32-10.39c1.23,0,2.46,0.14,3.53,0.62
		c1.88,0.86,3.21-0.83,3.21-0.83c0.63-1.63,1.34-3.96,2.06-5.68C173.9,116.95,170.56,116.15,170.56,116.15z"/>
	<path class="st3" d="M59.21,109.62c0.28-0.02,0.55-0.07,0.82-0.1c0.28-0.03,0.56-0.06,0.84-0.1c0.37-0.06,0.73-0.14,1.09-0.22
		c0.17-0.04,0.35-0.06,0.51-0.11c0.43-0.1,0.85-0.23,1.26-0.36c0.1-0.03,0.2-0.05,0.29-0.08c0.47-0.15,0.92-0.32,1.37-0.5l0.13-0.05
		c0.48-0.2,0.96-0.41,1.43-0.64l0.02-0.01c0.95-0.47,1.87-1,2.75-1.59v-0.23c0-0.35-0.08-0.72-0.23-1.12
		c-0.15-0.4-0.38-0.7-0.68-0.91c-0.65-0.37-1.25-0.56-1.78-0.56h-7.9c-1,0-1.72,0.24-2.17,0.73c-0.44,0.49-0.66,1.13-0.66,1.92v3.92
		c0.4,0.02,0.79,0.06,1.19,0.06C58.07,109.69,58.64,109.66,59.21,109.62z"/>
</g>
</svg>
