<svg xmlns="http://www.w3.org/2000/svg" width="200" height="200" viewBox="0 0 200 200">
  <g id="组_1650" data-name="组 1650" transform="translate(-366 -530)">
    <g id="组_1648" data-name="组 1648" transform="translate(366 530)">
      <path id="路径_479" data-name="路径 479" d="M40.625,0h118.75A40.625,40.625,0,0,1,200,40.625v118.75A40.625,40.625,0,0,1,159.375,200H40.625A40.625,40.625,0,0,1,0,159.375V40.625A40.625,40.625,0,0,1,40.625,0Z" fill="#fff"/>
    </g>
    <g id="组_1649" data-name="组 1649" transform="translate(391 568.6)">
      <path id="路径_492" data-name="路径 492" d="M51.268,139l3.171-3.6.115-.145H53.387l-.035-.548V127.5a22.248,22.248,0,0,1-6.067-4.859h-3.7a2.675,2.675,0,0,0-2.715,2.616v9.449l-.022.548H34.567a1.855,1.855,0,0,0-1.85,1.849v8.011a1.856,1.856,0,0,0,1.85,1.85h6.3s0,.9,0,1.039V178.95a2.723,2.723,0,0,0,2.715,2.715h7.056a2.723,2.723,0,0,0,2.715-2.715V148.281c0-.092.035-1.313.035-1.313h5.738a21.3,21.3,0,0,1-7.328-4.015C48.979,141.286,51.268,139,51.268,139Z" transform="translate(-32.717 -58.637)"/>
      <path id="路径_493" data-name="路径 493" d="M199.086,118.948h3.957l16.675-46.9a1.549,1.549,0,0,0-1.558-2.2l-7.713-.01a3.549,3.549,0,0,0-3.121,2.195l-8.173,22.988c-.429,1.208-.888,2-1.018,1.751s-.6-1.433-1.035-2.639l-7.783-21.337a3.537,3.537,0,0,0-1.824-1.87,22,22,0,0,1-2.536,23.772l6.309,17.3c.44,1.206.834,2.27.874,2.365a13.283,13.283,0,0,1-.707,2.371l-2.8,7.884c.249.225.5.448.741.685A23.3,23.3,0,0,1,192.9,129.7a21.28,21.28,0,0,1,1.129,2.1l2.1,0a2.814,2.814,0,0,0,.615-.078V121.29A2.349,2.349,0,0,1,199.086,118.948Z" transform="translate(-78.469 -42.765)" fill="#414141"/>
      <path id="路径_494" data-name="路径 494" d="M175.385,79.13l.569,1.561A10.732,10.732,0,0,0,175.385,79.13Z" transform="translate(-75.592 -45.559)" fill="#414141"/>
      <path id="路径_495" data-name="路径 495" d="M75.645,136.4c8.4,2.918,12.656-4.423,13.815-6.881v-3.179a3.242,3.242,0,0,0-.234-1.151,1.949,1.949,0,0,0-.7-.935,3.766,3.766,0,0,0-1.835-.576H78.559a2.876,2.876,0,0,0-2.23.755,2.833,2.833,0,0,0-.684,1.98v4.059h0Z" transform="translate(-45.618 -58.948)"/>
      <path id="路径_496" data-name="路径 496" d="M79.317,153.526a23.333,23.333,0,0,1-3.672-.3v30.964a2.532,2.532,0,0,0,2.914,2.77H86.69a3.783,3.783,0,0,0,.953-.108,3.271,3.271,0,0,0,.881-.4,1.953,1.953,0,0,0,.7-.935,3.407,3.407,0,0,0,.234-1.223V160.555a7.663,7.663,0,0,1,.774-2.95,8.236,8.236,0,0,1,1.655-2.285,7.243,7.243,0,0,1,2.23-1.475,6.5,6.5,0,0,1,2.537-.522,7.433,7.433,0,0,1,5.217,2.1,7.523,7.523,0,0,1,1.6,2.321,6.982,6.982,0,0,1,.593,2.878v23.781a2.723,2.723,0,0,0,.576,2.033,3.221,3.221,0,0,0,2.123.521h8.311a2.343,2.343,0,0,0,1.888-.7,3.128,3.128,0,0,0,.595-2.07V160.627a30.687,30.687,0,0,0-.953-7.782,19.086,19.086,0,0,0-2.914-6.373,14.117,14.117,0,0,0-4.966-4.305,15.08,15.08,0,0,0-7.105-1.578,17.146,17.146,0,0,0-2.342.162C95.46,149.224,86.613,153.526,79.317,153.526Z" transform="translate(-45.618 -64.029)"/>
      <path id="路径_497" data-name="路径 497" d="M174.836,146.781c-.241-.236-.492-.46-.741-.685a22.869,22.869,0,0,0-3.774-2.769,22.465,22.465,0,0,0-4.54-2v3.278a2.26,2.26,0,0,1-2.258,2.25h-6.771a2.26,2.26,0,0,1-2.257-2.25v-1.9l-.045-1.025a22.109,22.109,0,0,1-10.134,4.351c-.447.406-.885.826-1.3,1.272a23.566,23.566,0,0,0-3.453,4.768,24.322,24.322,0,0,0-2.969,11.692,22.613,22.613,0,0,0,1.943,9.39,23.9,23.9,0,0,0,5.252,7.5,24.468,24.468,0,0,0,17.017,6.781,21.727,21.727,0,0,0,8.384-1.637,24,24,0,0,0,7.123-4.552,4.518,4.518,0,0,0,.935-.917,1.99,1.99,0,0,0,.4-1.241,2.851,2.851,0,0,0-.106-.774,2.415,2.415,0,0,0-.506-.846l-3.814-4.317a7.494,7.494,0,0,0-1.1-.936,1.709,1.709,0,0,0-.952-.323,1.752,1.752,0,0,0-.881.233,7.53,7.53,0,0,0-.991.7,7.737,7.737,0,0,1-1.707,1.241,14.942,14.942,0,0,1-2.34,1.044,19.031,19.031,0,0,1-2.643.719,13.705,13.705,0,0,1-2.664.27,12.918,12.918,0,0,1-3.058-.4,10.162,10.162,0,0,1-3.058-1.314,9.15,9.15,0,0,1-2.536-2.464,8.926,8.926,0,0,1-1.457-3.849h25.9a16.318,16.318,0,0,0,3.436-.271,2.7,2.7,0,0,0,1.672-.971,3.455,3.455,0,0,0,.558-1.889q.053-1.187.053-3.059a19.525,19.525,0,0,0-.808-5.594,21.551,21.551,0,0,0-1.157-3,21.279,21.279,0,0,0-1.129-2.1A23.31,23.31,0,0,0,174.836,146.781Zm-24.574,11.081a13.055,13.055,0,0,1,1.495-2.411,12.877,12.877,0,0,1,2.067-2.122,10.32,10.32,0,0,1,2.466-1.493,6.883,6.883,0,0,1,2.716-.558,10.41,10.41,0,0,1,3.4.5,8.741,8.741,0,0,1,2.59,1.4,11.055,11.055,0,0,1,2.016,2.087,21.236,21.236,0,0,1,1.636,2.591Z" transform="translate(-63.934 -64.251)"/>
      <path id="路径_498" data-name="路径 498" d="M140.993,101.281a10.833,10.833,0,0,0-6.06,1.842,21.978,21.978,0,0,0,16.916,9.161l.008-.171A10.848,10.848,0,0,0,140.993,101.281Z" transform="translate(-63.435 -52.216)"/>
      <path id="路径_499" data-name="路径 499" d="M130.96,107.106a10.869,10.869,0,0,0-1.186,1.833A2.478,2.478,0,0,0,130.96,107.106Z" transform="translate(-61.885 -53.967)"/>
      <path id="路径_500" data-name="路径 500" d="M118.339,70.4a22.176,22.176,0,0,1,7.848-1.43,22.405,22.405,0,0,1,2.253.127A10.781,10.781,0,0,1,150,69.076a2.245,2.245,0,0,1,1.083,1.91V87.355a22.165,22.165,0,0,0,4.641-4.293,22.012,22.012,0,1,0-37.387-22.418V43.776c-.042-.379.775-.334.775-.334h14.6a2.465,2.465,0,0,0,2.573-2.324V33.461a2.467,2.467,0,0,0-2.573-2.325H90.262a2.466,2.466,0,0,0-2.573,2.325v7.656a2.465,2.465,0,0,0,2.573,2.324h13.9s.618.048.557.334V84.037a2.276,2.276,0,0,0,.177.855A22.179,22.179,0,0,1,118.339,70.4Z" transform="translate(-49.237 -31.136)"/>
      <path id="路径_501" data-name="路径 501" d="M127.179,121.209v1.9a2.26,2.26,0,0,0,2.257,2.25h6.771a2.26,2.26,0,0,0,2.258-2.25v-40.5a2.281,2.281,0,0,0-2.258-2.25h-6.771a2.261,2.261,0,0,0-2.257,2.25v2.561l-.663-.418a22.085,22.085,0,0,0-10.7-4.032A22.14,22.14,0,0,0,92.28,96.513c-.068.234-.137.467-.2.7V72.054a2.26,2.26,0,0,0-2.257-2.25H83.053a2.26,2.26,0,0,0-2.257,2.25V74.22l-.438-.274a22.129,22.129,0,1,0-13.714,40.338v-4.059a2.833,2.833,0,0,1,.684-1.98,2.876,2.876,0,0,1,2.23-.755H77.69a3.765,3.765,0,0,1,1.835.576,1.949,1.949,0,0,1,.7.935,3.242,3.242,0,0,1,.234,1.151v.242c.1-.071.215-.133.318-.2,1.172-.81.019,2.368.019,2.368s-.113.3-.336.774c-1.16,2.459-5.415,9.8-13.815,6.881a17.594,17.594,0,0,1-3.285-1.568s-2.475-2.54-4.9.732l-.115.145-3.171,3.6s-2.289,2.283.529,3.951a21.3,21.3,0,0,0,7.328,4.015,23.629,23.629,0,0,0,3.619.867,23.326,23.326,0,0,0,3.672.3c7.3,0,16.142-4.3,19.962-12.776a21.633,21.633,0,0,0,1.8-6.92v-4.38a22.211,22.211,0,0,0,35.051,12.006ZM68.061,103.137A10.831,10.831,0,1,1,78.925,92.306,10.848,10.848,0,0,1,68.061,103.137Zm56.971-.313a10.418,10.418,0,1,1,.008-.171Z" transform="translate(-36.618 -42.757)" fill="#414141"/>
      <path id="路径_502" data-name="路径 502" d="M231.159,142.086a20.552,20.552,0,0,0-7.6-1.451,20.807,20.807,0,0,0-9.79,2.451l-.249.054V141.6c0-.85-1.053-1.544-2.342-1.544H204.15a2.349,2.349,0,0,0-2.342,2.342v42.161a2.349,2.349,0,0,0,2.342,2.342h7.027a2.349,2.349,0,0,0,2.342-2.342V163.564l.015-.548c.285-5.956,4.931-10.693,10.618-10.693a8.787,8.787,0,0,1,3.63.642,2.832,2.832,0,0,0,3.3-.853c.647-1.682,1.377-4.075,2.115-5.85A2.9,2.9,0,0,0,231.159,142.086Z" transform="translate(-83.533 -63.868)"/>
    </g>
  </g>
</svg>
