<svg xmlns="http://www.w3.org/2000/svg" width="20" height="16.955" viewBox="0 0 20 16.955">
  <g id="组_1524" data-name="组 1524" transform="translate(-9.376 -359.476)">
    <path id="路径_397" data-name="路径 397" d="M27.024,361.732H25.259v-.207a2.053,2.053,0,0,0-2.049-2.049H15.437a2.053,2.053,0,0,0-2.049,2.049v.207H11.728a2.357,2.357,0,0,0-2.352,2.352v10a2.357,2.357,0,0,0,2.352,2.352h15.3a2.357,2.357,0,0,0,2.352-2.352v-10A2.357,2.357,0,0,0,27.024,361.732Zm1.283,12.348a1.288,1.288,0,0,1-1.283,1.283h-15.3a1.289,1.289,0,0,1-1.283-1.283v-10a1.289,1.289,0,0,1,1.283-1.283h2.729v-1.276a.985.985,0,0,1,.98-.98H23.21a.985.985,0,0,1,.98.98V362.8h2.834a1.288,1.288,0,0,1,1.283,1.283Z" transform="translate(0 0)" fill="#fff"/>
    <path id="路径_398" data-name="路径 398" d="M32.879,375.021a5.078,5.078,0,1,0,5.078,5.078A5.078,5.078,0,0,0,32.879,375.021Zm2.835,7.913a4.009,4.009,0,1,1,1.174-2.835A3.994,3.994,0,0,1,35.714,382.934Z" transform="translate(-13.503 -11.392)" fill="#fff"/>
    <path id="路径_399" data-name="路径 399" d="M70.02,377.021a.757.757,0,1,0,.757.757A.757.757,0,0,0,70.02,377.021Z" transform="translate(-43.889 -12.858)" fill="#fff"/>
  </g>
</svg>
