<svg xmlns="http://www.w3.org/2000/svg" width="50" height="50" viewBox="0 0 50 50"><g transform="translate(-503 -3636)"><circle cx="25" cy="25" r="25" transform="translate(503 3636)" fill="#fff"/><g transform="translate(-72.529 3275.334)"><path d="M600.529,373.4a10,10,0,0,0-10,10,7.088,7.088,0,0,0,.439,2.3,18.473,18.473,0,0,0,2.221,4.156,48.449,48.449,0,0,0,4.465,5.475c1.356,1.454,2.364,2.4,2.373,2.408a.734.734,0,0,0,1.005,0,60.1,60.1,0,0,0,4.7-5.054,33.414,33.414,0,0,0,3.257-4.612,14.727,14.727,0,0,0,1.1-2.374,7.086,7.086,0,0,0,.439-2.3A10,10,0,0,0,600.529,373.4Zm8.173,11.821a17.079,17.079,0,0,1-2.047,3.81,47.008,47.008,0,0,1-4.326,5.3c-.662.711-1.24,1.3-1.652,1.706l-.149.147a59.447,59.447,0,0,1-4.279-4.691,30.709,30.709,0,0,1-2.977-4.278,12.832,12.832,0,0,1-.939-2.058A5.563,5.563,0,0,1,592,383.4a8.531,8.531,0,1,1,17.061,0A5.649,5.649,0,0,1,608.7,385.216Z" transform="translate(0 0)" fill="#231815"/><path d="M609.284,386.994a4.661,4.661,0,1,0,4.661,4.661A4.661,4.661,0,0,0,609.284,386.994Zm2.291,6.952a3.24,3.24,0,1,1,.949-2.291A3.227,3.227,0,0,1,611.575,393.946Z" transform="translate(-8.754 -8.495)" fill="#231815"/></g></g></svg>