<svg xmlns="http://www.w3.org/2000/svg" width="100" height="100" viewBox="0 0 100 100">
  <g id="closeIcon" transform="translate(-669 -169)">
    <path id="直线_472" data-name="直线 472" d="M94.955,99.5a4.531,4.531,0,0,1-3.214-1.331L.831,7.26A4.545,4.545,0,0,1,7.26.831L98.169,91.74a4.545,4.545,0,0,1-3.214,7.76Z" transform="translate(669.5 169.5)" fill="#1d1d1d"/>
    <path id="直线_473" data-name="直线 473" d="M4.045,99.5A4.545,4.545,0,0,1,.831,91.74L91.74.831A4.545,4.545,0,0,1,98.169,7.26L7.26,98.169A4.531,4.531,0,0,1,4.045,99.5Z" transform="translate(669.5 169.5)" fill="#1d1d1d"/>
  </g>
</svg>
