<svg width="100" height="100" viewBox="0 0 100 100" fill="none" xmlns="http://www.w3.org/2000/svg">
<g clip-path="url(#clip0_1362_6949)">
<path d="M57.4379 50.0066L98.4611 8.9833C100.513 6.93147 100.513 3.60384 98.4611 1.53887C96.4093 -0.512955 93.0817 -0.512955 91.0167 1.53887L50.0066 42.5621L8.9833 1.53887C6.93147 -0.512955 3.60384 -0.512955 1.53887 1.53887C-0.512955 3.59069 -0.512955 6.91832 1.53887 8.9833L42.5621 50.0066L1.53887 91.0167C-0.512955 93.0685 -0.512955 96.3962 1.53887 98.4611C3.59069 100.513 6.91832 100.513 8.9833 98.4611L50.0066 57.4379L91.0167 98.4611C93.0685 100.513 96.3962 100.513 98.4611 98.4611C100.513 96.4093 100.513 93.0817 98.4611 91.0167L57.4379 50.0066Z" fill="black"/>
</g>
<defs>
<clipPath id="clip0_1362_6949">
<rect width="100" height="100" fill="white"/>
</clipPath>
</defs>
</svg>
