<svg xmlns="http://www.w3.org/2000/svg" width="100" height="92.302" viewBox="0 0 100 92.302">
  <path id="commentHoverIcon" d="M245.727,90.622h0a55.307,55.307,0,0,1,34.566,11.706c9.958,7.973,15.44,18.852,15.434,30.632,0,11.062-5.108,21.36-14.4,28.994-9.332,7.679-22.162,11.908-36.127,11.908a78.509,78.509,0,0,1-18.356-2.267l-25.516,11.02a3.865,3.865,0,0,1-5.222-4.7l7.066-22.575a37.75,37.75,0,0,1-7.449-22.38c0-11.747,5.455-22.608,15.372-30.581A55.235,55.235,0,0,1,245.727,90.622Zm-.522,75.51c12.182,0,23.268-3.6,31.215-10.148,7.462-6.151,11.574-14.328,11.578-23.026-.005-9.363-4.459-18.1-12.542-24.6-7.917-6.358-18.746-10-29.709-10h-.039c-11,0-21.844,3.662-29.758,10.045-8.05,6.5-12.487,15.224-12.492,24.563a29.854,29.854,0,0,0,6.967,19.143,3.849,3.849,0,0,1,.726,3.636l-5.145,16.438,18.966-8.192a3.876,3.876,0,0,1,2.494-.2A71.348,71.348,0,0,0,245.205,166.132Z" transform="translate(-195.729 -90.622)" fill="#1d1d1d"/>
</svg>
