<svg xmlns="http://www.w3.org/2000/svg" width="100" height="91.99" viewBox="0 0 100 91.99">
  <path id="commentClickIcon" d="M.858,91.491A1.945,1.945,0,0,1,.3,89.467l7.67-24.506A37.261,37.261,0,0,1,0,42.019C0,30.439,5.411,19.7,15.233,11.787a52.149,52.149,0,0,1,15.92-8.676,58.6,58.6,0,0,1,37.624-.018A52.266,52.266,0,0,1,84.7,11.738C94.567,19.651,100,30.405,100,42.019A34.59,34.59,0,0,1,96.238,57.7,40.077,40.077,0,0,1,85.764,70.611a50.253,50.253,0,0,1-15.973,8.726,63.477,63.477,0,0,1-20.337,3.206,79.935,79.935,0,0,1-19.316-2.464L2.928,91.83a1.942,1.942,0,0,1-2.07-.34Z" fill="#fff"/>
</svg>
