<svg xmlns="http://www.w3.org/2000/svg" width="27" height="27" viewBox="0 0 27 27"><g transform="translate(3733 -1383)"><path d="M831.689,163.962a10.708,10.708,0,0,0-4.449-4.372,13.653,13.653,0,0,0-6.478-1.614,13.275,13.275,0,0,0-8.279,2.81,10.135,10.135,0,0,0-2.654,3.189,8.758,8.758,0,0,0-1,4.074,8.952,8.952,0,0,0,1.833,5.4l-1.75,5.59a.725.725,0,0,0,.979.882l6.266-2.707a18.831,18.831,0,0,0,4.478.563,13.5,13.5,0,0,0,8.641-2.845,8.909,8.909,0,0,0,3.419-6.879A8.758,8.758,0,0,0,831.689,163.962Zm-3.334,9.846a12.053,12.053,0,0,1-7.72,2.515,17.487,17.487,0,0,1-4.362-.576.722.722,0,0,0-.468.036l-5.037,2.176,1.39-4.439a.725.725,0,0,0-.136-.682,7.512,7.512,0,0,1-1.743-4.789,7.308,7.308,0,0,1,.837-3.4,9.269,9.269,0,0,1,3.846-3.773,12.2,12.2,0,0,1,5.8-1.446,11.858,11.858,0,0,1,7.357,2.479,8.685,8.685,0,0,1,2.285,2.729,7.305,7.305,0,0,1,.841,3.415A7.455,7.455,0,0,1,828.355,173.808Z" transform="translate(-4539.828 1227.449)" fill="#fff"/><rect width="27" height="27" transform="translate(-3733 1383)" fill="none"/></g></svg>