<svg xmlns="http://www.w3.org/2000/svg" width="100" height="100" viewBox="0 0 100 100"><path d="M50,2A48.013,48.013,0,0,0,31.317,94.229,48.013,48.013,0,0,0,68.683,5.771,47.7,47.7,0,0,0,50,2m0-2A50,50,0,1,1,0,50,50,50,0,0,1,50,0Z" fill="#fff"/><path d="M10740.6,508.048h0a2.5,2.5,0,0,1-1.768-.732l-13.951-13.951a2.5,2.5,0,1,1,3.535-3.535l12.184,12.184,24.281-24.281a2.5,2.5,0,0,1,3.535,3.536l-26.049,26.048A2.5,2.5,0,0,1,10740.6,508.048Z" transform="translate(-10696.148 -442.524)" fill="#fff"/></svg>