<svg xmlns="http://www.w3.org/2000/svg" width="155" height="155" viewBox="0 0 155 155"><g transform="translate(-292.122 -306.426)"><path d="M75.5-2A78.061,78.061,0,0,1,91.117-.425a77.086,77.086,0,0,1,27.716,11.662,77.72,77.72,0,0,1,28.076,34.1,77.122,77.122,0,0,1,4.517,14.55,78.236,78.236,0,0,1,0,31.234,77.086,77.086,0,0,1-11.662,27.716,77.72,77.72,0,0,1-34.1,28.076,77.122,77.122,0,0,1-14.55,4.517,78.236,78.236,0,0,1-31.234,0,77.086,77.086,0,0,1-27.716-11.662,77.72,77.72,0,0,1-28.076-34.1A77.122,77.122,0,0,1-.425,91.117a78.236,78.236,0,0,1,0-31.234A77.086,77.086,0,0,1,11.237,32.168a77.72,77.72,0,0,1,34.1-28.076A77.122,77.122,0,0,1,59.883-.425,78.061,78.061,0,0,1,75.5-2Zm0,151A73.5,73.5,0,1,0,2,75.5,73.583,73.583,0,0,0,75.5,149Z" transform="translate(294.122 308.426)" fill="#fff"/><path d="M390.729,416.4a2,2,0,0,1-2-2,26.794,26.794,0,0,0-53.588,0,2,2,0,0,1-4,0,30.794,30.794,0,1,1,61.588,0A2,2,0,0,1,390.729,416.4Z" transform="translate(7.687 15.207)" fill="#fff"/><g transform="translate(350.184 346.766)"><path d="M0,33.9a2,2,0,0,1-2-2V0A2,2,0,0,1,0-2,2,2,0,0,1,2,0V31.9A2,2,0,0,1,0,33.9Z" fill="#fff"/><path d="M0,33.9a2,2,0,0,1-2-2V0A2,2,0,0,1,0-2,2,2,0,0,1,2,0V31.9A2,2,0,0,1,0,33.9Z" transform="translate(38.877)" fill="#fff"/></g></g></svg>