<svg xmlns="http://www.w3.org/2000/svg" width="49.508" height="49.508" viewBox="0 0 49.508 49.508">
  <g id="组_384" data-name="组 384" transform="translate(1052 -329)">
    <path id="路径_55" data-name="路径 55" d="M4.951,0H44.557a4.951,4.951,0,0,1,4.951,4.951V44.557a4.951,4.951,0,0,1-4.951,4.951H4.951A4.951,4.951,0,0,1,0,44.557V4.951A4.951,4.951,0,0,1,4.951,0Z" transform="translate(-1052 329)" fill="#fff"/>
    <g id="组_383" data-name="组 383" transform="translate(-1038.471 337.062)">
      <path id="路径_51" data-name="路径 51" d="M189.332,383.114a1.188,1.188,0,0,1,.622,1.2c-.013,1.875,0,3.751-.006,5.625,0,.922-.281,1.192-1.2,1.2-1.307.013-2.616.013-3.923.058a2.055,2.055,0,0,0-2.273,2.225c-.059,1.507-.013,3.018-.013,4.586h.441q2.812,0,5.625,0c.776,0,1.08.294,1.081,1.072q.006,3.2,0,6.394c0,.753-.3,1.04-1.062,1.042q-2.792.005-5.585,0h-.5v.492q0,8.175,0,16.349c0,.934-.265,1.2-1.2,1.2h-6.435c-.837,0-1.116-.273-1.116-1.111q0-8.175,0-16.35v-.578h-.465q-2.348,0-4.695,0c-.795,0-1.1-.3-1.1-1.1q-.008-3.157,0-6.314c0-.789.321-1.1,1.107-1.1h5.155c0-.168,0-.311,0-.454.008-1.7-.046-3.4.039-5.1a9.615,9.615,0,0,1,3.125-7,9.413,9.413,0,0,1,5.258-2.262,2.845,2.845,0,0,0,.341-.086Z" transform="translate(-167.504 -383.114)" fill="#3d6ad6"/>
    </g>
  </g>
</svg>
