<svg xmlns="http://www.w3.org/2000/svg" width="50" height="50" viewBox="0 0 50 50"><path d="M25,1a24.007,24.007,0,0,0-9.342,46.114A24.006,24.006,0,0,0,34.342,2.886,23.849,23.849,0,0,0,25,1m0-1A25,25,0,1,1,0,25,25,25,0,0,1,25,0Z" fill="#fff"/><g transform="translate(20 15)"><path d="M178.038,383.114a.574.574,0,0,1,.3.58c-.006.9,0,1.81,0,2.715,0,.445-.135.575-.581.58-.631.006-1.262.006-1.893.028a.991.991,0,0,0-1.1,1.074c-.028.727-.006,1.457-.006,2.213h2.927c.375,0,.521.142.522.517q0,1.543,0,3.086c0,.364-.145.5-.513.5q-1.347,0-2.7,0h-.243v.238q0,3.945,0,7.89c0,.451-.128.578-.581.578h-3.105c-.4,0-.538-.132-.538-.536q0-3.945,0-7.89v-.279H170.3q-1.133,0-2.265,0c-.383,0-.531-.145-.532-.529q0-1.523,0-3.047c0-.381.155-.53.534-.53h2.488c0-.081,0-.15,0-.219,0-.82-.022-1.642.019-2.46a4.64,4.64,0,0,1,1.508-3.377,4.543,4.543,0,0,1,2.537-1.091,1.362,1.362,0,0,0,.164-.041Z" transform="translate(-167.504 -383.114)" fill="#fff"/></g></svg>