<svg width="200" height="200" viewBox="0 0 200 200" fill="none" xmlns="http://www.w3.org/2000/svg">
<g clip-path="url(#clip0_1350_6887)">
<path d="M19.998 0H180.002C191.049 0 200 8.95071 200 19.998V180.002C200 191.049 191.049 200 180.002 200H19.998C8.95071 200 0 191.049 0 180.002V19.998C0 8.95071 8.95071 0 19.998 0Z" fill="black"/>
<path d="M124.08 72.7748C122.427 69.1461 118.778 66.6262 114.545 66.6262C108.779 66.6262 104.102 71.283 104.062 77.0284C107.912 77.4114 111.481 78.8024 114.444 80.9393L115.089 81.3425V78.8629C115.089 77.6533 116.077 76.6857 117.287 76.6857H123.858C124.282 76.6857 124.665 76.8066 125.008 77.0082C125.008 76.0608 124.866 75.1536 124.625 74.2867L124.08 72.7748Z" fill="url(#paint0_linear_1350_6887)"/>
<path d="M126.076 94.7888V115.049C127.628 115.533 129.1 116.178 130.491 116.984C131.801 117.75 133.031 118.657 134.16 119.665L136.881 112.005C137.305 110.836 137.607 109.787 137.567 109.707C137.526 109.606 137.143 108.578 136.72 107.409L130.592 90.5957C129.301 92.2084 127.769 93.6196 126.076 94.7888Z" fill="url(#paint1_linear_1350_6887)"/>
<path d="M47.1727 114.061L47.213 114.585H48.3419C50.7006 111.4 53.0995 113.88 53.0995 113.88C54.2284 114.565 55.2969 115.049 56.2847 115.412V109.646C52.9987 109.465 49.8942 108.558 47.1525 107.066V114.061H47.1727Z" fill="url(#paint2_linear_1350_6887)"/>
<path d="M179.599 116.037C179.135 114.505 178.329 113.235 177.482 112.327C176.857 111.642 176.232 111.138 175.648 110.755C174.781 110.17 174.035 109.848 173.45 109.626C173.188 109.525 172.966 109.445 172.765 109.384C169.761 108.255 166.515 107.61 163.149 107.61C161.355 107.61 159.581 107.792 157.867 108.134L171.071 71.0009C171.394 70.0736 171.616 69.0455 171.616 67.9367C171.616 66.8279 171.394 65.6587 170.93 64.5499C170.588 63.7234 170.084 62.9372 169.479 62.2518C168.572 61.2237 167.443 60.4576 166.294 59.9939C165.124 59.5101 163.955 59.3287 162.846 59.3287L155.347 59.3085C154.118 59.3085 153.029 59.5303 152.061 59.873C150.59 60.3971 149.36 61.143 148.271 62.151C147.727 62.655 147.223 63.2194 146.759 63.8847C146.296 64.5499 145.893 65.2958 145.59 66.1828L143.453 72.1903L141.518 66.8884C140.954 65.3563 140.107 64.1871 139.2 63.2597C138.958 63.0178 138.736 62.8162 138.474 62.5945C136.156 58.7037 132.93 55.3976 129.1 52.9987C126.036 51.0634 122.548 49.7329 118.819 49.0878V42.4352C118.819 41.0442 118.496 39.6936 117.952 38.5243C117.125 36.7705 115.815 35.3997 114.303 34.4723C112.791 33.545 111.017 33.041 109.183 33.041H66.9892C65.7595 33.041 64.5701 33.2628 63.4613 33.6861C61.8083 34.3312 60.3367 35.3996 59.2077 36.8914C58.6433 37.6373 58.1796 38.484 57.8571 39.4315C57.5345 40.3588 57.3531 41.3869 57.3531 42.4352V49.874C57.3531 51.265 57.6756 52.6157 58.2199 53.7849C59.0465 55.5387 60.3568 56.9096 61.8688 57.8369C63.3807 58.7642 65.1547 59.2682 66.9892 59.2682H73.8837V59.3287H72.2508C70.9808 59.3287 69.7309 59.5908 68.6221 60.0746C67.9367 60.3568 67.3118 60.7197 66.7271 61.1632C63.8242 60.1754 60.7197 59.6311 57.4942 59.6512C53.5632 59.6512 49.7732 60.4576 46.3461 61.9091C41.1854 64.0863 36.831 67.6948 33.7264 72.2709C30.6421 76.8269 28.8076 82.3707 28.8277 88.2774C28.8277 91.7851 29.4728 95.1517 30.6421 98.2764C30.2994 98.6392 29.9768 99.0223 29.6744 99.4456C29.1301 100.212 28.6866 101.079 28.3842 102.006C28.0818 102.933 27.9206 103.941 27.9206 104.969V107.61C27.0537 107.711 26.2272 107.933 25.441 108.255C23.8282 108.941 22.4977 110.049 21.5301 111.481C20.5624 112.892 19.998 114.646 19.998 116.48V124.262C19.998 125.491 20.2601 126.681 20.7036 127.749C21.389 129.362 22.4977 130.692 23.929 131.66C25.0781 132.446 26.4489 132.97 27.9206 133.132V157.141C27.9206 158.472 28.2028 159.782 28.6866 160.951C29.4325 162.705 30.6622 164.177 32.2145 165.225C33.7668 166.274 35.6819 166.898 37.6777 166.898H44.5318C45.8623 166.898 47.1727 166.616 48.3419 166.132C49.6321 165.588 50.761 164.782 51.6883 163.774C52.2326 164.379 52.8777 164.903 53.5228 165.306C54.5308 165.931 55.5589 166.314 56.4862 166.536C57.4337 166.757 58.3006 166.818 59.1069 166.818H67.0094C67.8359 166.818 68.7431 166.737 69.7309 166.475C70.8396 166.173 71.7468 165.749 72.5129 165.266L72.6741 165.165L72.8354 165.044C73.6216 164.5 74.307 163.814 74.8715 163.088C75.4158 162.363 75.819 161.576 76.1214 160.831V160.81C76.4439 159.964 76.6657 159.036 76.7665 158.069C76.8068 158.754 76.9076 159.5 77.1495 160.347C77.3309 160.952 77.5728 161.617 77.976 162.322C78.3792 163.028 78.9235 163.774 79.6492 164.439C80.3346 165.064 81.0402 165.507 81.7055 165.81C82.6933 166.274 83.5601 166.495 84.3463 166.616C85.1326 166.737 85.818 166.778 86.5034 166.778H94.5872C95.6557 166.778 96.8451 166.636 98.1554 166.153C98.8005 165.911 99.4859 165.568 100.111 165.145C100.756 164.701 101.341 164.177 101.865 163.572C102.328 163.028 102.711 162.423 103.014 161.839C103.094 161.677 103.175 161.516 103.236 161.335C105.151 162.685 107.227 163.834 109.445 164.741C113.154 166.274 117.145 167.019 121.197 167.019C124.947 167.019 128.636 166.314 132.063 164.883C133.575 164.258 135.027 163.512 136.418 162.645C137.103 163.673 137.97 164.56 138.978 165.245C140.47 166.253 142.304 166.858 144.24 166.858H151.073C152.364 166.858 153.614 166.596 154.742 166.112C156.436 165.387 157.847 164.217 158.855 162.726C159.863 161.234 160.468 159.399 160.468 157.464V137.123V136.821C160.528 135.692 160.992 134.765 161.597 134.14C161.899 133.837 162.242 133.595 162.584 133.454C162.927 133.313 163.27 133.233 163.653 133.233C163.996 133.233 164.237 133.253 164.338 133.273H164.379C165.608 133.817 166.979 134.099 168.249 134.099C169.56 134.099 170.749 133.817 171.696 133.454C173.128 132.89 174.075 132.184 174.74 131.62C175.406 131.035 175.789 130.571 176.01 130.309L176.676 129.463L177.059 128.455C177.462 127.427 177.805 126.378 178.147 125.411C178.49 124.443 178.813 123.536 179.055 122.951C179.579 121.701 179.921 120.27 179.921 118.758C180.002 117.851 179.861 116.904 179.599 116.037ZM172.543 120.21C171.817 121.923 171.112 124.262 170.487 125.895C170.487 125.895 169.156 127.588 167.282 126.721C166.213 126.237 164.983 126.096 163.754 126.096C158.23 126.096 153.714 130.692 153.432 136.478L153.412 137.002V157.403C153.412 158.653 152.384 159.681 151.134 159.681H144.3C143.05 159.681 142.022 158.653 142.022 157.403V126.6C141.82 126.64 141.619 126.681 141.417 126.681H139.381C139.825 127.628 140.208 128.596 140.51 129.604C141.034 131.358 141.296 133.172 141.296 135.047C141.296 136.256 141.276 137.244 141.236 138.01C141.195 138.776 141.014 139.401 140.691 139.845C140.369 140.308 139.825 140.611 139.059 140.792C138.293 140.974 137.184 141.054 135.712 141.054H110.594C110.836 142.546 111.299 143.796 112.005 144.784C112.71 145.792 113.537 146.578 114.464 147.183C115.392 147.767 116.379 148.211 117.428 148.453C118.476 148.715 119.464 148.836 120.391 148.836C121.238 148.836 122.084 148.755 122.971 148.574C123.858 148.392 124.705 148.171 125.532 147.868C126.358 147.586 127.124 147.243 127.81 146.86C128.495 146.477 129.039 146.074 129.463 145.651C129.846 145.348 130.148 145.126 130.43 144.965C130.692 144.804 130.975 144.743 131.277 144.743C131.579 144.743 131.882 144.844 132.204 145.066C132.527 145.268 132.87 145.57 133.273 145.973L136.982 150.166C137.244 150.469 137.406 150.751 137.466 150.993C137.526 151.235 137.567 151.497 137.567 151.739C137.567 152.202 137.446 152.606 137.184 152.948C136.922 153.291 136.619 153.593 136.277 153.835C134.22 155.73 131.922 157.202 129.362 158.25C126.802 159.319 124.08 159.843 121.218 159.843C118.032 159.843 115.009 159.258 112.166 158.089C109.324 156.92 106.824 155.307 104.687 153.251C102.55 151.194 100.837 148.755 99.5867 145.973C98.3369 143.171 97.6918 140.127 97.6918 136.841C97.6918 134.785 97.9337 132.809 98.4377 130.874C98.9417 128.959 99.6472 127.144 100.575 125.471C101.502 123.798 102.611 122.246 103.921 120.835C104.324 120.411 104.748 119.988 105.191 119.605C104.102 119.766 102.994 119.867 101.865 119.867C91.8053 119.867 83.3585 112.993 80.9999 103.719V107.973C80.7782 110.453 80.1532 112.69 79.2461 114.706C79.9919 114.605 80.7378 114.545 81.524 114.545C84.1851 114.545 86.4832 115.049 88.4185 116.077C90.3538 117.105 91.9665 118.496 93.2366 120.25C94.5066 122.024 95.4541 124.08 96.0589 126.439C96.6838 128.797 96.9862 131.317 96.9862 133.999V156.899C96.9862 157.786 96.7846 158.452 96.4016 158.915C96.0186 159.379 95.4138 159.601 94.5671 159.601H86.4832C85.4753 159.601 84.7898 159.44 84.427 159.097C84.0641 158.754 83.8625 158.109 83.8625 157.121V134.019C83.8625 133.011 83.6609 132.083 83.2779 131.217C82.8949 130.35 82.3707 129.604 81.7256 128.959C81.0805 128.314 80.3145 127.81 79.4275 127.447C78.5606 127.084 77.6333 126.903 76.6455 126.903C75.7988 126.903 74.9924 127.064 74.1861 127.406C73.3797 127.749 72.654 128.213 72.029 128.838C71.3839 129.463 70.8598 130.188 70.4163 131.055C69.9929 131.922 69.7309 132.87 69.6704 133.918V156.98C69.6704 157.383 69.5898 157.766 69.4486 158.17C69.2874 158.573 69.0656 158.875 68.7632 159.077C68.4608 159.258 68.1786 159.399 67.9165 159.46C67.6545 159.52 67.3319 159.561 66.9892 159.561H59.0868C58.0788 159.561 57.3531 159.319 56.9297 158.835C56.4862 158.351 56.2645 157.686 56.2645 156.879V128.455V128.213V126.822C54.9945 126.62 53.8252 126.338 52.7568 125.975H47.1727C47.1727 125.975 47.1323 127.165 47.1323 127.245V157.041C47.1323 158.492 45.943 159.681 44.4915 159.681H37.6373C36.1859 159.681 34.9965 158.492 34.9965 157.041V133.112V126.983V125.975H34.6941H28.8882C27.9004 125.975 27.094 125.169 27.094 124.181V116.4C27.094 115.412 27.9004 114.605 28.8882 114.605H34.9965L35.0166 114.081V104.909C35.0166 103.518 36.206 102.369 37.6575 102.369H41.2458C37.9196 98.5989 35.9036 93.6397 35.9036 88.2371C35.9036 76.3834 45.5398 66.7675 57.4539 66.7675C61.9494 66.7675 66.1224 68.1383 69.5898 70.4969L70.0131 70.759V68.6624C70.0131 67.4529 71.0009 66.4852 72.2105 66.4852H78.7824C79.9919 66.4852 80.9797 67.473 80.9797 68.6624V93.1156C81.0402 92.8938 81.1007 92.6519 81.1813 92.4302C81.0805 92.1681 80.9999 91.8859 80.9999 91.6037V52.4947C81.0604 52.2125 80.4556 52.1721 80.4556 52.1721H66.9489C65.5781 52.1721 64.4492 51.1642 64.4492 49.9143V42.4755C64.4492 41.2257 65.5781 40.2177 66.9489 40.2177H109.162C110.533 40.2177 111.662 41.2257 111.662 42.4755V49.9143C111.662 51.1642 110.533 52.1721 109.162 52.1721H94.9703C94.9703 52.1721 94.1841 52.1318 94.2244 52.4947V68.8842C97.47 61.2035 105.07 55.821 113.92 55.821C122.266 55.821 129.483 60.5987 133.011 67.5537C133.817 67.9367 134.503 68.6019 134.785 69.368L142.345 90.0917C142.768 91.2609 143.232 92.41 143.352 92.6519C143.473 92.8938 143.917 92.1278 144.34 90.9586L152.283 68.6221C152.706 67.4529 154.057 66.4852 155.307 66.4852L162.806 66.5054C164.056 66.5054 164.741 67.473 164.318 68.6423L148.11 114.202H151.094C152.344 114.202 153.372 114.888 153.372 115.694C153.372 116.52 153.372 117.186 153.372 117.186L153.614 117.125C156.476 115.593 159.722 114.746 163.129 114.746C165.729 114.746 168.209 115.25 170.507 116.158C170.567 116.158 173.894 116.964 172.543 120.21Z" fill="url(#paint3_linear_1350_6887)"/>
<path d="M128.858 131.116C128.374 130.209 127.83 129.362 127.265 128.596C126.701 127.83 126.036 127.144 125.31 126.56C124.584 125.975 123.737 125.532 122.79 125.189C121.843 124.866 120.754 124.705 119.484 124.705C118.577 124.705 117.69 124.887 116.843 125.249C115.996 125.612 115.19 126.096 114.444 126.701C113.698 127.306 113.033 127.991 112.428 128.757C111.844 129.523 111.34 130.309 110.977 131.096H128.858V131.116Z" fill="url(#paint4_linear_1350_6887)"/>
<path d="M69.7309 108.719C69.9526 108.255 70.0534 107.973 70.0534 107.973C70.0534 107.973 71.1824 104.889 70.0333 105.675C69.9325 105.735 69.8317 105.796 69.7309 105.877V108.719Z" fill="url(#paint5_linear_1350_6887)"/>
<path d="M57.6756 77.7744C51.8496 77.7744 47.1122 82.4917 47.1122 88.2975C47.1122 94.1034 51.8294 98.8207 57.6756 98.8207C63.5218 98.8207 68.2391 94.1034 68.2391 88.2975C68.2391 82.4917 63.5017 77.7744 57.6756 77.7744ZM60.8406 89.6079C60.5987 90.2127 60.1552 90.7368 59.5908 91.0997C59.0465 91.4625 58.4215 91.6843 57.6756 91.6843C57.1717 91.6843 56.7483 91.5835 56.3451 91.4222C55.7403 91.1602 55.196 90.7167 54.8332 90.1724C54.4703 89.6281 54.2687 89.0233 54.2687 88.2975C54.2687 87.8137 54.3695 87.3904 54.5308 86.9872C54.7727 86.3824 55.2162 85.8583 55.7807 85.4954C56.325 85.1325 56.9499 84.9108 57.6958 84.9108C58.1998 84.9108 58.6231 85.0116 59.0263 85.1729C59.6311 85.4349 60.1754 85.8784 60.5382 86.4227C60.9011 86.967 61.1027 87.5718 61.1027 88.2975C61.1027 88.7814 61.0019 89.2047 60.8406 89.6079Z" fill="url(#paint6_linear_1350_6887)"/>
<path d="M94.2445 91.7851C94.1639 92.531 93.7405 93.1761 93.0954 93.5591C92.3496 94.9904 91.9262 96.6233 91.9262 98.3369C91.9262 104.143 96.6435 108.86 102.49 108.86C108.255 108.86 112.952 104.244 113.033 98.4981C106.259 98.1958 100.312 94.7687 96.6032 89.6079C95.696 90.2127 94.9098 90.9586 94.2445 91.7851Z" fill="url(#paint7_linear_1350_6887)"/>
<path d="M45.1568 118.234L48.2411 114.746L48.3621 114.605H47.2332L47.1928 114.081V107.086C44.9552 105.876 42.9594 104.264 41.3063 102.369H37.718C36.2665 102.369 35.0771 103.518 35.0771 104.909V114.081L35.057 114.605H28.9487C27.9609 114.605 27.1545 115.412 27.1545 116.4V124.181C27.1545 125.169 27.9609 125.975 28.9487 125.975H34.7546H35.057V126.983V133.112V157.041C35.057 158.492 36.2464 159.681 37.6978 159.681H44.552C46.0034 159.681 47.1928 158.492 47.1928 157.041V127.265C47.1928 127.185 47.2332 125.995 47.2332 125.995H52.8173C48.2814 124.504 45.7011 122.084 45.7011 122.084C42.9392 120.452 45.1568 118.234 45.1568 118.234Z" fill="#040000"/>
<path d="M124.645 74.2868C124.504 73.7627 124.322 73.2587 124.1 72.7749L124.645 74.2868Z" fill="white"/>
<path d="M142.042 116.46C142.042 115.21 143.07 114.182 144.32 114.182H148.171L164.379 68.6221C164.802 67.4529 164.117 66.4852 162.867 66.4852L155.367 66.4651C154.118 66.4651 152.747 67.4327 152.344 68.602L144.381 90.9183C143.957 92.0875 143.514 92.8536 143.393 92.6116C143.272 92.3697 142.808 91.2207 142.385 90.0514L134.825 69.3277C134.543 68.5616 133.857 67.8762 133.051 67.5134C134.523 70.4163 135.349 73.6821 135.349 77.1495C135.349 82.2498 133.555 86.9267 130.592 90.5957L136.72 107.409C137.143 108.578 137.526 109.606 137.567 109.707C137.607 109.807 137.305 110.836 136.881 112.005L134.16 119.665C134.402 119.887 134.644 120.109 134.886 120.331C136.216 121.641 137.365 123.072 138.313 124.604C138.716 125.27 139.079 125.955 139.401 126.64H141.437C141.639 126.64 141.841 126.6 142.042 126.56V116.46V116.46Z" fill="white"/>
<path d="M56.3048 115.412C64.4693 118.254 68.602 111.118 69.7309 108.719V105.856C68.864 106.441 67.9367 106.965 66.9892 107.449H66.9691C66.5054 107.671 66.0216 107.892 65.5377 108.094L65.4168 108.134C64.9733 108.316 64.5096 108.477 64.046 108.638C63.9452 108.678 63.8444 108.699 63.7637 108.719C63.3404 108.84 62.9372 108.961 62.4937 109.082C62.3324 109.122 62.151 109.142 61.9696 109.182C61.6067 109.263 61.2438 109.344 60.881 109.404C60.5987 109.445 60.3165 109.465 60.0343 109.505C59.752 109.545 59.49 109.586 59.2077 109.606C58.6433 109.646 58.0788 109.666 57.4942 109.666C57.091 109.666 56.6878 109.646 56.3048 109.626V115.412Z" fill="#040000"/>
<path d="M59.873 127.104C58.603 127.104 57.4136 126.983 56.3048 126.822V128.213V128.455V156.899C56.3048 157.706 56.5266 158.371 56.9701 158.855C57.4136 159.339 58.1393 159.581 59.1271 159.581H67.0295C67.3722 159.581 67.6948 159.54 67.9569 159.48C68.2189 159.419 68.5012 159.278 68.8036 159.097C69.1059 158.895 69.3277 158.593 69.489 158.19C69.6502 157.786 69.7107 157.403 69.7107 157V133.938C69.7712 132.89 70.0333 131.942 70.4566 131.075C70.88 130.209 71.4243 129.483 72.0693 128.858C72.7144 128.233 73.4402 127.769 74.2264 127.427C75.0328 127.084 75.8593 126.923 76.6858 126.923C77.6736 126.923 78.5808 127.104 79.4678 127.467C80.3346 127.83 81.1007 128.334 81.766 128.979C82.4111 129.624 82.9352 130.37 83.3182 131.237C83.7012 132.103 83.9028 133.031 83.9028 134.039V157.141C83.9028 158.129 84.0843 158.774 84.4673 159.117C84.8503 159.46 85.5357 159.621 86.5235 159.621H94.6074C95.4541 159.621 96.0589 159.399 96.4419 158.935C96.8249 158.472 97.0265 157.807 97.0265 156.92V134.019C97.0265 131.337 96.7241 128.818 96.0992 126.459C95.4742 124.1 94.5469 122.024 93.2769 120.27C92.0069 118.496 90.3941 117.105 88.4588 116.097C86.5235 115.089 84.2052 114.565 81.5644 114.565C80.7781 114.565 80.0323 114.625 79.2864 114.726C75.5569 122.931 66.9691 127.104 59.873 127.104Z" fill="#040000"/>
<path d="M138.313 124.625C137.365 123.072 136.216 121.641 134.886 120.351C134.644 120.129 134.402 119.907 134.16 119.686C133.031 118.657 131.801 117.77 130.491 117.004C129.1 116.198 127.628 115.553 126.076 115.069V118.254C126.076 119.464 125.088 120.431 123.879 120.431H117.307C116.097 120.431 115.109 119.444 115.109 118.254V116.4L115.069 115.412C112.267 117.589 108.9 119.061 105.231 119.645C104.788 120.048 104.364 120.452 103.961 120.875C102.651 122.286 101.522 123.838 100.615 125.512C99.6875 127.185 98.9819 128.999 98.4779 130.914C97.974 132.829 97.7321 134.825 97.7321 136.881C97.7321 140.167 98.357 143.211 99.627 146.014C100.877 148.816 102.59 151.235 104.727 153.291C106.864 155.347 109.364 156.96 112.206 158.129C115.049 159.299 118.073 159.883 121.258 159.883C124.121 159.883 126.842 159.359 129.402 158.291C131.962 157.222 134.281 155.75 136.317 153.876C136.66 153.614 136.962 153.331 137.224 152.989C137.486 152.646 137.607 152.243 137.607 151.779C137.607 151.517 137.567 151.275 137.506 151.033C137.426 150.791 137.264 150.509 137.022 150.207L133.313 146.014C132.91 145.61 132.567 145.308 132.245 145.106C131.922 144.905 131.62 144.784 131.317 144.784C131.015 144.784 130.733 144.864 130.471 145.006C130.209 145.167 129.886 145.389 129.503 145.691C129.08 146.114 128.535 146.518 127.85 146.901C127.165 147.284 126.399 147.626 125.572 147.909C124.745 148.191 123.899 148.433 123.012 148.614C122.125 148.796 121.258 148.876 120.431 148.876C119.504 148.876 118.516 148.755 117.468 148.493C116.42 148.231 115.432 147.808 114.505 147.223C113.577 146.638 112.751 145.832 112.045 144.824C111.34 143.816 110.856 142.566 110.634 141.095H135.793C137.264 141.095 138.373 141.014 139.139 140.833C139.905 140.651 140.429 140.349 140.772 139.885C141.095 139.421 141.276 138.817 141.316 138.051C141.357 137.285 141.377 136.297 141.377 135.087C141.377 133.233 141.115 131.418 140.591 129.644C140.288 128.636 139.905 127.669 139.462 126.721C139.079 125.975 138.716 125.29 138.313 124.625ZM114.464 126.701C115.21 126.096 116.017 125.612 116.863 125.25C117.71 124.887 118.597 124.705 119.504 124.705C120.754 124.705 121.863 124.866 122.81 125.189C123.758 125.512 124.584 125.975 125.33 126.56C126.056 127.144 126.721 127.81 127.286 128.596C127.85 129.362 128.394 130.209 128.878 131.116H111.017C111.4 130.33 111.884 129.543 112.468 128.777C113.053 127.991 113.718 127.306 114.464 126.701Z" fill="#040000"/>
<path d="M60.0141 109.525C59.7319 109.565 59.4698 109.606 59.1876 109.626C59.4698 109.606 59.752 109.545 60.0141 109.525Z" fill="white"/>
<path d="M66.9489 107.469C66.4852 107.691 66.0014 107.912 65.5176 108.114C66.0216 107.912 66.4852 107.691 66.9489 107.469Z" fill="white"/>
<path d="M61.9494 109.203C61.5865 109.283 61.2236 109.364 60.8608 109.424C61.2236 109.364 61.5865 109.283 61.9494 109.203Z" fill="white"/>
<path d="M62.4735 109.102C62.8969 109.001 63.3202 108.88 63.7435 108.739C63.3202 108.86 62.8969 108.981 62.4735 109.102Z" fill="white"/>
<path d="M64.0258 108.658C64.4895 108.517 64.9531 108.336 65.3966 108.154C64.9531 108.336 64.4895 108.497 64.0258 108.658Z" fill="white"/>
<path d="M113.033 98.5184V98.3571C113.033 92.5513 108.316 87.834 102.47 87.834C100.292 87.834 98.2562 88.4992 96.583 89.6282C100.312 94.7889 106.259 98.2362 113.033 98.5184Z" fill="#040000"/>
<path d="M94.2445 91.7852C93.801 92.3295 93.418 92.9342 93.0955 93.5592C93.7406 93.1761 94.1639 92.531 94.2445 91.7852Z" fill="#040000"/>
<path d="M101.885 76.9277C102.631 76.9277 103.356 76.968 104.082 77.0486C104.123 71.3032 108.799 66.6465 114.565 66.6465C118.798 66.6465 122.447 69.1664 124.1 72.795C124.322 73.2789 124.504 73.7828 124.645 74.307C124.887 75.1738 125.028 76.081 125.028 77.0285C125.653 77.4115 126.076 78.0969 126.076 78.8831V94.7888C127.769 93.6195 129.281 92.2084 130.592 90.6158C133.575 86.9468 135.349 82.2699 135.349 77.1696C135.349 73.7022 134.523 70.4162 133.051 67.5335C129.523 60.5785 122.306 55.8008 113.96 55.8008C105.11 55.8008 97.5103 61.1833 94.2647 68.864V52.4745C94.2243 52.1116 95.0106 52.152 95.0106 52.152H109.203C110.574 52.152 111.702 51.144 111.702 49.8941V42.4553C111.702 41.2055 110.574 40.1975 109.203 40.1975H66.9892C65.6184 40.1975 64.4894 41.2055 64.4894 42.4553V49.8941C64.4894 51.144 65.6184 52.152 66.9892 52.152H80.4959C80.4959 52.152 81.1007 52.1923 81.0402 52.4745V91.5835C81.0402 91.8858 81.1007 92.1479 81.2216 92.41C83.8222 83.4593 92.0875 76.9277 101.885 76.9277Z" fill="#040000"/>
<path d="M115.069 115.392L115.109 116.379V118.234C115.109 119.444 116.097 120.411 117.307 120.411H123.879C125.088 120.411 126.076 119.423 126.076 118.234V115.049V94.7887V78.8831C126.076 78.0969 125.653 77.4115 125.028 77.0284C124.685 76.8268 124.302 76.7059 123.879 76.7059H117.307C116.097 76.7059 115.109 77.6937 115.109 78.8831V81.3627L114.464 80.9595C111.481 78.8226 107.933 77.4316 104.082 77.0486C103.357 76.968 102.631 76.9276 101.885 76.9276C92.0875 76.9276 83.8021 83.4592 81.2015 92.3898C81.141 92.6115 81.0604 92.8535 80.9999 93.0752V68.622C80.9999 67.4125 80.0121 66.4448 78.8026 66.4448H72.2307C71.0211 66.4448 70.0333 67.4326 70.0333 68.622V70.7186L69.6099 70.4565C66.1627 68.0979 61.9696 66.7271 57.4741 66.7271C45.5801 66.7271 35.9238 76.343 35.9238 88.1967C35.9238 93.6195 37.9398 98.5585 41.266 102.328C42.9392 104.223 44.9149 105.836 47.1525 107.046C49.8942 108.537 52.9786 109.445 56.2847 109.626C56.6879 109.646 57.0709 109.666 57.4741 109.666C57.0709 109.666 56.6879 109.626 56.2847 109.606V105.695C56.2847 104.909 56.5064 104.264 56.9499 103.78C57.3934 103.296 58.1192 103.054 59.107 103.054H67.0094C67.5537 103.054 68.1383 103.235 68.7834 103.619C69.0858 103.82 69.3076 104.122 69.4688 104.526C69.6301 104.929 69.6906 105.292 69.6906 105.655V105.896C68.8237 106.481 67.8964 107.005 66.9489 107.489C67.8964 107.025 68.8237 106.481 69.6906 105.896C69.7914 105.836 69.8922 105.776 69.993 105.695C71.1219 104.909 70.0131 107.993 70.0131 107.993C70.0131 107.993 69.9123 108.275 69.6906 108.739C68.5617 111.118 64.429 118.254 56.2645 115.432C55.2566 115.089 54.2083 114.585 53.0794 113.9C53.0794 113.9 50.6804 111.44 48.3218 114.605L48.2008 114.746L45.1164 118.234C45.1164 118.234 42.8989 120.451 45.6204 122.064C45.6204 122.064 48.221 124.483 52.7367 125.975C53.8051 126.318 54.9743 126.62 56.2444 126.822C57.3531 127.003 58.5425 127.104 59.8126 127.104C66.9086 127.104 75.4965 122.931 79.2058 114.686C80.1129 112.69 80.7177 110.452 80.9596 107.953V103.699C83.3384 112.993 91.7851 119.847 101.824 119.847C102.953 119.847 104.062 119.746 105.151 119.585C108.9 119.04 112.267 117.549 115.069 115.392ZM96.6032 89.628C98.2764 88.4991 100.313 87.8338 102.49 87.8338C108.316 87.8338 113.053 92.5511 113.053 98.3569V98.5182C112.973 104.243 108.275 108.88 102.51 108.88C96.6838 108.88 91.9464 104.163 91.9464 98.3569C91.9464 96.6232 92.3698 95.0105 93.1156 93.5792C93.4382 92.9542 93.8212 92.3495 94.2647 91.8052C94.9098 90.9585 95.696 90.2126 96.6032 89.628ZM57.6757 98.8206C51.8496 98.8206 47.1122 94.1033 47.1122 88.2975C47.1122 82.4916 51.8295 77.7743 57.6757 77.7743C63.5219 77.7743 68.2391 82.4916 68.2391 88.2975C68.2391 94.1033 63.5017 98.8206 57.6757 98.8206Z" fill="white"/>
<path d="M170.567 116.158C168.269 115.25 165.79 114.746 163.189 114.746C159.782 114.746 156.537 115.613 153.674 117.125L153.432 117.186C153.432 117.186 153.432 116.5 153.432 115.694C153.432 114.867 152.404 114.202 151.154 114.202H148.171H144.32C143.07 114.202 142.042 115.23 142.042 116.48V126.62V157.444C142.042 158.694 143.07 159.722 144.32 159.722H151.154C152.404 159.722 153.432 158.694 153.432 157.444V137.022L153.452 136.498C153.734 130.713 158.25 126.116 163.774 126.116C165.004 126.116 166.233 126.257 167.302 126.741C169.176 127.608 170.507 125.915 170.507 125.915C171.132 124.282 171.837 121.963 172.563 120.23C173.894 116.964 170.567 116.158 170.567 116.158Z" fill="#040000"/>
<path d="M59.2077 109.626C59.49 109.606 59.752 109.566 60.0343 109.525C60.3165 109.485 60.5987 109.465 60.8809 109.424C61.2438 109.364 61.6067 109.283 61.9695 109.203C62.1308 109.162 62.3122 109.142 62.4937 109.102C62.917 109.001 63.3404 108.88 63.7637 108.739C63.8645 108.719 63.9653 108.679 64.0459 108.658C64.5096 108.517 64.9733 108.336 65.4168 108.154L65.5377 108.114C66.0216 107.912 66.5054 107.711 66.969 107.469H66.9892C67.9367 107.005 68.864 106.461 69.7309 105.876V105.634C69.7309 105.292 69.6502 104.909 69.5091 104.506C69.3478 104.102 69.1261 103.8 68.8237 103.598C68.1786 103.236 67.5738 103.034 67.0497 103.034H59.1472C58.1393 103.034 57.4136 103.276 56.9902 103.76C56.5467 104.243 56.325 104.889 56.325 105.675V109.586C56.7281 109.606 57.1112 109.646 57.5143 109.646C58.0788 109.686 58.6433 109.666 59.2077 109.626Z" fill="#787878"/>
</g>
<defs>
<linearGradient id="paint0_linear_1350_6887" x1="53.1408" y1="38.7203" x2="186.316" y2="115.609" gradientUnits="userSpaceOnUse">
<stop stop-color="#E50012"/>
<stop offset="0.0602" stop-color="#E50012"/>
<stop offset="0.1797" stop-color="#F19500"/>
<stop offset="0.325" stop-color="#FFF000"/>
<stop offset="0.5168" stop-color="#009844"/>
<stop offset="0.6705" stop-color="#009FE8"/>
<stop offset="0.8134" stop-color="#0068B6"/>
<stop offset="0.9465" stop-color="#8F0882"/>
<stop offset="1" stop-color="#8F0882"/>
</linearGradient>
<linearGradient id="paint1_linear_1350_6887" x1="44.0894" y1="54.3276" x2="177.264" y2="131.216" gradientUnits="userSpaceOnUse">
<stop stop-color="#E50012"/>
<stop offset="0.0602" stop-color="#E50012"/>
<stop offset="0.1797" stop-color="#F19500"/>
<stop offset="0.325" stop-color="#FFF000"/>
<stop offset="0.5168" stop-color="#009844"/>
<stop offset="0.6705" stop-color="#009FE8"/>
<stop offset="0.8134" stop-color="#0068B6"/>
<stop offset="0.9465" stop-color="#8F0882"/>
<stop offset="1" stop-color="#8F0882"/>
</linearGradient>
<linearGradient id="paint2_linear_1350_6887" x1="20.9309" y1="94.4602" x2="154.106" y2="171.349" gradientUnits="userSpaceOnUse">
<stop stop-color="#E50012"/>
<stop offset="0.0602" stop-color="#E50012"/>
<stop offset="0.1797" stop-color="#F19500"/>
<stop offset="0.325" stop-color="#FFF000"/>
<stop offset="0.5168" stop-color="#009844"/>
<stop offset="0.6705" stop-color="#009FE8"/>
<stop offset="0.8134" stop-color="#0068B6"/>
<stop offset="0.9465" stop-color="#8F0882"/>
<stop offset="1" stop-color="#8F0882"/>
</linearGradient>
<linearGradient id="paint3_linear_1350_6887" x1="32.6286" y1="74.2219" x2="165.804" y2="151.111" gradientUnits="userSpaceOnUse">
<stop stop-color="#E50012"/>
<stop offset="0.0602" stop-color="#E50012"/>
<stop offset="0.1797" stop-color="#F19500"/>
<stop offset="0.325" stop-color="#FFF000"/>
<stop offset="0.5168" stop-color="#009844"/>
<stop offset="0.6705" stop-color="#009FE8"/>
<stop offset="0.8134" stop-color="#0068B6"/>
<stop offset="0.9465" stop-color="#8F0882"/>
<stop offset="1" stop-color="#8F0882"/>
</linearGradient>
<linearGradient id="paint4_linear_1350_6887" x1="30.3007" y1="78.2351" x2="163.476" y2="155.124" gradientUnits="userSpaceOnUse">
<stop stop-color="#E50012"/>
<stop offset="0.0602" stop-color="#E50012"/>
<stop offset="0.1797" stop-color="#F19500"/>
<stop offset="0.325" stop-color="#FFF000"/>
<stop offset="0.5168" stop-color="#009844"/>
<stop offset="0.6705" stop-color="#009FE8"/>
<stop offset="0.8134" stop-color="#0068B6"/>
<stop offset="0.9465" stop-color="#8F0882"/>
<stop offset="1" stop-color="#8F0882"/>
</linearGradient>
<linearGradient id="paint5_linear_1350_6887" x1="27.6493" y1="82.7959" x2="160.825" y2="159.685" gradientUnits="userSpaceOnUse">
<stop stop-color="#E50012"/>
<stop offset="0.0602" stop-color="#E50012"/>
<stop offset="0.1797" stop-color="#F19500"/>
<stop offset="0.325" stop-color="#FFF000"/>
<stop offset="0.5168" stop-color="#009844"/>
<stop offset="0.6705" stop-color="#009FE8"/>
<stop offset="0.8134" stop-color="#0068B6"/>
<stop offset="0.9465" stop-color="#8F0882"/>
<stop offset="1" stop-color="#8F0882"/>
</linearGradient>
<linearGradient id="paint6_linear_1350_6887" x1="32.761" y1="74.034" x2="165.936" y2="150.923" gradientUnits="userSpaceOnUse">
<stop stop-color="#E50012"/>
<stop offset="0.0602" stop-color="#E50012"/>
<stop offset="0.1797" stop-color="#F19500"/>
<stop offset="0.325" stop-color="#FFF000"/>
<stop offset="0.5168" stop-color="#009844"/>
<stop offset="0.6705" stop-color="#009FE8"/>
<stop offset="0.8134" stop-color="#0068B6"/>
<stop offset="0.9465" stop-color="#8F0882"/>
<stop offset="1" stop-color="#8F0882"/>
</linearGradient>
<linearGradient id="paint7_linear_1350_6887" x1="38.2661" y1="64.5053" x2="171.441" y2="141.394" gradientUnits="userSpaceOnUse">
<stop stop-color="#E50012"/>
<stop offset="0.0602" stop-color="#E50012"/>
<stop offset="0.1797" stop-color="#F19500"/>
<stop offset="0.325" stop-color="#FFF000"/>
<stop offset="0.5168" stop-color="#009844"/>
<stop offset="0.6705" stop-color="#009FE8"/>
<stop offset="0.8134" stop-color="#0068B6"/>
<stop offset="0.9465" stop-color="#8F0882"/>
<stop offset="1" stop-color="#8F0882"/>
</linearGradient>
<clipPath id="clip0_1350_6887">
<rect width="200" height="200" fill="white"/>
</clipPath>
</defs>
</svg>
