<svg xmlns="http://www.w3.org/2000/svg" width="100" height="100" viewBox="0 0 100 100">
  <g id="组_376" data-name="组 376" transform="translate(1326 -101)">
    <rect id="矩形_611" data-name="矩形 611" width="100" height="100" rx="10" transform="translate(-1326 101)" fill="#fff"/>
    <g id="组_374" data-name="组 374" transform="translate(-1597.031 -319.295)">
      <g id="组_375" data-name="组 375" transform="translate(292.499 430.295)">
        <path id="路径_1" data-name="路径 1" d="M346.541,446.285a3.033,3.033,0,0,0,3.022-3.022v-9.949a3.031,3.031,0,0,0-3.022-3.02H295.52a3.031,3.031,0,0,0-3.022,3.02v9.949a3.033,3.033,0,0,0,3.022,3.022h16.326s.726.061.653.432v60.308a3.28,3.28,0,0,0,3.27,3.27h9.451a3.281,3.281,0,0,0,3.27-3.27V446.717c-.051-.491.908-.432.908-.432" transform="translate(-292.498 -430.294)" fill="#826fff"/>
      </g>
    </g>
  </g>
</svg>
