<svg xmlns="http://www.w3.org/2000/svg" width="50" height="50" viewBox="0 0 50 50"><g transform="translate(-503 -3636)"><circle cx="25" cy="25" r="25" transform="translate(503 3636)" fill="#fff"/><path d="M752.931,382.708h-4.657l1.061-5.316a.7.7,0,0,0-1.38-.275l-1.115,5.591h-4.905l1.06-5.316a.7.7,0,1,0-1.38-.275l-1.116,5.591h-4.922a.7.7,0,1,0,0,1.407h4.642l-.956,4.791h-4.925a.7.7,0,1,0,0,1.407h4.644l-1.058,5.3a.7.7,0,1,0,1.38.275l1.113-5.576h4.905l-1.058,5.3a.7.7,0,0,0,1.38.275l1.113-5.576h4.934a.7.7,0,0,0,0-1.407h-4.654l.956-4.791h4.937a.7.7,0,1,0,0-1.407Zm-7.328,6.2H740.7l.956-4.791h4.905Z" transform="translate(-215.635 3274.497)" fill="#231815"/></g></svg>