<svg xmlns="http://www.w3.org/2000/svg" width="20" height="20" viewBox="0 0 20 20"><g transform="translate(-382 -492)"><circle cx="10" cy="10" r="10" transform="translate(382 492)" fill="#1d1d1d" opacity="0.6"/><g transform="translate(209 280.923)"><path d="M384.331,758.757a.306.306,0,0,0-.216-.089h-7.589a.305.305,0,0,0-.305.305v2.342h-1.5a.3.3,0,0,0-.305.305v7.589a.3.3,0,0,0,.305.305h7.589a.3.3,0,0,0,.3-.305v-2.341h1.5a.305.305,0,0,0,.305-.305v-7.589A.306.306,0,0,0,384.331,758.757Zm-9.3,10.146v-6.979h6.979v4.637h0V768.9Zm8.78-2.646h-1.191V761.62a.305.305,0,0,0-.305-.305h-5.483v-2.037h6.979Z" transform="translate(-196.42 -543.014)" fill="#f5f5f5"/></g></g></svg>