<svg xmlns="http://www.w3.org/2000/svg" width="49.509" height="49.508" viewBox="0 0 49.509 49.508">
  <g id="组_387" data-name="组 387" transform="translate(1030.004 -16)">
    <g id="组_367" data-name="组 367" transform="translate(-1030.004 16)">
      <path id="路径_37" data-name="路径 37" d="M369.26,307.652h-24.8a12.388,12.388,0,0,0-12.356,12.356v24.8a12.388,12.388,0,0,0,12.356,12.356h24.8A12.388,12.388,0,0,0,381.617,344.8v-24.8A12.388,12.388,0,0,0,369.26,307.652Zm9.657,37.152a9.689,9.689,0,0,1-9.657,9.657h-24.8a9.689,9.689,0,0,1-9.656-9.657v-24.8a9.689,9.689,0,0,1,9.656-9.657h24.8a9.689,9.689,0,0,1,9.657,9.657Z" transform="translate(-332.108 -307.652)" fill="#fff"/>
      <path id="路径_38" data-name="路径 38" d="M362.16,324.022a13.756,13.756,0,1,0,13.757,13.756A13.757,13.757,0,0,0,362.16,324.022Zm7.819,21.575a11.056,11.056,0,1,1,3.239-7.818A11.018,11.018,0,0,1,369.979,345.6Z" transform="translate(-337.406 -312.975)" fill="#fff"/>
      <path id="路径_39" data-name="路径 39" d="M388.555,316.554a4.067,4.067,0,1,0,4.066,4.067A4.067,4.067,0,0,0,388.555,316.554Zm.966,5.034a1.369,1.369,0,1,1,.4-.967A1.358,1.358,0,0,1,389.521,321.588Z" transform="translate(-349.139 -310.546)" fill="#fff"/>
    </g>
  </g>
</svg>
