<svg xmlns="http://www.w3.org/2000/svg" width="100" height="92.31" viewBox="0 0 100 92.31">
  <g id="likeIcon" transform="translate(-1063.75 -722.233)">
    <path id="联合_5" data-name="联合 5" d="M19429.023,1857.418c-3.113-3.09-6.189-6.1-9.168-9.006-5.871-5.735-11.416-11.157-16.363-16.355-8.768-9.216-14.184-16.242-17.578-22.774a33.185,33.185,0,0,1-4.164-15.386,29.205,29.205,0,0,1,1.906-10.607,24.518,24.518,0,0,1,6.746-9.967,26.311,26.311,0,0,1,7.4-4.632,30.23,30.23,0,0,1,26.105,1.068,8.049,8.049,0,0,0,15.689.029,30.315,30.315,0,0,1,26.193-1.038,26.2,26.2,0,0,1,7.313,4.583,24.418,24.418,0,0,1,6.736,9.934,29.245,29.245,0,0,1,1.914,10.635,33.171,33.171,0,0,1-4.166,15.382,81.767,81.767,0,0,1-10.557,15.035c-6.443,7.544-14.662,15.568-23.359,24.07-2.982,2.914-6.068,5.931-9.2,9.031a3.861,3.861,0,0,1-5.447,0Zm-33.35-78.312c-4.1,3.677-6.18,8.654-6.2,14.8a25.732,25.732,0,0,0,3.3,11.827,73.734,73.734,0,0,0,9.574,13.568c6.18,7.241,14.34,15.215,22.979,23.659,2.088,2.044,4.234,4.146,6.414,6.292,2.2-2.161,4.357-4.278,6.459-6.332,5.844-5.711,11.363-11.1,16.2-16.188,8.141-8.551,13.324-15.22,16.311-21a25.726,25.726,0,0,0,3.3-11.832c-.01-6.141-2.092-11.113-6.189-14.78a21.289,21.289,0,0,0-14.062-5.119,22.271,22.271,0,0,0-10.516,2.6,20.73,20.73,0,0,0-8.166,7.93,3.859,3.859,0,0,1-6.678,0,20.838,20.838,0,0,0-8.17-7.965,22.091,22.091,0,0,0-10.469-2.6h-.02A21.275,21.275,0,0,0,19395.674,1779.106Z" transform="translate(-18318 -1044)" fill="#bbb"/>
  </g>
</svg>
