<svg xmlns="http://www.w3.org/2000/svg" width="100" height="92.31" viewBox="0 0 100 92.31">
  <g id="likeHoverIcon" transform="translate(-1063.75 -722.229)">
    <path id="联合_6" data-name="联合 6" d="M19429.023,1745.419c-3.113-3.095-6.189-6.1-9.168-9.011-5.871-5.735-11.416-11.152-16.363-16.355-8.768-9.211-14.184-16.237-17.578-22.769a33.2,33.2,0,0,1-4.164-15.387,29.163,29.163,0,0,1,1.912-10.622,24.521,24.521,0,0,1,6.74-9.952,26.325,26.325,0,0,1,7.4-4.634,30.187,30.187,0,0,1,26.1,1.069,8.05,8.05,0,0,0,15.689.029,30.326,30.326,0,0,1,26.02-1.114,26.238,26.238,0,0,1,7.486,4.654,24.466,24.466,0,0,1,6.746,9.963,29.288,29.288,0,0,1,1.9,10.611,33.168,33.168,0,0,1-4.166,15.377,81.624,81.624,0,0,1-10.557,15.039c-6.443,7.539-14.662,15.567-23.359,24.065-2.982,2.919-6.068,5.931-9.2,9.035a3.872,3.872,0,0,1-5.447,0Zm-33.35-78.316c-4.1,3.682-6.18,8.659-6.2,14.8a25.714,25.714,0,0,0,3.3,11.822,73.585,73.585,0,0,0,9.574,13.573c6.18,7.241,14.34,15.215,22.979,23.659,2.088,2.044,4.234,4.141,6.414,6.288,2.2-2.161,4.357-4.273,6.459-6.327,5.844-5.711,11.363-11.1,16.2-16.188,8.141-8.551,13.324-15.225,16.311-21a25.726,25.726,0,0,0,3.3-11.832c-.01-6.141-2.092-11.118-6.189-14.78a21.289,21.289,0,0,0-14.062-5.119,22.27,22.27,0,0,0-10.516,2.6,20.73,20.73,0,0,0-8.166,7.93,3.864,3.864,0,0,1-6.678,0,20.837,20.837,0,0,0-8.17-7.965,22.1,22.1,0,0,0-10.469-2.6h-.02A21.3,21.3,0,0,0,19395.674,1667.1Z" transform="translate(-18318 -932)" fill="#1d1d1d"/>
  </g>
</svg>
