<svg xmlns="http://www.w3.org/2000/svg" width="12" height="11.089" viewBox="0 0 12 11.089"><g transform="translate(0 0)"><path d="M434.236,770.777h0Z" transform="translate(-423.265 -769.944)" fill="#f22d2d"/><path d="M378.427,770.774h0Z" transform="translate(-377.398 -769.941)" fill="#f22d2d"/><path d="M384.408,769.252a3.25,3.25,0,0,0-1.064-2.485,3.5,3.5,0,0,0-2.326-.857,3.623,3.623,0,0,0-1.714.426,3.416,3.416,0,0,0-.9.7,3.42,3.42,0,0,0-.9-.7,3.611,3.611,0,0,0-1.711-.427,3.5,3.5,0,0,0-2.329.861,3.256,3.256,0,0,0-1.065,2.487v0h0v0h0a4.036,4.036,0,0,0,.5,1.852,12.592,12.592,0,0,0,2.1,2.716c.89.935,1.936,1.923,3.029,3.009a.531.531,0,0,0,.747,0c1.458-1.448,2.831-2.72,3.864-3.929a9.748,9.748,0,0,0,1.261-1.8,4.036,4.036,0,0,0,.5-1.857Z" transform="translate(-372.408 -765.905)" fill="#f22d2d"/></g></svg>