<svg xmlns="http://www.w3.org/2000/svg" width="12" height="11.089" viewBox="0 0 12 11.089"><g transform="translate(0 0)"><path d="M299.065,770.977h0Z" transform="translate(-293.046 -766.108)" fill="gray"/><path d="M305.046,769.455a3.249,3.249,0,0,0-1.064-2.485,3.5,3.5,0,0,0-2.326-.857,3.628,3.628,0,0,0-1.714.426,3.417,3.417,0,0,0-.9.7,3.415,3.415,0,0,0-.9-.7,3.609,3.609,0,0,0-1.711-.427,3.5,3.5,0,0,0-2.328.861,3.255,3.255,0,0,0-1.065,2.486v0h0v0h0a4.038,4.038,0,0,0,.5,1.852,12.591,12.591,0,0,0,2.1,2.716c.89.935,1.936,1.924,3.029,3.009a.53.53,0,0,0,.747,0c1.458-1.447,2.831-2.72,3.864-3.928a9.763,9.763,0,0,0,1.261-1.8,4.036,4.036,0,0,0,.5-1.857Zm-1.13,1.537a9.078,9.078,0,0,1-1.171,1.662c-.962,1.127-2.279,2.359-3.7,3.763-1.055-1.043-2.053-1.991-2.89-2.871a11.954,11.954,0,0,1-1.98-2.554,3.333,3.333,0,0,1-.423-1.532v0h0a2.544,2.544,0,0,1,.828-1.958h0a2.794,2.794,0,0,1,1.858-.682,2.9,2.9,0,0,1,1.375.342,2.739,2.739,0,0,1,.942.841.354.354,0,0,0,.578,0,2.732,2.732,0,0,1,.942-.837,2.92,2.92,0,0,1,1.379-.342,2.791,2.791,0,0,1,1.855.678h0a2.538,2.538,0,0,1,.827,1.956v.005A3.334,3.334,0,0,1,303.916,770.992Z" transform="translate(-293.046 -766.108)" fill="gray"/><path d="M354.874,770.98h0Z" transform="translate(-348.892 -766.108)" fill="gray"/></g></svg>