<svg xmlns="http://www.w3.org/2000/svg" width="27" height="27" viewBox="0 0 27 27"><g transform="translate(3769 -1383)"><rect width="27" height="27" transform="translate(-3769 1383)" fill="none"/><g transform="translate(-4389.674 1228.395)"><path d="M684.1,161.477h0Z" transform="translate(-40.493 -2.871)" fill="#f22d2d"/><path d="M628.289,161.474h0Z" transform="translate(-3.546 -2.868)" fill="#f22d2d"/><path d="M646.078,163.246a6.447,6.447,0,0,0-2.112-4.931,6.941,6.941,0,0,0-4.614-1.7,7.188,7.188,0,0,0-3.4.845,6.777,6.777,0,0,0-1.776,1.379,6.8,6.8,0,0,0-1.778-1.387A7.169,7.169,0,0,0,629,156.6a6.943,6.943,0,0,0-4.62,1.709,6.458,6.458,0,0,0-2.112,4.933v.009h0v.009h0a8.007,8.007,0,0,0,1,3.675,24.983,24.983,0,0,0,4.157,5.389c1.766,1.855,3.84,3.816,6.009,5.969a1.052,1.052,0,0,0,1.483,0c2.893-2.872,5.616-5.4,7.665-7.794a19.345,19.345,0,0,0,2.5-3.564,8.007,8.007,0,0,0,1-3.685Z" fill="#f22d2d"/></g></g></svg>