<svg xmlns="http://www.w3.org/2000/svg" width="100" height="91.99" viewBox="0 0 100 91.99">
  <path id="likeClickIcon" d="M48.63,91.426c-3.253-3.23-6.462-6.364-9.564-9.4C17.24,60.7,0,43.856,0,26.737A28.028,28.028,0,0,1,2.3,15.311,24.58,24.58,0,0,1,8.445,6.877a26.507,26.507,0,0,1,8.681-5.141A29.378,29.378,0,0,1,40.839,3.424,27.3,27.3,0,0,1,50,11.412a27.643,27.643,0,0,1,9.156-7.954A29.52,29.52,0,0,1,82.887,1.765a26.441,26.441,0,0,1,8.673,5.12,24.49,24.49,0,0,1,6.137,8.42A28.048,28.048,0,0,1,100,26.737c0,17.124-17.248,33.976-39.084,55.31-3.1,3.027-6.3,6.156-9.549,9.379a1.944,1.944,0,0,1-2.737,0Z" fill="#fff"/>
</svg>
