<svg xmlns="http://www.w3.org/2000/svg" width="27" height="27" viewBox="0 0 27 27"><g transform="translate(3769 -1383)"><g transform="translate(-4310.313 1228.192)"><path d="M548.927,161.677h0Z" transform="translate(-3.546 -2.868)" fill="#fff"/><path d="M566.716,163.449a6.446,6.446,0,0,0-2.112-4.931,6.939,6.939,0,0,0-4.615-1.7,7.2,7.2,0,0,0-3.4.845,6.786,6.786,0,0,0-1.777,1.38,6.774,6.774,0,0,0-1.778-1.387,7.159,7.159,0,0,0-3.394-.847,6.943,6.943,0,0,0-4.62,1.709,6.458,6.458,0,0,0-2.112,4.933v.009h0v.009h0a8.011,8.011,0,0,0,1,3.675,24.975,24.975,0,0,0,4.157,5.389c1.766,1.856,3.841,3.816,6.01,5.969a1.052,1.052,0,0,0,1.483,0c2.893-2.872,5.617-5.4,7.666-7.795a19.372,19.372,0,0,0,2.5-3.564,8.008,8.008,0,0,0,1-3.685Zm-2.242,3.05a18.009,18.009,0,0,1-2.323,3.3c-1.909,2.236-4.522,4.679-7.339,7.465-2.092-2.07-4.072-3.95-5.734-5.7a23.728,23.728,0,0,1-3.928-5.068,6.612,6.612,0,0,1-.838-3.039v-.009h0a5.048,5.048,0,0,1,1.642-3.885h0a5.543,5.543,0,0,1,3.686-1.352,5.755,5.755,0,0,1,2.728.679,5.432,5.432,0,0,1,1.869,1.668.7.7,0,0,0,1.147,0,5.421,5.421,0,0,1,1.868-1.66,5.794,5.794,0,0,1,2.736-.678,5.54,5.54,0,0,1,3.682,1.346h0a5.035,5.035,0,0,1,1.64,3.881v.011A6.614,6.614,0,0,1,564.474,166.5Z" transform="translate(0 0)" fill="#fff"/><path d="M604.736,161.68h0Z" transform="translate(-40.492 -2.87)" fill="#fff"/></g><rect width="27" height="27" transform="translate(-3769 1383)" fill="none"/></g></svg>