<svg xmlns="http://www.w3.org/2000/svg" width="50" height="50" viewBox="0 0 50 50">
  <g id="组_409" data-name="组 409" transform="translate(521 -79)">
    <circle id="椭圆_145" data-name="椭圆 145" cx="25" cy="25" r="25" transform="translate(-521 79)" fill="#06c755"/>
    <path id="路径_69" data-name="路径 69" d="M48.629,594.245c0-7.023-7.041-12.737-15.7-12.737s-15.7,5.715-15.7,12.737c0,6.3,5.584,11.57,13.127,12.567.511.11,1.206.337,1.383.774a3.23,3.23,0,0,1,.051,1.419l-.224,1.343c-.069.4-.317,1.551,1.359.846s9.04-5.322,12.332-9.113A11.332,11.332,0,0,0,48.629,594.245Zm-24.836-3.394a.307.307,0,0,1,.306.306v5.432H27.09a.3.3,0,0,1,.3.3v1.1a.305.305,0,0,1-.3.306h-4.4a.3.3,0,0,1-.21-.085h0l0,0h0l0,0a.305.305,0,0,1-.085-.21v-6.84a.305.305,0,0,1,.3-.306Zm19.609,0a.305.305,0,0,1,.3.306v1.1a.305.305,0,0,1-.3.306H40.411v1.155H43.4a.305.305,0,0,1,.3.306v1.1a.305.305,0,0,1-.3.306H40.411v1.156H43.4a.305.305,0,0,1,.3.3v1.1a.305.305,0,0,1-.3.306H39a.306.306,0,0,1-.212-.085l0-.005,0,0A.306.306,0,0,1,38.7,598v-6.84a.305.305,0,0,1,.085-.21l.005-.005,0,0a.308.308,0,0,1,.212-.087Zm-13.658,0a.305.305,0,0,1,.306.3V598a.306.306,0,0,1-.306.3h-1.1a.306.306,0,0,1-.306-.3v-6.84a.305.305,0,0,1,.306-.3Zm2.782,0h.056l.017,0,.01,0,.018.005.011,0,.017.008.009,0,.017.009.009.005.016.012.008.005.017.014.005.005.018.018,0,0,.024.03,3.134,4.233v-4.063a.305.305,0,0,1,.306-.3h1.1a.3.3,0,0,1,.306.3V598a.305.305,0,0,1-.306.3h-1.1l-.078-.01h-.005l-.019-.007-.009,0-.016-.005-.014-.008-.009,0-.018-.012,0,0-.079-.076-3.138-4.238V598a.305.305,0,0,1-.306.3h-1.1a.306.306,0,0,1-.306-.3v-6.84a.305.305,0,0,1,.306-.3Z" transform="translate(-528.951 -492.463)" fill="#fff" fill-rule="evenodd"/>
  </g>
</svg>
