<svg xmlns="http://www.w3.org/2000/svg" width="50" height="50" viewBox="0 0 50 50">
  <g id="组_405" data-name="组 405" transform="translate(521 -16)">
    <g id="椭圆_138" data-name="椭圆 138" transform="translate(-521 16)" fill="none" stroke="#000" stroke-width="1.5">
      <circle cx="25" cy="25" r="25" stroke="none"/>
      <circle cx="25" cy="25" r="24.25" fill="none"/>
    </g>
    <g id="组_397" data-name="组 397" transform="translate(-810.567 -553.963)">
      <path id="路径_61" data-name="路径 61" d="M329.875,592.8h.37a11.722,11.722,0,0,0-4.625-9.067,18.256,18.256,0,0,0-22.1,0,11.722,11.722,0,0,0-4.626,9.067,11.5,11.5,0,0,0,3.757,8.334,16.712,16.712,0,0,0,9.367,4.289l.048-.367-.078.362a3.308,3.308,0,0,1,.714.23,1.186,1.186,0,0,1,.258.161.387.387,0,0,1,.112.141h0a1.575,1.575,0,0,1,.076.546,5.2,5.2,0,0,1-.049.654l.367.048-.365-.061-.218,1.31v0a2.924,2.924,0,0,0-.058.515,1.343,1.343,0,0,0,.032.3.843.843,0,0,0,.276.466.81.81,0,0,0,.275.148,1.066,1.066,0,0,0,.324.047,2.623,2.623,0,0,0,.986-.246c.225-.1.522-.245.888-.445a57.357,57.357,0,0,0,5.514-3.557,35.876,35.876,0,0,0,5.76-4.985l-.28-.242.274.249a13.734,13.734,0,0,0,2.539-3.809,10.213,10.213,0,0,0,.839-4.084h-.74a9.464,9.464,0,0,1-.779,3.792,13,13,0,0,1-2.406,3.6l0,0,0,0a38.226,38.226,0,0,1-6.537,5.511c-1.194.832-2.339,1.571-3.285,2.143-.473.286-.9.53-1.249.723s-.637.334-.82.412a1.952,1.952,0,0,1-.7.188.28.28,0,0,1-.114-.017c-.017-.011-.012,0-.027-.032a.478.478,0,0,1-.025-.172,2.293,2.293,0,0,1,.047-.388h0l.22-1.319v-.006a5.936,5.936,0,0,0,.055-.749,2.254,2.254,0,0,0-.128-.82h0a1.118,1.118,0,0,0-.315-.424,2.181,2.181,0,0,0-.644-.364,4.461,4.461,0,0,0-.655-.19l-.015,0-.015,0a15.976,15.976,0,0,1-8.953-4.091,10.755,10.755,0,0,1-3.528-7.8,10.983,10.983,0,0,1,4.352-8.492,17.518,17.518,0,0,1,21.171,0A10.983,10.983,0,0,1,329.5,592.8Z" fill="#1a1311" stroke="#000" stroke-width="0.8"/>
      <path id="路径_62" data-name="路径 62" d="M322.119,618.444a.3.3,0,0,1,.3.3v5.3h2.917a.3.3,0,0,1,.3.3v1.074a.3.3,0,0,1-.3.3h-4.29a.3.3,0,0,1-.205-.083h0l0,0h0l0,0a.3.3,0,0,1-.083-.205v-6.67a.3.3,0,0,1,.3-.3Z" transform="translate(-16.465 -28.954)" fill="#1a1311" fill-rule="evenodd"/>
      <path id="路径_63" data-name="路径 63" d="M389.818,618.444a.3.3,0,0,1,.3.3v1.074a.3.3,0,0,1-.3.3H386.9v1.126h2.917a.3.3,0,0,1,.3.3v1.074a.3.3,0,0,1-.3.3H386.9v1.128h2.917a.3.3,0,0,1,.3.3v1.074a.3.3,0,0,1-.3.3h-4.29a.3.3,0,0,1-.206-.083l0-.005,0,0a.3.3,0,0,1-.084-.205v-6.67a.3.3,0,0,1,.083-.205l.005,0,0,0a.3.3,0,0,1,.206-.084Z" transform="translate(-65.04 -28.954)" fill="#1a1311" fill-rule="evenodd"/>
      <path id="路径_64" data-name="路径 64" d="M345.643,618.449a.3.3,0,0,1,.3.3v6.67a.3.3,0,0,1-.3.3h-1.074a.3.3,0,0,1-.3-.3v-6.67a.3.3,0,0,1,.3-.3Z" transform="translate(-34.186 -28.958)" fill="#1a1311" fill-rule="evenodd"/>
      <path id="路径_65" data-name="路径 65" d="M356.645,618.449h.055l.017,0,.01,0,.018.005.01,0,.017.008.009,0,.017.009.009.005.016.012.007,0,.017.014.005,0,.018.018,0,0,.023.029,3.056,4.128v-3.962a.3.3,0,0,1,.3-.3h1.073a.3.3,0,0,1,.3.3v6.67a.3.3,0,0,1-.3.3h-1.073l-.076-.01h-.005l-.019-.006-.009,0-.015-.005-.014-.008-.009,0-.018-.012,0,0-.077-.074-3.06-4.133v3.962a.3.3,0,0,1-.3.3h-1.073a.3.3,0,0,1-.3-.3v-6.67a.3.3,0,0,1,.3-.3Z" transform="translate(-42.475 -28.958)" fill="#1a1311" fill-rule="evenodd"/>
    </g>
  </g>
</svg>
