<svg xmlns="http://www.w3.org/2000/svg" width="250" height="46.077" viewBox="0 0 250 46.077">
  <g id="组_27" data-name="组 27" transform="translate(-835 -8865.96)">
    <path id="路径_10" data-name="路径 10" d="M515.585,460.616a14.288,14.288,0,0,1-4.249,2.716,12.964,12.964,0,0,1-5,.976,14.6,14.6,0,0,1-10.149-4.045,14.242,14.242,0,0,1-3.132-4.474,13.5,13.5,0,0,1-1.159-5.6,14.522,14.522,0,0,1,1.77-6.974,14.031,14.031,0,0,1,2.061-2.843,13.006,13.006,0,0,1,2.715-2.221,13.331,13.331,0,0,1,3.262-1.437,13.127,13.127,0,0,1,3.712-.515,12.648,12.648,0,0,1,3.454.473,13.457,13.457,0,0,1,3.145,1.33,13.725,13.725,0,0,1,2.693,2.06,13.923,13.923,0,0,1,2.1,2.629,12.793,12.793,0,0,1,1.364,3.048,11.637,11.637,0,0,1,.481,3.337q0,1.116-.031,1.824a2.059,2.059,0,0,1-.333,1.126,1.611,1.611,0,0,1-1,.58,9.8,9.8,0,0,1-2.049.161H499.792a5.314,5.314,0,0,0,.868,2.3,5.454,5.454,0,0,0,1.512,1.469,6.063,6.063,0,0,0,1.824.784,7.7,7.7,0,0,0,1.825.236,8.212,8.212,0,0,0,1.588-.161,11.306,11.306,0,0,0,1.577-.43,8.871,8.871,0,0,0,1.394-.621,4.666,4.666,0,0,0,1.02-.742,4.473,4.473,0,0,1,.589-.418,1.051,1.051,0,0,1,.527-.139,1.024,1.024,0,0,1,.567.193,4.432,4.432,0,0,1,.655.558l2.274,2.575a1.441,1.441,0,0,1,.3.5,1.677,1.677,0,0,1,.063.462,1.189,1.189,0,0,1-.236.74,2.694,2.694,0,0,1-.557.546m-10.322-17.875a4.1,4.1,0,0,0-1.62.332,6.12,6.12,0,0,0-1.471.891,7.983,7.983,0,0,0-2.124,2.7h10.966a12.721,12.721,0,0,0-.976-1.545,6.586,6.586,0,0,0-1.2-1.244,5.175,5.175,0,0,0-1.544-.837,6.207,6.207,0,0,0-2.027-.3m-51.406.778h4a1.107,1.107,0,0,0,1.1-1.1v-4.778a1.106,1.106,0,0,0-1.1-1.1h-4l-.02-.327v-5.636a1.6,1.6,0,0,0-1.619-1.56h-4.209a1.594,1.594,0,0,0-1.618,1.56v5.636l-.014.327h-3.743a1.107,1.107,0,0,0-1.1,1.1v4.778a1.108,1.108,0,0,0,1.1,1.1h3.757V462.6a1.623,1.623,0,0,0,1.618,1.619h4.209a1.624,1.624,0,0,0,1.619-1.619V444.3c0-.055.02-.783.02-.783m-145.239-7.269h7.49a1.325,1.325,0,0,0,1.32-1.32v-4.347a1.324,1.324,0,0,0-1.32-1.319h-22.29a1.324,1.324,0,0,0-1.32,1.319v4.347a1.325,1.325,0,0,0,1.32,1.32h7.133s.317.027.285.189v26.347a1.433,1.433,0,0,0,1.429,1.428h4.129a1.434,1.434,0,0,0,1.428-1.428V436.439c-.022-.214.4-.189.4-.189M530.56,450.3l.007-.328a6.519,6.519,0,0,1,6.334-6.377,5.239,5.239,0,0,1,2.165.383,1.69,1.69,0,0,0,1.971-.508c.386-1,.821-2.432,1.261-3.489a1.73,1.73,0,0,0-1.217-2.492,12.278,12.278,0,0,0-4.535-.866,12.4,12.4,0,0,0-5.838,1.463l-.148.031v-.92c0-.507-.629-.922-1.4-.922h-4.191a1.4,1.4,0,0,0-1.4,1.4v25.147a1.4,1.4,0,0,0,1.4,1.4h4.191a1.4,1.4,0,0,0,1.4-1.4V450.3M421.9,464c-.025-.059-.269-.72-.541-1.468L412.508,438.2a.951.951,0,0,1,.954-1.362l4.745,0a2.221,2.221,0,0,1,1.943,1.36l4.817,13.246c.272.749.56,1.486.641,1.638s.364-.336.63-1.088l5.059-14.272a2.192,2.192,0,0,1,1.93-1.362l4.774.006a.961.961,0,0,1,.966,1.366L426.3,473.474a2.2,2.2,0,0,1-1.932,1.362l-4.774-.006a.961.961,0,0,1-.965-1.366l2.832-7.991A8.184,8.184,0,0,0,421.9,464m48.976-24.229A5.788,5.788,0,0,1,472,438.584a8.626,8.626,0,0,1,1.652-1.049,10.49,10.49,0,0,1,2.071-.748,9.7,9.7,0,0,1,2.4-.289,9,9,0,0,1,4.238.941,8.435,8.435,0,0,1,2.962,2.569,11.405,11.405,0,0,1,1.738,3.8,18.336,18.336,0,0,1,.568,4.642v14.057a1.866,1.866,0,0,1-.354,1.233,1.4,1.4,0,0,1-1.127.418h-4.957a1.915,1.915,0,0,1-1.265-.311,1.628,1.628,0,0,1-.343-1.213V448.45a4.154,4.154,0,0,0-.355-1.717,4.478,4.478,0,0,0-.955-1.384,4.422,4.422,0,0,0-3.112-1.255,3.873,3.873,0,0,0-1.512.311,4.312,4.312,0,0,0-1.33.88,4.929,4.929,0,0,0-.988,1.363,4.57,4.57,0,0,0-.462,1.76v14.164a2.022,2.022,0,0,1-.139.729,1.156,1.156,0,0,1-.418.558,1.959,1.959,0,0,1-.526.236,2.275,2.275,0,0,1-.569.064h-4.849a1.51,1.51,0,0,1-1.738-1.651V430.436a1.69,1.69,0,0,1,.408-1.18,1.713,1.713,0,0,1,1.33-.451h4.849a2.255,2.255,0,0,1,1.1.344,1.155,1.155,0,0,1,.418.558,1.916,1.916,0,0,1,.139.686Zm-141,17.137a6.725,6.725,0,1,1,6.726-6.726,6.725,6.725,0,0,1-6.726,6.726m13.347-6.7a13.724,13.724,0,1,0-13.723,13.725,13.723,13.723,0,0,0,13.723-13.725m25.977,10.975a13.978,13.978,0,0,1-7.989,2.563,13.724,13.724,0,1,1,7.73-25.066l.271.17v-1.345a1.4,1.4,0,0,1,1.4-1.4h4.191a1.4,1.4,0,0,1,1.4,1.4v25.147a13.594,13.594,0,0,1-13.472,12.228,14.049,14.049,0,0,1-9.048-3.216,1.472,1.472,0,0,1-.328-2.453l1.963-2.236c1.526-2.18,3.107-.544,3.107-.544,7.687,4.633,10.792-3.78,10.792-3.78s.714-1.973-.012-1.469m-1.147-11.1a6.725,6.725,0,1,0-6.723,6.724,6.724,6.724,0,0,0,6.723-6.724M401.719,461a13.724,13.724,0,1,1-.383-22l.41.26v-1.59a1.4,1.4,0,0,1,1.4-1.4h4.191a1.4,1.4,0,0,1,1.4,1.4v25.147a1.4,1.4,0,0,1-1.4,1.4h-4.191a1.4,1.4,0,0,1-1.4-1.4v-1.181Zm-1.3-10.885a6.725,6.725,0,1,0-6.724,6.724,6.725,6.725,0,0,0,6.724-6.724" transform="translate(542.502 8437.156)" fill="#fff"/>
  </g>
</svg>
