<svg xmlns="http://www.w3.org/2000/svg" width="23.71" height="24" viewBox="0 0 23.71 24"><g transform="translate(-441.998 -371.732)"><path d="M463.859,386.619a.68.68,0,0,0-.679.679h0v9.912H443.357V377.386h9.912a.679.679,0,0,0,0-1.359H442.677a.679.679,0,0,0-.679.679V397.89a.68.68,0,0,0,.679.679h21.182a.679.679,0,0,0,.679-.679V387.3A.679.679,0,0,0,463.859,386.619Z" transform="translate(0 -2.837)" fill="#fff"/><path d="M474.031,374.256l-2.043-2.043a1.642,1.642,0,0,0-2.322,0l-1.413,1.413h0l-11.522,11.523,0,0h0a.664.664,0,0,0-.1.127c-.007.012-.013.024-.019.037a.65.65,0,0,0-.048.117c0,.009-.008.016-.01.025l-1.2,4.606a.679.679,0,0,0,.829.829l4.606-1.2c.01,0,.019-.009.03-.012a.691.691,0,0,0,.107-.044l.044-.023a.668.668,0,0,0,.124-.1h0l0,0,12.936-12.935a1.643,1.643,0,0,0,0-2.322Zm-5.3.811,2.443,2.444-10.562,10.562-2.443-2.444Zm-11.165,11.881,1.727,1.727-2.337.61Zm15.5-11.331-.932.932-2.443-2.443.932-.932a.283.283,0,0,1,.4,0l2.043,2.043a.285.285,0,0,1,0,.4Z" transform="translate(-8.804)" fill="#fff"/></g></svg>