<svg xmlns="http://www.w3.org/2000/svg" width="16.775" height="16.5" viewBox="0 0 16.775 16.5"><g transform="translate(-263.613 -231.75)"><path d="M293.4,714.808c0-.006,0-.012,0-.018a.188.188,0,0,0,0-.022s0-.005,0-.008a.21.21,0,0,0-.009-.029h0l-.006-.011a.205.205,0,0,0-.012-.022l-.012-.015-.013-.015h0l-.014-.012-.016-.012-.018-.01-.017-.009h0l-.021-.006-.013,0h0l-.031,0h-.01l-.019,0-.021,0-.009,0-.028.009h0L277.249,721.4a.2.2,0,0,0-.01.371l6.025,2.976V730.4a.2.2,0,0,0,.38.1l2.555-4.31,4.159,2.054a.2.2,0,0,0,.291-.142l2.747-13.256h0a.184.184,0,0,0,0-.03S293.4,714.812,293.4,714.808Zm-1.086.6-8.888,8.962-5.609-2.77Zm-8.642,14.248v-4.709l2.159,1.066Zm6.63-1.89-6.489-3.2,9.043-9.118Z" transform="translate(-13.262 -482.604)" fill="#fff"/><path d="M293.195,714.354a.436.436,0,0,1,.088.009h.007l.031.009a.356.356,0,0,1,.042.013l.021.009.026.014a.37.37,0,0,1,.039.023l.029.022.041.022.026.044a.4.4,0,0,1,.027.036.415.415,0,0,1,.025.044l.009.016.01.022v.006a.43.43,0,0,1,.016.049.272.272,0,0,1,.007.027.352.352,0,0,1,.006.047.374.374,0,0,1,0,.038.322.322,0,0,1,0,.037c0,.011,0,.025,0,.041l0,.019-2.747,13.256a.451.451,0,0,1-.246.316.462.462,0,0,1-.4,0l-3.952-1.952-2.437,4.111a.454.454,0,0,1-.845-.232v-5.5l-5.885-2.907a.454.454,0,0,1,.023-.825l15.887-6.785.041-.012h0l.028-.007.043-.006h.007Zm-.756,1.152.559-.564-.73.312Zm-9.064,8.559,7.86-7.925-12.82,5.476Zm6.747,3.332,2.317-11.182-8.205,8.274Zm-4.644-1.28-1.556-.769v3.394Z" transform="translate(-13.262 -482.604)" fill="#fff"/></g></svg>