<svg xmlns="http://www.w3.org/2000/svg" width="50" height="50" viewBox="0 0 50 50"><path d="M25,1a24.007,24.007,0,0,0-9.342,46.114A24.006,24.006,0,0,0,34.342,2.886,23.849,23.849,0,0,0,25,1m0-1A25,25,0,1,1,0,25,25,25,0,0,1,25,0Z" fill="#fff"/><path d="M297.468,714.859c0-.008,0-.015,0-.023a.239.239,0,0,0,0-.027s0-.007,0-.01a.266.266,0,0,0-.011-.036h0v0c0-.005-.005-.009-.008-.014a.261.261,0,0,0-.016-.028c0-.007-.01-.013-.015-.019l-.016-.019h0l-.018-.015-.02-.016-.022-.012-.022-.011h0l-.027-.008-.016,0h0a.258.258,0,0,0-.038,0h-.012l-.024,0-.026,0-.011,0a.3.3,0,0,0-.035.011h0L277.28,723.1a.255.255,0,0,0-.013.464l7.531,3.719v7.07a.255.255,0,0,0,.475.13l3.194-5.388,5.2,2.568a.255.255,0,0,0,.363-.177l3.434-16.57v0a.232.232,0,0,0,0-.037S297.468,714.863,297.468,714.859Zm-1.357.749L285,726.81l-7.011-3.463Zm-10.8,17.809v-5.886l2.7,1.333Zm8.287-2.363-8.111-4.006,11.3-11.4Z" transform="translate(-262.296 -699.604)" fill="#fff"/><path d="M297.212,714.354l.03,0a.509.509,0,0,1,.061.007l.012,0,.036.01a.415.415,0,0,1,.047.015l.022.01.029.015a.446.446,0,0,1,.044.025.438.438,0,0,1,.037.029l.005,0,.035.02.024.038,0,.005,0,.005a.408.408,0,0,1,.028.036.465.465,0,0,1,.03.051l.007.013,0,.006.009.022v.005a.471.471,0,0,1,.018.057.278.278,0,0,1,.008.03.379.379,0,0,1,.006.05v.005a.363.363,0,0,1,0,.038v.005a.3.3,0,0,1,0,.035c0,.013,0,.029,0,.047l0,.02-3.434,16.57a.5.5,0,0,1-.273.352.514.514,0,0,1-.445,0l-4.991-2.465-3.076,5.189a.505.505,0,0,1-.94-.258v-6.914l-7.391-3.651a.505.505,0,0,1,.026-.918l19.844-8.476a.505.505,0,0,1,.058-.018l.027-.007h0a.373.373,0,0,1,.051-.007h.005A.383.383,0,0,1,297.212,714.354Zm0,.5h0l-.009,0-19.823,8.467a.006.006,0,0,0,0,0,.007.007,0,0,0,0,0l7.67,3.788v7.225a0,0,0,0,0,.005.005.006.006,0,0,0,.005,0l3.312-5.587,5.407,2.67.252.047-.245-.051,3.433-16.571a.007.007,0,0,0,0,0h0Zm-.01.021-3.429,16.546-8.712-4.3Zm-3.788,15.811,2.956-14.263-10.466,10.553Zm2.6-15.309.276.406-11.236,11.33-7.659-3.783Zm-11.062,11.128,10.082-10.166-16.444,7.023Zm.108.623,3.3,1.631-3.3,5.57Zm2.6,1.84-2.1-1.035V732.5Z" transform="translate(-262.296 -699.604)" fill="#fff"/></svg>