<svg xmlns="http://www.w3.org/2000/svg" width="120" height="120" viewBox="0 0 120 120"><g transform="translate(-1120 -295)"><path d="M3823.3-6508.869a1.22,1.22,0,0,1-.9-1.169v-16.588l-17.726-8.757a1.213,1.213,0,0,1-.679-1.122,1.22,1.22,0,0,1,.737-1.077l47.6-20.332a.864.864,0,0,1,.139-.043.511.511,0,0,1,.063-.02c.055-.008.1-.012.126-.016h.012a.781.781,0,0,1,.106-.008.621.621,0,0,1,.075,0c.048,0,.091.009.146.017l.028.008a.6.6,0,0,1,.087.02l.114.036.052.023c.027.017.055.028.066.035a.9.9,0,0,1,.106.063c.031.024.063.043.091.067a.018.018,0,0,0,.013.007l.082.052.06.092a.016.016,0,0,1,.008.012l.012.012c.024.031.048.059.067.086a1.412,1.412,0,0,1,.071.123c0,.012.012.019.016.032l.008.012.023.055a.012.012,0,0,0,0,.008v0a1.237,1.237,0,0,1,.044.135.576.576,0,0,1,.02.075c.008.05.012.094.016.118v.012a.7.7,0,0,1,.008.095v.012a.611.611,0,0,1-.008.083.646.646,0,0,1-.012.113l-.008.049-8.235,39.747a1.207,1.207,0,0,1-.655.844,1.229,1.229,0,0,1-1.07,0l-11.974-5.914-7.374,12.447a1.222,1.222,0,0,1-1.043.6A1.194,1.194,0,0,1,3823.3-6508.869Zm1.532-5.594,5.025-8.48-5.025-2.482ZM3845.149-6516.919Zm-19.483-10.8,18.015,8.9,7.091-34.213Zm-17.552-8.669,15.258,7.537,24.186-24.383Z" transform="translate(-2649 6888)" fill="#fff"/><path d="M60,2a57.72,57.72,0,0,0-32.427,9.9A58.175,58.175,0,0,0,6.557,37.424a57.921,57.921,0,0,0,5.347,55,58.175,58.175,0,0,0,25.52,21.016,57.921,57.921,0,0,0,55-5.347,58.175,58.175,0,0,0,21.016-25.52,57.921,57.921,0,0,0-5.347-55A58.175,58.175,0,0,0,82.576,6.557,57.635,57.635,0,0,0,60,2m0-2A60,60,0,1,1,0,60,60,60,0,0,1,60,0Z" transform="translate(1120 295)" fill="#fff"/></g></svg>