<svg xmlns="http://www.w3.org/2000/svg" width="300" height="294.894" viewBox="0 0 300 294.894">
  <path id="路径_71" data-name="路径 71" d="M591.8,717.554c0-.061-.03-.119-.035-.182a2.418,2.418,0,0,0-.094-.464,2.217,2.217,0,0,0-.058-.258l0-.015c-.031-.071-.089-.114-.124-.18a2.522,2.522,0,0,0-.281-.413,2.211,2.211,0,0,0-.142-.213l-.013-.008c-.056-.053-.127-.081-.187-.129a2.391,2.391,0,0,0-.392-.256c-.068-.035-.124-.1-.2-.127a2.667,2.667,0,0,0-.278-.076,1.944,1.944,0,0,0-.2-.086,2.088,2.088,0,0,0-.253,0,2.408,2.408,0,0,0-.332-.041c-.063,0-.121.03-.185.038a2.353,2.353,0,0,0-.463.091,2.311,2.311,0,0,0-.261.061l-.015,0h0L293.336,841.281a2.531,2.531,0,0,0-.127,4.6l112.705,55.665v105.924a2.531,2.531,0,0,0,4.709,1.291l48.094-81.136,78.364,38.7a2.532,2.532,0,0,0,3.6-1.755l51.075-246.43c.018-.086-.008-.167,0-.251A2.544,2.544,0,0,0,591.8,717.554Zm-13.442,7.495L407.933,896.892,300.385,843.775ZM410.979,998.232V904.043l43.185,21.329Zm125.41-37.9L412.721,899.255,585.069,725.471Z" transform="translate(-291.799 -715.108)" fill="#1a1311"/>
</svg>
