<svg xmlns="http://www.w3.org/2000/svg" width="24.999" height="24.999" viewBox="0 0 24.999 24.999">
  <g id="组_1440" data-name="组 1440" transform="translate(-750.604 -777.085)">
    <path id="路径_355" data-name="路径 355" d="M773.013,777.085H753.194a2.591,2.591,0,0,0-2.59,2.591v16.117h0v3.7a2.59,2.59,0,0,0,2.59,2.59h19.818a2.59,2.59,0,0,0,2.59-2.59V779.676A2.59,2.59,0,0,0,773.013,777.085Zm-21.1,1.308a1.8,1.8,0,0,1,1.282-.531h19.818a1.814,1.814,0,0,1,1.813,1.814v9.489l-4.728-4.728a.388.388,0,0,0-.549,0l-8.284,8.284-3.6-3.6a.389.389,0,0,0-.549,0l-5.735,5.735v-15.18A1.807,1.807,0,0,1,751.912,778.393Zm22.383,22.383a1.805,1.805,0,0,1-1.282.531H753.194a1.814,1.814,0,0,1-1.813-1.813v-3.54l6.01-6.01,3.6,3.6a.389.389,0,0,0,.549,0l8.284-8.284,5,5v9.231A1.806,1.806,0,0,1,774.295,800.776Z" transform="translate(0 0)" fill="#fff"/>
    <path id="路径_356" data-name="路径 356" d="M762.574,791.548a2.98,2.98,0,1,0-2.98-2.98A2.98,2.98,0,0,0,762.574,791.548Zm-1.4-4.38a1.98,1.98,0,1,1-.58,1.4A1.972,1.972,0,0,1,761.174,787.168Z" transform="translate(-4.495 -4.252)" fill="#fff"/>
  </g>
</svg>
