<svg xmlns="http://www.w3.org/2000/svg" width="152.724" height="64.362" viewBox="0 0 152.724 64.362"><g transform="translate(-883.388 -424.319)"><g transform="translate(298.632 -352.055)"><path d="M733.645,776.374H676.952a3.834,3.834,0,0,0-3.834,3.834V836.9a3.834,3.834,0,0,0,3.834,3.835h56.693a3.835,3.835,0,0,0,3.835-3.835V780.208A3.835,3.835,0,0,0,733.645,776.374ZM735.48,836.9a1.838,1.838,0,0,1-1.835,1.835H676.952a1.837,1.837,0,0,1-1.834-1.835V780.208a1.836,1.836,0,0,1,1.834-1.834h56.693a1.838,1.838,0,0,1,1.835,1.834Z" fill="#fff"/><path d="M719.073,807.689l-24.549-14.173a1,1,0,0,0-1.5.866v28.347a1,1,0,0,0,1.5.865l24.549-14.173a1,1,0,0,0,0-1.732Zm-24.049-11.575,21.549,12.441L695.024,821Z" fill="#fff"/></g><g transform="translate(132.784 -352.766)"><path d="M808.3,777.085H757.273a6.67,6.67,0,0,0-6.669,6.67v51.023a6.669,6.669,0,0,0,6.669,6.669H808.3a6.668,6.668,0,0,0,6.668-6.669V783.755A6.669,6.669,0,0,0,808.3,777.085Zm-54.325,3.368a4.646,4.646,0,0,1,3.3-1.368H808.3a4.671,4.671,0,0,1,4.669,4.67v24.429l-12.173-12.172a1,1,0,0,0-1.414,0L778.05,817.34l-9.267-9.268a1,1,0,0,0-1.414,0L752.6,822.837V783.755A4.65,4.65,0,0,1,753.972,780.453ZM811.6,838.08a4.649,4.649,0,0,1-3.3,1.367H757.273a4.669,4.669,0,0,1-4.669-4.669v-9.113l15.472-15.472,9.267,9.268a1,1,0,0,0,1.415,0l21.328-21.328,12.88,12.879v23.766A4.651,4.651,0,0,1,811.6,838.08Z" fill="#fff"/><path d="M765.554,797.509a5.96,5.96,0,1,0-5.96-5.96A5.96,5.96,0,0,0,765.554,797.509Zm-2.8-8.761a3.961,3.961,0,1,1-1.16,2.8A3.944,3.944,0,0,1,762.753,788.748Z" fill="#fff"/></g></g></svg>