<svg xmlns="http://www.w3.org/2000/svg" width="100" height="95.438" viewBox="0 0 100 95.438">
  <path id="saveClickIcon" d="M322.722,304.943l12.662,26.125a3.393,3.393,0,0,0,2.588,1.881l28.768,3.974a3.391,3.391,0,0,1,1.886,5.8l-20.937,20.122a3.393,3.393,0,0,0-.987,3.042l5.108,28.581a3.392,3.392,0,0,1-4.937,3.588l-25.6-13.7a3.392,3.392,0,0,0-3.2,0l-25.606,13.7a3.393,3.393,0,0,1-4.939-3.588l5.113-28.581a3.389,3.389,0,0,0-.987-3.042l-20.937-20.122a3.391,3.391,0,0,1,1.887-5.8l28.766-3.974a3.393,3.393,0,0,0,2.588-1.881l12.662-26.125A3.391,3.391,0,0,1,322.722,304.943Z" transform="translate(-269.67 -303.031)" fill="#fff"/>
</svg>
