<svg xmlns="http://www.w3.org/2000/svg" width="100" height="95.56" viewBox="0 0 100 95.56">
  <path id="saveFullIcon" d="M75.826,95,50.918,81.681a1.968,1.968,0,0,0-1.839,0L24.166,95a4.612,4.612,0,0,1-2.194.559,4.653,4.653,0,0,1-4.578-5.478l4.977-27.807a1.947,1.947,0,0,0-.569-1.746L1.433,40.947a4.649,4.649,0,0,1,2.583-7.959l27.992-3.868a1.927,1.927,0,0,0,1.484-1.08L45.815,2.622a4.653,4.653,0,0,1,8.372,0L66.5,28.041a1.943,1.943,0,0,0,1.489,1.08l27.987,3.868a4.653,4.653,0,0,1,2.588,7.959L78.2,60.528a1.935,1.935,0,0,0-.569,1.746L82.6,90.082A4.643,4.643,0,0,1,75.826,95Z" fill="#fee406"/>
</svg>
