<svg xmlns="http://www.w3.org/2000/svg" width="100" height="95.74" viewBox="0 0 100 95.74">
  <path id="saveHoverIcon" d="M421.18,354.595a6.476,6.476,0,0,1,5.869,3.677l11.766,24.277,26.73,3.693a6.522,6.522,0,0,1,3.628,11.162l-19.455,18.7,4.748,26.558a6.528,6.528,0,0,1-6.42,7.677,6.553,6.553,0,0,1-3.076-.778L421.18,436.832l-23.793,12.726a6.5,6.5,0,0,1-8.09-1.576,6.487,6.487,0,0,1-1.406-5.322l4.751-26.558-19.454-18.7a6.522,6.522,0,0,1,3.626-11.163l26.73-3.693,11.766-24.276A6.475,6.475,0,0,1,421.18,354.595Zm43.05,38.245-26.437-3.652a6.513,6.513,0,0,1-4.975-3.613L421.18,361.562l-11.637,24.01a6.51,6.51,0,0,1-4.976,3.616l-26.436,3.652,19.24,18.49a6.511,6.511,0,0,1,1.9,5.852l-4.7,26.264L418.1,430.86a6.628,6.628,0,0,1,6.153,0l23.527,12.585-4.7-26.265a6.518,6.518,0,0,1,1.9-5.85Z" transform="translate(-371.18 -354.595)" fill="#1d1d1d"/>
</svg>
