<svg xmlns="http://www.w3.org/2000/svg" width="99.998" height="95.559" viewBox="0 0 99.998 95.559">
  <g id="saveOutlineIcon" transform="translate(17925.25 -1276.161)">
    <path id="路径_269" data-name="路径 269" d="M424.417,356.947l12.6,26a3.379,3.379,0,0,0,2.575,1.871l28.623,3.954a3.375,3.375,0,0,1,1.877,5.776l-20.831,20.02a3.379,3.379,0,0,0-.984,3.028l5.084,28.438a3.375,3.375,0,0,1-4.914,3.569l-25.474-13.626a3.372,3.372,0,0,0-3.183,0L394.311,449.6a3.374,3.374,0,0,1-4.913-3.569l5.087-28.438a3.375,3.375,0,0,0-.983-3.028l-20.831-20.02a3.375,3.375,0,0,1,1.876-5.776l28.623-3.954a3.378,3.378,0,0,0,2.575-1.871l12.6-26A3.375,3.375,0,0,1,424.417,356.947Z" transform="translate(-18296.631 921.366)" fill="none"/>
    <path id="路径_269_-_轮廓" data-name="路径 269 - 轮廓" d="M421.379,354.795a4.618,4.618,0,0,1,4.186,2.622l12.32,25.419a1.948,1.948,0,0,0,1.487,1.081l27.988,3.866a4.651,4.651,0,0,1,2.588,7.961l-20.37,19.577a1.949,1.949,0,0,0-.568,1.75l4.972,27.807a4.643,4.643,0,0,1-6.773,4.919L422.3,436.472a1.979,1.979,0,0,0-1.838,0L395.547,449.8a4.609,4.609,0,0,1-2.194.557,4.657,4.657,0,0,1-4.578-5.477l4.974-27.808a1.945,1.945,0,0,0-.568-1.748l-20.369-19.577a4.651,4.651,0,0,1,2.586-7.961l27.988-3.866a1.947,1.947,0,0,0,1.487-1.081l12.319-25.419A4.618,4.618,0,0,1,421.379,354.795ZM449.4,447.651a2,2,0,0,0,1.508-.718,1.9,1.9,0,0,0,.411-1.581l-4.972-27.808a4.647,4.647,0,0,1,1.356-4.173l20.37-19.577a1.949,1.949,0,0,0-1.084-3.335L439,386.594a4.646,4.646,0,0,1-3.548-2.578L423.133,358.6a1.949,1.949,0,0,0-3.507,0l-12.319,25.419a4.644,4.644,0,0,1-3.549,2.579l-27.989,3.866a1.949,1.949,0,0,0-1.083,3.336l20.369,19.576a4.642,4.642,0,0,1,1.356,4.173l-4.974,27.808a1.9,1.9,0,0,0,.41,1.581,1.994,1.994,0,0,0,1.507.717,1.932,1.932,0,0,0,.919-.238l24.913-13.324a4.725,4.725,0,0,1,4.388,0l24.909,13.323A1.933,1.933,0,0,0,449.4,447.651Z" transform="translate(-18296.631 921.366)" fill="#bbb"/>
  </g>
</svg>
