<svg xmlns="http://www.w3.org/2000/svg" width="200" height="110" viewBox="0 0 200 110">
  <g id="组_263" data-name="组 263" transform="translate(469 -1555)">
    <rect id="矩形_493" data-name="矩形 493" width="200" height="110" rx="10" transform="translate(-469 1555)" fill="#fff"/>
    <g id="组_255" data-name="组 255" transform="translate(1 31)">
      <path id="矩形_456" data-name="矩形 456" d="M3,3V37H82V3H3M2,0H83a2,2,0,0,1,2,2V38a2,2,0,0,1-2,2H2a2,2,0,0,1-2-2V2A2,2,0,0,1,2,0Z" transform="translate(-367 1537)" fill="#836fff"/>
      <path id="矩形_465" data-name="矩形 465" d="M3,3V37H82V3H3M2,0H83a2,2,0,0,1,2,2V38a2,2,0,0,1-2,2H2a2,2,0,0,1-2-2V2A2,2,0,0,1,2,0Z" transform="translate(-457 1537)" fill="#836fff"/>
      <path id="矩形_462" data-name="矩形 462" d="M3,3V37H37V3H3M2,0H38a2,2,0,0,1,2,2V38a2,2,0,0,1-2,2H2a2,2,0,0,1-2-2V2A2,2,0,0,1,2,0Z" transform="translate(-457 1582)" fill="#836fff"/>
      <path id="矩形_464" data-name="矩形 464" d="M3,3V37H37V3H3M2,0H38a2,2,0,0,1,2,2V38a2,2,0,0,1-2,2H2a2,2,0,0,1-2-2V2A2,2,0,0,1,2,0Z" transform="translate(-367 1582)" fill="#836fff"/>
      <path id="矩形_458" data-name="矩形 458" d="M3,3V37H37V3H3M2,0H38a2,2,0,0,1,2,2V38a2,2,0,0,1-2,2H2a2,2,0,0,1-2-2V2A2,2,0,0,1,2,0Z" transform="translate(-412 1582)" fill="#836fff"/>
      <path id="矩形_463" data-name="矩形 463" d="M3,3V37H37V3H3M2,0H38a2,2,0,0,1,2,2V38a2,2,0,0,1-2,2H2a2,2,0,0,1-2-2V2A2,2,0,0,1,2,0Z" transform="translate(-322 1582)" fill="#836fff"/>
    </g>
  </g>
</svg>
