<svg xmlns="http://www.w3.org/2000/svg" width="200" height="110" viewBox="0 0 200 110">
  <g id="组_262" data-name="组 262" transform="translate(469 -1425)">
    <rect id="矩形_492" data-name="矩形 492" width="200" height="110" rx="10" transform="translate(-469 1425)" fill="#fff"/>
    <g id="组_254" data-name="组 254" transform="translate(1 6)">
      <path id="矩形_448" data-name="矩形 448" d="M3,3V37H82V3H3M2,0H83a2,2,0,0,1,2,2V38a2,2,0,0,1-2,2H2a2,2,0,0,1-2-2V2A2,2,0,0,1,2,0Z" transform="translate(-367 1477)" fill="#836fff"/>
      <path id="矩形_449" data-name="矩形 449" d="M3,3V37H37V3H3M2,0H38a2,2,0,0,1,2,2V38a2,2,0,0,1-2,2H2a2,2,0,0,1-2-2V2A2,2,0,0,1,2,0Z" transform="translate(-367 1432)" fill="#836fff"/>
      <path id="矩形_455" data-name="矩形 455" d="M3,3V37H37V3H3M2,0H38a2,2,0,0,1,2,2V38a2,2,0,0,1-2,2H2a2,2,0,0,1-2-2V2A2,2,0,0,1,2,0Z" transform="translate(-457 1432)" fill="#836fff"/>
      <path id="矩形_453" data-name="矩形 453" d="M3,3V37H37V3H3M2,0H38a2,2,0,0,1,2,2V38a2,2,0,0,1-2,2H2a2,2,0,0,1-2-2V2A2,2,0,0,1,2,0Z" transform="translate(-457 1477)" fill="#836fff"/>
      <path id="矩形_451" data-name="矩形 451" d="M3,3V37H37V3H3M2,0H38a2,2,0,0,1,2,2V38a2,2,0,0,1-2,2H2a2,2,0,0,1-2-2V2A2,2,0,0,1,2,0Z" transform="translate(-412 1477)" fill="#836fff"/>
      <path id="矩形_452" data-name="矩形 452" d="M3,3V37H37V3H3M2,0H38a2,2,0,0,1,2,2V38a2,2,0,0,1-2,2H2a2,2,0,0,1-2-2V2A2,2,0,0,1,2,0Z" transform="translate(-322 1432)" fill="#836fff"/>
      <path id="矩形_454" data-name="矩形 454" d="M3,3V37H37V3H3M2,0H38a2,2,0,0,1,2,2V38a2,2,0,0,1-2,2H2a2,2,0,0,1-2-2V2A2,2,0,0,1,2,0Z" transform="translate(-412 1432)" fill="#836fff"/>
    </g>
  </g>
</svg>
