<svg xmlns="http://www.w3.org/2000/svg" width="200" height="110" viewBox="0 0 200 110">
  <g id="组_418" data-name="组 418" transform="translate(313 -1258)">
    <path id="路径_72" data-name="路径 72" d="M10,0H190a10,10,0,0,1,10,10v90a10,10,0,0,1-10,10H10A10,10,0,0,1,0,100V10A10,10,0,0,1,10,0Z" transform="translate(-113 1368) rotate(180)" fill="#fff"/>
    <path id="矩形_498" data-name="矩形 498" d="M2,2V88H178V2H2M2,0H178a2,2,0,0,1,2,2V88a2,2,0,0,1-2,2H2a2,2,0,0,1-2-2V2A2,2,0,0,1,2,0Z" transform="translate(-123 1358) rotate(180)" fill="#836fff"/>
    <path id="路径_73" data-name="路径 73" d="M.8,0A.384.384,0,0,1,.52-.12.384.384,0,0,1,.4-.4L.44-.62,5.4-13.56A.622.622,0,0,1,6.04-14H7.32a.622.622,0,0,1,.64.44L12.92-.62l.04.22a.37.37,0,0,1-.13.28.418.418,0,0,1-.29.12H11.6a.493.493,0,0,1-.33-.11.529.529,0,0,1-.17-.23L9.98-3.22H3.36L2.26-.34a.525.525,0,0,1-.5.34ZM3.94-4.88H9.42L6.68-12.06ZM18.54.2a3.732,3.732,0,0,1-3.15-1.36A5.847,5.847,0,0,1,14.26-4.6l-.02-.6.02-.6A5.823,5.823,0,0,1,15.4-9.23a3.725,3.725,0,0,1,3.14-1.37,3.883,3.883,0,0,1,3.24,1.48v-4.62a.447.447,0,0,1,.13-.33.447.447,0,0,1,.33-.13h.9a.447.447,0,0,1,.33.13.447.447,0,0,1,.13.33V-.46a.447.447,0,0,1-.13.33.447.447,0,0,1-.33.13h-.86a.415.415,0,0,1-.32-.13.468.468,0,0,1-.12-.33v-.86A3.873,3.873,0,0,1,18.54.2Zm.38-1.56a2.461,2.461,0,0,0,2.1-.93,3.885,3.885,0,0,0,.76-2.21q.02-.22.02-.76,0-.56-.02-.78a3.408,3.408,0,0,0-.77-2.11,2.549,2.549,0,0,0-2.09-.89,2.43,2.43,0,0,0-2.1.9,4.2,4.2,0,0,0-.72,2.36l-.02.58Q16.08-1.36,18.92-1.36ZM30.24,0a.758.758,0,0,1-.74-.5L25.78-9.78a.7.7,0,0,1-.02-.2.407.407,0,0,1,.12-.3.384.384,0,0,1,.28-.12h.92a.513.513,0,0,1,.48.32L30.64-2.1l3.08-7.98a.471.471,0,0,1,.17-.22.494.494,0,0,1,.31-.1h.92a.384.384,0,0,1,.28.12.407.407,0,0,1,.12.3l-.04.2L31.78-.5a.758.758,0,0,1-.74.5ZM41.4.2a4.31,4.31,0,0,1-3.26-1.27A5.234,5.234,0,0,1,36.8-4.54l-.02-.68.02-.66a5.222,5.222,0,0,1,1.34-3.44A4.293,4.293,0,0,1,41.4-10.6a4.265,4.265,0,0,1,3.41,1.4,5.615,5.615,0,0,1,1.21,3.8v.36a.447.447,0,0,1-.13.33.447.447,0,0,1-.33.13H38.62v.18a3.716,3.716,0,0,0,.8,2.22,2.39,2.39,0,0,0,1.96.92,2.841,2.841,0,0,0,1.53-.37,3.263,3.263,0,0,0,.89-.77,1.04,1.04,0,0,1,.28-.29.824.824,0,0,1,.34-.05h.88a.494.494,0,0,1,.31.1.313.313,0,0,1,.13.26,1.773,1.773,0,0,1-.54,1.06A4.415,4.415,0,0,1,43.67-.25,5.432,5.432,0,0,1,41.4.2Zm2.8-6.14V-6a3.364,3.364,0,0,0-.76-2.28,2.559,2.559,0,0,0-2.04-.88,2.522,2.522,0,0,0-2.04.88A3.422,3.422,0,0,0,38.62-6v.06ZM48.92,0a.447.447,0,0,1-.33-.13.447.447,0,0,1-.13-.33V-9.92a.482.482,0,0,1,.13-.34.431.431,0,0,1,.33-.14h.84a.473.473,0,0,1,.35.13.473.473,0,0,1,.13.35v.88a2.984,2.984,0,0,1,2.78-1.36h.78a.46.46,0,0,1,.34.12.46.46,0,0,1,.12.34v.74a.468.468,0,0,1-.12.33.44.44,0,0,1-.34.13H52.66a2.317,2.317,0,0,0-1.73.64,2.372,2.372,0,0,0-.63,1.74v5.9a.431.431,0,0,1-.14.33.482.482,0,0,1-.34.13ZM59.98,0q-3.1,0-3.1-3.5V-8.86H55.3a.432.432,0,0,1-.32-.12.432.432,0,0,1-.12-.32v-.64a.468.468,0,0,1,.12-.33.415.415,0,0,1,.32-.13h1.58v-3.34a.468.468,0,0,1,.12-.33.415.415,0,0,1,.32-.13h.88a.447.447,0,0,1,.33.13.447.447,0,0,1,.13.33v3.34h2.48a.447.447,0,0,1,.33.13.447.447,0,0,1,.13.33v.64a.415.415,0,0,1-.13.32.468.468,0,0,1-.33.12H58.66v5.22a2.905,2.905,0,0,0,.33,1.54,1.233,1.233,0,0,0,1.13.52h1.22a.415.415,0,0,1,.32.13.468.468,0,0,1,.12.33v.66a.468.468,0,0,1-.12.33.415.415,0,0,1-.32.13Zm4.06-12.36a.447.447,0,0,1-.33-.13.447.447,0,0,1-.13-.33v-1.04a.482.482,0,0,1,.13-.34.431.431,0,0,1,.33-.14h1.18a.463.463,0,0,1,.34.14.463.463,0,0,1,.14.34v1.04a.431.431,0,0,1-.14.33.482.482,0,0,1-.34.13ZM64.2,0a.447.447,0,0,1-.33-.13.447.447,0,0,1-.13-.33V-9.94a.447.447,0,0,1,.13-.33.447.447,0,0,1,.33-.13h.88a.447.447,0,0,1,.33.13.447.447,0,0,1,.13.33V-.46a.447.447,0,0,1-.13.33.447.447,0,0,1-.33.13Zm7.9.2a5.419,5.419,0,0,1-2.33-.45,3.887,3.887,0,0,1-1.41-1.03,1.714,1.714,0,0,1-.46-.96.372.372,0,0,1,.14-.31.477.477,0,0,1,.3-.11h.84a.383.383,0,0,1,.19.04.865.865,0,0,1,.19.18,3.643,3.643,0,0,0,1.03.88,3.126,3.126,0,0,0,1.53.32,3.274,3.274,0,0,0,1.73-.4A1.283,1.283,0,0,0,74.5-2.8a1.125,1.125,0,0,0-.28-.8,2.42,2.42,0,0,0-.93-.54,15.581,15.581,0,0,0-1.93-.52,4.983,4.983,0,0,1-2.46-1.1,2.517,2.517,0,0,1-.72-1.86,2.624,2.624,0,0,1,.44-1.43,3.167,3.167,0,0,1,1.31-1.12A4.626,4.626,0,0,1,72-10.6a5.007,5.007,0,0,1,2.15.42,3.719,3.719,0,0,1,1.34.98,1.65,1.65,0,0,1,.45.94.391.391,0,0,1-.13.3.441.441,0,0,1-.31.12h-.76a.419.419,0,0,1-.4-.22q-.34-.38-.57-.59a1.9,1.9,0,0,0-.67-.36A3.451,3.451,0,0,0,72-9.16a2.378,2.378,0,0,0-1.5.41,1.318,1.318,0,0,0-.52,1.09,1.141,1.141,0,0,0,.22.71,1.978,1.978,0,0,0,.84.54,11.842,11.842,0,0,0,1.84.51,5.685,5.685,0,0,1,2.69,1.14,2.487,2.487,0,0,1,.79,1.9,2.658,2.658,0,0,1-.49,1.56A3.218,3.218,0,0,1,74.41-.2,6.043,6.043,0,0,1,72.1.2ZM82.82.2a4.31,4.31,0,0,1-3.26-1.27,5.234,5.234,0,0,1-1.34-3.47l-.02-.68.02-.66a5.222,5.222,0,0,1,1.34-3.44,4.293,4.293,0,0,1,3.26-1.28,4.265,4.265,0,0,1,3.41,1.4,5.615,5.615,0,0,1,1.21,3.8v.36a.447.447,0,0,1-.13.33.447.447,0,0,1-.33.13H80.04v.18a3.716,3.716,0,0,0,.8,2.22,2.39,2.39,0,0,0,1.96.92,2.841,2.841,0,0,0,1.53-.37,3.263,3.263,0,0,0,.89-.77,1.04,1.04,0,0,1,.28-.29.824.824,0,0,1,.34-.05h.88a.494.494,0,0,1,.31.1.313.313,0,0,1,.13.26,1.773,1.773,0,0,1-.54,1.06A4.415,4.415,0,0,1,85.09-.25,5.432,5.432,0,0,1,82.82.2Zm2.8-6.14V-6a3.364,3.364,0,0,0-.76-2.28,2.559,2.559,0,0,0-2.04-.88,2.522,2.522,0,0,0-2.04.88A3.422,3.422,0,0,0,80.04-6v.06ZM99.62.2a4.507,4.507,0,0,1-3.77-1.51,6.558,6.558,0,0,1-1.27-3.95l-.02-1.72.02-1.78a6.356,6.356,0,0,1,1.27-3.93,4.542,4.542,0,0,1,3.77-1.51,4.566,4.566,0,0,1,3.79,1.51,6.356,6.356,0,0,1,1.27,3.93q.02.56.02,1.78,0,1.18-.02,1.72a6.558,6.558,0,0,1-1.27,3.95A4.532,4.532,0,0,1,99.62.2Zm0-1.66a2.738,2.738,0,0,0,2.32-1.02,4.832,4.832,0,0,0,.82-2.88q.02-.58.02-1.66,0-1.1-.02-1.64a4.8,4.8,0,0,0-.83-2.87,2.733,2.733,0,0,0-2.31-1.03,2.705,2.705,0,0,0-2.3,1.03,4.844,4.844,0,0,0-.82,2.87l-.02,1.64.02,1.66a4.832,4.832,0,0,0,.82,2.88A2.716,2.716,0,0,0,99.62-1.46ZM111.48,0a.415.415,0,0,1-.32-.13.468.468,0,0,1-.12-.33V-11.74l-3.36,2.58a.453.453,0,0,1-.3.12.445.445,0,0,1-.34-.2l-.48-.62a.48.48,0,0,1-.1-.28.423.423,0,0,1,.2-.36L111-13.86a.948.948,0,0,1,.52-.14h.94a.447.447,0,0,1,.33.13.447.447,0,0,1,.13.33V-.46a.447.447,0,0,1-.13.33.447.447,0,0,1-.33.13Z" transform="translate(-270 1308)" fill="#836fff"/>
    <path id="路径_74" data-name="路径 74" d="M1.44,0a.447.447,0,0,1-.33-.13A.447.447,0,0,1,.98-.46v-.6a1.173,1.173,0,0,1,.5-.88L5.84-6.28A12.418,12.418,0,0,0,7.88-8.34a2.913,2.913,0,0,0,.56-1.7,2.522,2.522,0,0,0-.66-1.85,2.578,2.578,0,0,0-1.92-.67,2.567,2.567,0,0,0-1.9.7A3.172,3.172,0,0,0,3.1-9.98a.524.524,0,0,1-.2.34.532.532,0,0,1-.32.12H1.62a.407.407,0,0,1-.3-.12.384.384,0,0,1-.12-.28,4.672,4.672,0,0,1,.57-2.05,4.2,4.2,0,0,1,1.57-1.62,4.776,4.776,0,0,1,2.52-.63,4.48,4.48,0,0,1,3.37,1.17,4.1,4.1,0,0,1,1.13,2.97,4.3,4.3,0,0,1-.61,2.27A9.268,9.268,0,0,1,7.84-5.68l-3.94,4h6.3a.46.46,0,0,1,.34.12.46.46,0,0,1,.12.34v.76a.447.447,0,0,1-.13.33A.447.447,0,0,1,10.2,0ZM13.12,0a.447.447,0,0,1-.33-.13.447.447,0,0,1-.13-.33v-.6a1.173,1.173,0,0,1,.5-.88l4.36-4.34a12.418,12.418,0,0,0,2.04-2.06,2.913,2.913,0,0,0,.56-1.7,2.522,2.522,0,0,0-.66-1.85,2.578,2.578,0,0,0-1.92-.67,2.567,2.567,0,0,0-1.9.7,3.172,3.172,0,0,0-.86,1.88.524.524,0,0,1-.2.34.532.532,0,0,1-.32.12H13.3a.407.407,0,0,1-.3-.12.384.384,0,0,1-.12-.28,4.672,4.672,0,0,1,.57-2.05,4.2,4.2,0,0,1,1.57-1.62,4.776,4.776,0,0,1,2.52-.63,4.48,4.48,0,0,1,3.37,1.17,4.1,4.1,0,0,1,1.13,2.97,4.3,4.3,0,0,1-.61,2.27,9.268,9.268,0,0,1-1.91,2.13l-3.94,4h6.3a.46.46,0,0,1,.34.12.46.46,0,0,1,.12.34v.76a.447.447,0,0,1-.13.33.447.447,0,0,1-.33.13ZM29.68.2a4.507,4.507,0,0,1-3.77-1.51,6.558,6.558,0,0,1-1.27-3.95l-.02-1.72.02-1.78a6.356,6.356,0,0,1,1.27-3.93,4.542,4.542,0,0,1,3.77-1.51,4.566,4.566,0,0,1,3.79,1.51,6.356,6.356,0,0,1,1.27,3.93q.02.56.02,1.78,0,1.18-.02,1.72a6.558,6.558,0,0,1-1.27,3.95A4.532,4.532,0,0,1,29.68.2Zm0-1.66A2.738,2.738,0,0,0,32-2.48a4.832,4.832,0,0,0,.82-2.88q.02-.58.02-1.66,0-1.1-.02-1.64a4.8,4.8,0,0,0-.83-2.87,2.733,2.733,0,0,0-2.31-1.03,2.705,2.705,0,0,0-2.3,1.03,4.844,4.844,0,0,0-.82,2.87l-.02,1.64.02,1.66a4.832,4.832,0,0,0,.82,2.88A2.716,2.716,0,0,0,29.68-1.46ZM37.04,0a.407.407,0,0,1-.3-.12.407.407,0,0,1-.12-.3.67.67,0,0,1,.14-.38l3.48-4.52-3.26-4.3a.677.677,0,0,1-.16-.36.391.391,0,0,1,.13-.3.418.418,0,0,1,.29-.12h.96a.629.629,0,0,1,.52.32l2.7,3.5,2.7-3.5a1.143,1.143,0,0,1,.23-.24.482.482,0,0,1,.29-.08h.92a.384.384,0,0,1,.28.12.384.384,0,0,1,.12.28.61.61,0,0,1-.14.38l-3.3,4.34L46-.8a.67.67,0,0,1,.14.38.407.407,0,0,1-.12.3.407.407,0,0,1-.3.12h-.98a.636.636,0,0,1-.52-.3L41.36-4,38.5-.3a1.386,1.386,0,0,1-.23.22.482.482,0,0,1-.29.08ZM48.2,0a.447.447,0,0,1-.33-.13.447.447,0,0,1-.13-.33v-.6a1.173,1.173,0,0,1,.5-.88L52.6-6.28a12.418,12.418,0,0,0,2.04-2.06,2.913,2.913,0,0,0,.56-1.7,2.522,2.522,0,0,0-.66-1.85,2.578,2.578,0,0,0-1.92-.67,2.567,2.567,0,0,0-1.9.7,3.172,3.172,0,0,0-.86,1.88.524.524,0,0,1-.2.34.532.532,0,0,1-.32.12h-.96a.407.407,0,0,1-.3-.12.384.384,0,0,1-.12-.28,4.672,4.672,0,0,1,.57-2.05,4.2,4.2,0,0,1,1.57-1.62,4.776,4.776,0,0,1,2.52-.63,4.48,4.48,0,0,1,3.37,1.17,4.1,4.1,0,0,1,1.13,2.97,4.3,4.3,0,0,1-.61,2.27A9.268,9.268,0,0,1,54.6-5.68l-3.94,4h6.3a.46.46,0,0,1,.34.12.46.46,0,0,1,.12.34v.76a.447.447,0,0,1-.13.33.447.447,0,0,1-.33.13ZM62.32,0a.361.361,0,0,1-.29-.13.464.464,0,0,1-.11-.31A.46.46,0,0,1,62-.7l3.08-4.28a4.65,4.65,0,0,1-1.12.12,4.929,4.929,0,0,1-2.52-.67,4.433,4.433,0,0,1-1.65-1.7,4.644,4.644,0,0,1-.57-2.25,4.817,4.817,0,0,1,.57-2.28,4.482,4.482,0,0,1,1.7-1.76,5.2,5.2,0,0,1,2.73-.68,5.38,5.38,0,0,1,2.74.66,4.42,4.42,0,0,1,1.72,1.73,4.733,4.733,0,0,1,.58,2.29,4.561,4.561,0,0,1-.39,1.94,11.077,11.077,0,0,1-1.03,1.74L63.96-.4a1.939,1.939,0,0,1-.27.29.557.557,0,0,1-.37.11Zm1.9-6.44a3.333,3.333,0,0,0,1.58-.38,2.887,2.887,0,0,0,1.14-1.07,3,3,0,0,0,.42-1.59,3.087,3.087,0,0,0-.42-1.62,2.866,2.866,0,0,0-1.14-1.08,3.333,3.333,0,0,0-1.58-.38,3.233,3.233,0,0,0-1.55.38,2.884,2.884,0,0,0-1.13,1.08,3.087,3.087,0,0,0-.42,1.62,3,3,0,0,0,.42,1.59,2.925,2.925,0,0,0,1.12,1.07A3.216,3.216,0,0,0,64.22-6.44ZM76.58.2a4.507,4.507,0,0,1-3.77-1.51,6.558,6.558,0,0,1-1.27-3.95l-.02-1.72.02-1.78a6.356,6.356,0,0,1,1.27-3.93,4.542,4.542,0,0,1,3.77-1.51,4.566,4.566,0,0,1,3.79,1.51,6.356,6.356,0,0,1,1.27,3.93q.02.56.02,1.78,0,1.18-.02,1.72a6.558,6.558,0,0,1-1.27,3.95A4.532,4.532,0,0,1,76.58.2Zm0-1.66A2.738,2.738,0,0,0,78.9-2.48a4.832,4.832,0,0,0,.82-2.88q.02-.58.02-1.66,0-1.1-.02-1.64a4.8,4.8,0,0,0-.83-2.87,2.733,2.733,0,0,0-2.31-1.03,2.705,2.705,0,0,0-2.3,1.03,4.844,4.844,0,0,0-.82,2.87l-.02,1.64.02,1.66a4.832,4.832,0,0,0,.82,2.88A2.716,2.716,0,0,0,76.58-1.46Z" transform="translate(-254 1332)" fill="#836fff"/>
  </g>
</svg>
