<svg xmlns="http://www.w3.org/2000/svg" width="200" height="110" viewBox="0 0 200 110">
  <g id="组_422" data-name="组 422" transform="translate(313 -1738)">
    <path id="路径_87" data-name="路径 87" d="M10,0H190a10,10,0,0,1,10,10v90a10,10,0,0,1-10,10H10A10,10,0,0,1,0,100V10A10,10,0,0,1,10,0Z" transform="translate(-113 1848) rotate(180)" fill="#fff"/>
    <g id="路径_88" data-name="路径 88" transform="translate(-123 1838) rotate(180)" fill="none">
      <path d="M2,0H178a2,2,0,0,1,2,2V88a2,2,0,0,1-2,2H2a2,2,0,0,1-2-2V2A2,2,0,0,1,2,0Z" stroke="none"/>
      <path d="M 2 2 L 2 88 L 178 88 L 178 2 L 2 2 M 2 0 L 178 0 C 179.1045684814453 0 180 0.8954315185546875 180 2 L 180 88 C 180 89.10456848144531 179.1045684814453 90 178 90 L 2 90 C 0.8954315185546875 90 0 89.10456848144531 0 88 L 0 2 C 0 0.8954315185546875 0.8954315185546875 0 2 0 Z" stroke="none" fill="#836fff"/>
    </g>
    <path id="路径_89" data-name="路径 89" d="M.8,0A.384.384,0,0,1,.52-.12.384.384,0,0,1,.4-.4L.44-.62,5.4-13.56A.622.622,0,0,1,6.04-14H7.32a.622.622,0,0,1,.64.44L12.92-.62l.04.22a.37.37,0,0,1-.13.28.418.418,0,0,1-.29.12H11.6a.493.493,0,0,1-.33-.11.529.529,0,0,1-.17-.23L9.98-3.22H3.36L2.26-.34a.525.525,0,0,1-.5.34ZM3.94-4.88H9.42L6.68-12.06ZM18.54.2a3.732,3.732,0,0,1-3.15-1.36A5.847,5.847,0,0,1,14.26-4.6l-.02-.6.02-.6A5.823,5.823,0,0,1,15.4-9.23a3.725,3.725,0,0,1,3.14-1.37,3.883,3.883,0,0,1,3.24,1.48v-4.62a.447.447,0,0,1,.13-.33.447.447,0,0,1,.33-.13h.9a.447.447,0,0,1,.33.13.447.447,0,0,1,.13.33V-.46a.447.447,0,0,1-.13.33.447.447,0,0,1-.33.13h-.86a.415.415,0,0,1-.32-.13.468.468,0,0,1-.12-.33v-.86A3.873,3.873,0,0,1,18.54.2Zm.38-1.56a2.461,2.461,0,0,0,2.1-.93,3.885,3.885,0,0,0,.76-2.21q.02-.22.02-.76,0-.56-.02-.78a3.408,3.408,0,0,0-.77-2.11,2.549,2.549,0,0,0-2.09-.89,2.43,2.43,0,0,0-2.1.9,4.2,4.2,0,0,0-.72,2.36l-.02.58Q16.08-1.36,18.92-1.36ZM30.24,0a.758.758,0,0,1-.74-.5L25.78-9.78a.7.7,0,0,1-.02-.2.407.407,0,0,1,.12-.3.384.384,0,0,1,.28-.12h.92a.513.513,0,0,1,.48.32L30.64-2.1l3.08-7.98a.471.471,0,0,1,.17-.22.494.494,0,0,1,.31-.1h.92a.384.384,0,0,1,.28.12.407.407,0,0,1,.12.3l-.04.2L31.78-.5a.758.758,0,0,1-.74.5ZM41.4.2a4.31,4.31,0,0,1-3.26-1.27A5.234,5.234,0,0,1,36.8-4.54l-.02-.68.02-.66a5.222,5.222,0,0,1,1.34-3.44A4.293,4.293,0,0,1,41.4-10.6a4.265,4.265,0,0,1,3.41,1.4,5.615,5.615,0,0,1,1.21,3.8v.36a.447.447,0,0,1-.13.33.447.447,0,0,1-.33.13H38.62v.18a3.716,3.716,0,0,0,.8,2.22,2.39,2.39,0,0,0,1.96.92,2.841,2.841,0,0,0,1.53-.37,3.263,3.263,0,0,0,.89-.77,1.04,1.04,0,0,1,.28-.29.824.824,0,0,1,.34-.05h.88a.494.494,0,0,1,.31.1.313.313,0,0,1,.13.26,1.773,1.773,0,0,1-.54,1.06A4.415,4.415,0,0,1,43.67-.25,5.432,5.432,0,0,1,41.4.2Zm2.8-6.14V-6a3.364,3.364,0,0,0-.76-2.28,2.559,2.559,0,0,0-2.04-.88,2.522,2.522,0,0,0-2.04.88A3.422,3.422,0,0,0,38.62-6v.06ZM48.92,0a.447.447,0,0,1-.33-.13.447.447,0,0,1-.13-.33V-9.92a.482.482,0,0,1,.13-.34.431.431,0,0,1,.33-.14h.84a.473.473,0,0,1,.35.13.473.473,0,0,1,.13.35v.88a2.984,2.984,0,0,1,2.78-1.36h.78a.46.46,0,0,1,.34.12.46.46,0,0,1,.12.34v.74a.468.468,0,0,1-.12.33.44.44,0,0,1-.34.13H52.66a2.317,2.317,0,0,0-1.73.64,2.372,2.372,0,0,0-.63,1.74v5.9a.431.431,0,0,1-.14.33.482.482,0,0,1-.34.13ZM59.98,0q-3.1,0-3.1-3.5V-8.86H55.3a.432.432,0,0,1-.32-.12.432.432,0,0,1-.12-.32v-.64a.468.468,0,0,1,.12-.33.415.415,0,0,1,.32-.13h1.58v-3.34a.468.468,0,0,1,.12-.33.415.415,0,0,1,.32-.13h.88a.447.447,0,0,1,.33.13.447.447,0,0,1,.13.33v3.34h2.48a.447.447,0,0,1,.33.13.447.447,0,0,1,.13.33v.64a.415.415,0,0,1-.13.32.468.468,0,0,1-.33.12H58.66v5.22a2.905,2.905,0,0,0,.33,1.54,1.233,1.233,0,0,0,1.13.52h1.22a.415.415,0,0,1,.32.13.468.468,0,0,1,.12.33v.66a.468.468,0,0,1-.12.33.415.415,0,0,1-.32.13Zm4.06-12.36a.447.447,0,0,1-.33-.13.447.447,0,0,1-.13-.33v-1.04a.482.482,0,0,1,.13-.34.431.431,0,0,1,.33-.14h1.18a.463.463,0,0,1,.34.14.463.463,0,0,1,.14.34v1.04a.431.431,0,0,1-.14.33.482.482,0,0,1-.34.13ZM64.2,0a.447.447,0,0,1-.33-.13.447.447,0,0,1-.13-.33V-9.94a.447.447,0,0,1,.13-.33.447.447,0,0,1,.33-.13h.88a.447.447,0,0,1,.33.13.447.447,0,0,1,.13.33V-.46a.447.447,0,0,1-.13.33.447.447,0,0,1-.33.13Zm7.9.2a5.419,5.419,0,0,1-2.33-.45,3.887,3.887,0,0,1-1.41-1.03,1.714,1.714,0,0,1-.46-.96.372.372,0,0,1,.14-.31.477.477,0,0,1,.3-.11h.84a.383.383,0,0,1,.19.04.865.865,0,0,1,.19.18,3.643,3.643,0,0,0,1.03.88,3.126,3.126,0,0,0,1.53.32,3.274,3.274,0,0,0,1.73-.4A1.283,1.283,0,0,0,74.5-2.8a1.125,1.125,0,0,0-.28-.8,2.42,2.42,0,0,0-.93-.54,15.581,15.581,0,0,0-1.93-.52,4.983,4.983,0,0,1-2.46-1.1,2.517,2.517,0,0,1-.72-1.86,2.624,2.624,0,0,1,.44-1.43,3.167,3.167,0,0,1,1.31-1.12A4.626,4.626,0,0,1,72-10.6a5.007,5.007,0,0,1,2.15.42,3.719,3.719,0,0,1,1.34.98,1.65,1.65,0,0,1,.45.94.391.391,0,0,1-.13.3.441.441,0,0,1-.31.12h-.76a.419.419,0,0,1-.4-.22q-.34-.38-.57-.59a1.9,1.9,0,0,0-.67-.36A3.451,3.451,0,0,0,72-9.16a2.378,2.378,0,0,0-1.5.41,1.318,1.318,0,0,0-.52,1.09,1.141,1.141,0,0,0,.22.71,1.978,1.978,0,0,0,.84.54,11.842,11.842,0,0,0,1.84.51,5.685,5.685,0,0,1,2.69,1.14,2.487,2.487,0,0,1,.79,1.9,2.658,2.658,0,0,1-.49,1.56A3.218,3.218,0,0,1,74.41-.2,6.043,6.043,0,0,1,72.1.2ZM82.82.2a4.31,4.31,0,0,1-3.26-1.27,5.234,5.234,0,0,1-1.34-3.47l-.02-.68.02-.66a5.222,5.222,0,0,1,1.34-3.44,4.293,4.293,0,0,1,3.26-1.28,4.265,4.265,0,0,1,3.41,1.4,5.615,5.615,0,0,1,1.21,3.8v.36a.447.447,0,0,1-.13.33.447.447,0,0,1-.33.13H80.04v.18a3.716,3.716,0,0,0,.8,2.22,2.39,2.39,0,0,0,1.96.92,2.841,2.841,0,0,0,1.53-.37,3.263,3.263,0,0,0,.89-.77,1.04,1.04,0,0,1,.28-.29.824.824,0,0,1,.34-.05h.88a.494.494,0,0,1,.31.1.313.313,0,0,1,.13.26,1.773,1.773,0,0,1-.54,1.06A4.415,4.415,0,0,1,85.09-.25,5.432,5.432,0,0,1,82.82.2Zm2.8-6.14V-6a3.364,3.364,0,0,0-.76-2.28,2.559,2.559,0,0,0-2.04-.88,2.522,2.522,0,0,0-2.04.88A3.422,3.422,0,0,0,80.04-6v.06ZM99.62.2a4.507,4.507,0,0,1-3.77-1.51,6.558,6.558,0,0,1-1.27-3.95l-.02-1.72.02-1.78a6.356,6.356,0,0,1,1.27-3.93,4.542,4.542,0,0,1,3.77-1.51,4.566,4.566,0,0,1,3.79,1.51,6.356,6.356,0,0,1,1.27,3.93q.02.56.02,1.78,0,1.18-.02,1.72a6.558,6.558,0,0,1-1.27,3.95A4.532,4.532,0,0,1,99.62.2Zm0-1.66a2.738,2.738,0,0,0,2.32-1.02,4.832,4.832,0,0,0,.82-2.88q.02-.58.02-1.66,0-1.1-.02-1.64a4.8,4.8,0,0,0-.83-2.87,2.733,2.733,0,0,0-2.31-1.03,2.705,2.705,0,0,0-2.3,1.03,4.844,4.844,0,0,0-.82,2.87l-.02,1.64.02,1.66a4.832,4.832,0,0,0,.82,2.88A2.716,2.716,0,0,0,99.62-1.46ZM111.78.2a5.84,5.84,0,0,1-2.6-.54,4.163,4.163,0,0,1-1.68-1.41,3.575,3.575,0,0,1-.62-1.87v-.04a.322.322,0,0,1,.12-.26.424.424,0,0,1,.28-.1h.98a.523.523,0,0,1,.54.44,2.7,2.7,0,0,0,1.11,1.61,3.338,3.338,0,0,0,1.87.53,3.205,3.205,0,0,0,2.26-.83,2.961,2.961,0,0,0,.9-2.29,2.691,2.691,0,0,0-.9-2.13,3.3,3.3,0,0,0-2.26-.79,3.113,3.113,0,0,0-1.16.18,4.21,4.21,0,0,0-.9.52,3.239,3.239,0,0,1-.43.29.779.779,0,0,1-.37.09h-.96a.457.457,0,0,1-.32-.13.351.351,0,0,1-.12-.31l.62-6.66q.06-.5.5-.5h6.92a.46.46,0,0,1,.34.12.46.46,0,0,1,.12.34v.74a.415.415,0,0,1-.13.32.468.468,0,0,1-.33.12H109.8l-.36,4.02a4.383,4.383,0,0,1,2.58-.68,5.548,5.548,0,0,1,2.44.53,4.191,4.191,0,0,1,1.75,1.55,4.407,4.407,0,0,1,.65,2.42,4.818,4.818,0,0,1-.65,2.55,4.157,4.157,0,0,1-1.8,1.62A6.024,6.024,0,0,1,111.78.2Z" transform="translate(-270 1788)" fill="#836fff"/>
    <path id="路径_90" data-name="路径 90" d="M8.04,0a.447.447,0,0,1-.33-.13.447.447,0,0,1-.13-.33V-3.38H1.08a.447.447,0,0,1-.33-.13.447.447,0,0,1-.13-.33v-.74a1.075,1.075,0,0,1,.22-.6l6.02-8.48a.661.661,0,0,1,.3-.25A1.06,1.06,0,0,1,7.6-14H8.96a.46.46,0,0,1,.34.12.46.46,0,0,1,.12.34v8.48h1.82a.447.447,0,0,1,.33.13.447.447,0,0,1,.13.33v.76a.447.447,0,0,1-.13.33.447.447,0,0,1-.33.13H9.42V-.46a.447.447,0,0,1-.13.33A.447.447,0,0,1,8.96,0ZM2.7-5.02H7.6v-6.96ZM18.7.2a6.821,6.821,0,0,1-2.71-.51,4.175,4.175,0,0,1-1.85-1.47,3.857,3.857,0,0,1-.66-2.24,3.659,3.659,0,0,1,.59-2.07,3.881,3.881,0,0,1,1.59-1.37,3.327,3.327,0,0,1-1.24-1.21,3.435,3.435,0,0,1-.44-1.77,3.3,3.3,0,0,1,1.3-2.75A5.42,5.42,0,0,1,18.7-14.2a5.415,5.415,0,0,1,3.41,1,3.3,3.3,0,0,1,1.29,2.76,3.4,3.4,0,0,1-.44,1.75,3.531,3.531,0,0,1-1.22,1.23,3.881,3.881,0,0,1,1.59,1.37A3.7,3.7,0,0,1,23.92-4a3.81,3.81,0,0,1-.66,2.23A4.2,4.2,0,0,1,21.41-.31,6.821,6.821,0,0,1,18.7.2Zm0-8.36a3.667,3.667,0,0,0,2.06-.64,1.872,1.872,0,0,0,.84-1.6,1.923,1.923,0,0,0-.83-1.63,3.4,3.4,0,0,0-2.07-.61,3.391,3.391,0,0,0-2.08.61,1.93,1.93,0,0,0-.82,1.63,1.93,1.93,0,0,0,.82,1.63A3.391,3.391,0,0,0,18.7-8.16Zm0,6.8a3.811,3.811,0,0,0,2.37-.72A2.289,2.289,0,0,0,22.02-4a2.289,2.289,0,0,0-.95-1.92,3.811,3.811,0,0,0-2.37-.72,3.844,3.844,0,0,0-2.39.72A2.289,2.289,0,0,0,15.36-4a2.289,2.289,0,0,0,.95,1.92A3.844,3.844,0,0,0,18.7-1.36ZM31.36.2a4.507,4.507,0,0,1-3.77-1.51,6.558,6.558,0,0,1-1.27-3.95L26.3-6.98l.02-1.78a6.356,6.356,0,0,1,1.27-3.93,4.542,4.542,0,0,1,3.77-1.51,4.566,4.566,0,0,1,3.79,1.51,6.356,6.356,0,0,1,1.27,3.93q.02.56.02,1.78,0,1.18-.02,1.72a6.558,6.558,0,0,1-1.27,3.95A4.532,4.532,0,0,1,31.36.2Zm0-1.66a2.738,2.738,0,0,0,2.32-1.02,4.832,4.832,0,0,0,.82-2.88q.02-.58.02-1.66,0-1.1-.02-1.64a4.8,4.8,0,0,0-.83-2.87,2.733,2.733,0,0,0-2.31-1.03,2.705,2.705,0,0,0-2.3,1.03,4.844,4.844,0,0,0-.82,2.87l-.02,1.64.02,1.66a4.832,4.832,0,0,0,.82,2.88A2.716,2.716,0,0,0,31.36-1.46ZM38.72,0a.407.407,0,0,1-.3-.12.407.407,0,0,1-.12-.3.67.67,0,0,1,.14-.38l3.48-4.52-3.26-4.3a.677.677,0,0,1-.16-.36.391.391,0,0,1,.13-.3.418.418,0,0,1,.29-.12h.96a.629.629,0,0,1,.52.32l2.7,3.5,2.7-3.5a1.143,1.143,0,0,1,.23-.24.482.482,0,0,1,.29-.08h.92a.384.384,0,0,1,.28.12.384.384,0,0,1,.12.28.61.61,0,0,1-.14.38L44.2-5.28,47.68-.8a.67.67,0,0,1,.14.38.407.407,0,0,1-.12.3.407.407,0,0,1-.3.12h-.98a.636.636,0,0,1-.52-.3L43.04-4,40.18-.3a1.386,1.386,0,0,1-.23.22.482.482,0,0,1-.29.08ZM56.48,0a.447.447,0,0,1-.33-.13.447.447,0,0,1-.13-.33V-3.38h-6.5a.447.447,0,0,1-.33-.13.447.447,0,0,1-.13-.33v-.74a1.075,1.075,0,0,1,.22-.6l6.02-8.48a.661.661,0,0,1,.3-.25,1.06,1.06,0,0,1,.44-.09H57.4a.46.46,0,0,1,.34.12.46.46,0,0,1,.12.34v8.48h1.82a.447.447,0,0,1,.33.13.447.447,0,0,1,.13.33v.76a.447.447,0,0,1-.13.33.447.447,0,0,1-.33.13H57.86V-.46a.447.447,0,0,1-.13.33A.447.447,0,0,1,57.4,0ZM51.14-5.02h4.9v-6.96ZM66.72.2a6.57,6.57,0,0,1-2.7-.51,4.158,4.158,0,0,1-1.73-1.33,3.126,3.126,0,0,1-.63-1.7.375.375,0,0,1,.12-.29.427.427,0,0,1,.3-.11h.9a.655.655,0,0,1,.36.09.612.612,0,0,1,.22.35,2.075,2.075,0,0,0,1.13,1.44,4.669,4.669,0,0,0,2.05.42,3.527,3.527,0,0,0,2.29-.69,2.392,2.392,0,0,0,.85-1.97q0-2.44-2.98-2.44H65.02a.447.447,0,0,1-.33-.13A.447.447,0,0,1,64.56-7v-.52a.711.711,0,0,1,.22-.52l3.9-4.32H62.76a.468.468,0,0,1-.33-.12.415.415,0,0,1-.13-.32v-.72a.473.473,0,0,1,.13-.35.447.447,0,0,1,.33-.13h7.92a.473.473,0,0,1,.35.13.473.473,0,0,1,.13.35v.66a.733.733,0,0,1-.2.46l-3.9,4.38h.32a5.107,5.107,0,0,1,3.23,1.06A3.6,3.6,0,0,1,71.8-4.04a3.922,3.922,0,0,1-.65,2.27A4.16,4.16,0,0,1,69.34-.31,6.446,6.446,0,0,1,66.72.2ZM79.08.2a4.507,4.507,0,0,1-3.77-1.51,6.558,6.558,0,0,1-1.27-3.95l-.02-1.72.02-1.78a6.356,6.356,0,0,1,1.27-3.93,4.542,4.542,0,0,1,3.77-1.51,4.566,4.566,0,0,1,3.79,1.51,6.356,6.356,0,0,1,1.27,3.93q.02.56.02,1.78,0,1.18-.02,1.72a6.558,6.558,0,0,1-1.27,3.95A4.532,4.532,0,0,1,79.08.2Zm0-1.66A2.738,2.738,0,0,0,81.4-2.48a4.832,4.832,0,0,0,.82-2.88q.02-.58.02-1.66,0-1.1-.02-1.64a4.8,4.8,0,0,0-.83-2.87,2.733,2.733,0,0,0-2.31-1.03,2.705,2.705,0,0,0-2.3,1.03,4.844,4.844,0,0,0-.82,2.87l-.02,1.64.02,1.66a4.832,4.832,0,0,0,.82,2.88A2.716,2.716,0,0,0,79.08-1.46Z" transform="translate(-254 1812)" fill="#836fff"/>
  </g>
</svg>
