<svg xmlns="http://www.w3.org/2000/svg" width="200" height="110" viewBox="0 0 200 110">
  <g id="组_264" data-name="组 264" transform="translate(469 -1684)">
    <rect id="矩形_494" data-name="矩形 494" width="200" height="110" rx="10" transform="translate(-469 1684)" fill="#fff"/>
    <g id="组_256" data-name="组 256" transform="translate(1 55)">
      <path id="矩形_467" data-name="矩形 467" d="M3,3V37H82V3H3M2,0H83a2,2,0,0,1,2,2V38a2,2,0,0,1-2,2H2a2,2,0,0,1-2-2V2A2,2,0,0,1,2,0Z" transform="translate(-367 1687)" fill="#836fff"/>
      <path id="矩形_469" data-name="矩形 469" d="M3,3V37H82V3H3M2,0H83a2,2,0,0,1,2,2V38a2,2,0,0,1-2,2H2a2,2,0,0,1-2-2V2A2,2,0,0,1,2,0Z" transform="translate(-457 1642)" fill="#836fff"/>
      <path id="矩形_471" data-name="矩形 471" d="M3,3V37H37V3H3M2,0H38a2,2,0,0,1,2,2V38a2,2,0,0,1-2,2H2a2,2,0,0,1-2-2V2A2,2,0,0,1,2,0Z" transform="translate(-457 1687)" fill="#836fff"/>
      <path id="矩形_473" data-name="矩形 473" d="M3,3V37H37V3H3M2,0H38a2,2,0,0,1,2,2V38a2,2,0,0,1-2,2H2a2,2,0,0,1-2-2V2A2,2,0,0,1,2,0Z" transform="translate(-367 1642)" fill="#836fff"/>
      <path id="矩形_470" data-name="矩形 470" d="M3,3V37H37V3H3M2,0H38a2,2,0,0,1,2,2V38a2,2,0,0,1-2,2H2a2,2,0,0,1-2-2V2A2,2,0,0,1,2,0Z" transform="translate(-412 1687)" fill="#836fff"/>
      <path id="矩形_472" data-name="矩形 472" d="M3,3V37H37V3H3M2,0H38a2,2,0,0,1,2,2V38a2,2,0,0,1-2,2H2a2,2,0,0,1-2-2V2A2,2,0,0,1,2,0Z" transform="translate(-322 1642)" fill="#836fff"/>
    </g>
  </g>
</svg>
