<svg xmlns="http://www.w3.org/2000/svg" width="200" height="110" viewBox="0 0 200 110">
  <g id="组_265" data-name="组 265" transform="translate(469 -1813)">
    <rect id="矩形_495" data-name="矩形 495" width="200" height="110" rx="10" transform="translate(-469 1813)" fill="#fff"/>
    <g id="组_257" data-name="组 257" transform="translate(1 79)">
      <path id="矩形_474" data-name="矩形 474" d="M3,3V37H82V3H3M2,0H83a2,2,0,0,1,2,2V38a2,2,0,0,1-2,2H2a2,2,0,0,1-2-2V2A2,2,0,0,1,2,0Z" transform="translate(-457 1792)" fill="#836fff"/>
      <path id="矩形_476" data-name="矩形 476" d="M3,3V37H82V3H3M2,0H83a2,2,0,0,1,2,2V38a2,2,0,0,1-2,2H2a2,2,0,0,1-2-2V2A2,2,0,0,1,2,0Z" transform="translate(-457 1747)" fill="#836fff"/>
      <path id="矩形_478" data-name="矩形 478" d="M3,3V37H37V3H3M2,0H38a2,2,0,0,1,2,2V38a2,2,0,0,1-2,2H2a2,2,0,0,1-2-2V2A2,2,0,0,1,2,0Z" transform="translate(-367 1747)" fill="#836fff"/>
      <path id="矩形_481" data-name="矩形 481" d="M3,3V37H37V3H3M2,0H38a2,2,0,0,1,2,2V38a2,2,0,0,1-2,2H2a2,2,0,0,1-2-2V2A2,2,0,0,1,2,0Z" transform="translate(-367 1792)" fill="#836fff"/>
      <path id="矩形_479" data-name="矩形 479" d="M3,3V37H37V3H3M2,0H38a2,2,0,0,1,2,2V38a2,2,0,0,1-2,2H2a2,2,0,0,1-2-2V2A2,2,0,0,1,2,0Z" transform="translate(-322 1747)" fill="#836fff"/>
      <path id="矩形_480" data-name="矩形 480" d="M3,3V37H37V3H3M2,0H38a2,2,0,0,1,2,2V38a2,2,0,0,1-2,2H2a2,2,0,0,1-2-2V2A2,2,0,0,1,2,0Z" transform="translate(-322 1792)" fill="#836fff"/>
    </g>
  </g>
</svg>
