<svg xmlns="http://www.w3.org/2000/svg" width="200" height="110" viewBox="0 0 200 110">
  <g id="组_259" data-name="组 259" transform="translate(469 -1038)">
    <rect id="矩形_489" data-name="矩形 489" width="200" height="110" rx="10" transform="translate(-469 1038)" fill="#fff"/>
    <g id="组_253" data-name="组 253" transform="translate(1 -45)">
      <path id="矩形_431" data-name="矩形 431" d="M3,3V37H82V3H3M2,0H83a2,2,0,0,1,2,2V38a2,2,0,0,1-2,2H2a2,2,0,0,1-2-2V2A2,2,0,0,1,2,0Z" transform="translate(-457 1096)" fill="#836fff"/>
      <path id="矩形_432" data-name="矩形 432" d="M3,3V37H37V3H3M2,0H38a2,2,0,0,1,2,2V38a2,2,0,0,1-2,2H2a2,2,0,0,1-2-2V2A2,2,0,0,1,2,0Z" transform="translate(-367 1096)" fill="#836fff"/>
      <path id="矩形_434" data-name="矩形 434" d="M3,3V37H37V3H3M2,0H38a2,2,0,0,1,2,2V38a2,2,0,0,1-2,2H2a2,2,0,0,1-2-2V2A2,2,0,0,1,2,0Z" transform="translate(-367 1141)" fill="#836fff"/>
      <path id="矩形_437" data-name="矩形 437" d="M3,3V37H37V3H3M2,0H38a2,2,0,0,1,2,2V38a2,2,0,0,1-2,2H2a2,2,0,0,1-2-2V2A2,2,0,0,1,2,0Z" transform="translate(-457 1141)" fill="#836fff"/>
      <path id="矩形_435" data-name="矩形 435" d="M3,3V37H37V3H3M2,0H38a2,2,0,0,1,2,2V38a2,2,0,0,1-2,2H2a2,2,0,0,1-2-2V2A2,2,0,0,1,2,0Z" transform="translate(-322 1141)" fill="#836fff"/>
      <path id="矩形_436" data-name="矩形 436" d="M3,3V37H37V3H3M2,0H38a2,2,0,0,1,2,2V38a2,2,0,0,1-2,2H2a2,2,0,0,1-2-2V2A2,2,0,0,1,2,0Z" transform="translate(-412 1141)" fill="#836fff"/>
      <path id="矩形_433" data-name="矩形 433" d="M3,3V37H37V3H3M2,0H38a2,2,0,0,1,2,2V38a2,2,0,0,1-2,2H2a2,2,0,0,1-2-2V2A2,2,0,0,1,2,0Z" transform="translate(-322 1096)" fill="#836fff"/>
    </g>
  </g>
</svg>
