<svg xmlns="http://www.w3.org/2000/svg" width="200" height="110" viewBox="0 0 200 110">
  <g id="组_266" data-name="组 266" transform="translate(469 -1942)">
    <rect id="矩形_496" data-name="矩形 496" width="200" height="110" rx="10" transform="translate(-469 1942)" fill="#fff"/>
    <g id="组_258" data-name="组 258" transform="translate(1 103)">
      <path id="矩形_482" data-name="矩形 482" d="M3,3V37H82V3H3M2,0H83a2,2,0,0,1,2,2V38a2,2,0,0,1-2,2H2a2,2,0,0,1-2-2V2A2,2,0,0,1,2,0Z" transform="translate(-367 1897)" fill="#836fff"/>
      <path id="矩形_488" data-name="矩形 488" d="M3,3V37H82V3H3M2,0H83a2,2,0,0,1,2,2V38a2,2,0,0,1-2,2H2a2,2,0,0,1-2-2V2A2,2,0,0,1,2,0Z" transform="translate(-457 1897)" fill="#836fff"/>
      <path id="矩形_483" data-name="矩形 483" d="M3,3V37H37V3H3M2,0H38a2,2,0,0,1,2,2V38a2,2,0,0,1-2,2H2a2,2,0,0,1-2-2V2A2,2,0,0,1,2,0Z" transform="translate(-367 1852)" fill="#836fff"/>
      <path id="矩形_487" data-name="矩形 487" d="M3,3V37H37V3H3M2,0H38a2,2,0,0,1,2,2V38a2,2,0,0,1-2,2H2a2,2,0,0,1-2-2V2A2,2,0,0,1,2,0Z" transform="translate(-457 1852)" fill="#836fff"/>
      <path id="矩形_485" data-name="矩形 485" d="M3,3V37H37V3H3M2,0H38a2,2,0,0,1,2,2V38a2,2,0,0,1-2,2H2a2,2,0,0,1-2-2V2A2,2,0,0,1,2,0Z" transform="translate(-322 1852)" fill="#836fff"/>
      <path id="矩形_486" data-name="矩形 486" d="M3,3V37H37V3H3M2,0H38a2,2,0,0,1,2,2V38a2,2,0,0,1-2,2H2a2,2,0,0,1-2-2V2A2,2,0,0,1,2,0Z" transform="translate(-412 1852)" fill="#836fff"/>
    </g>
  </g>
</svg>
