<svg xmlns="http://www.w3.org/2000/svg" width="27" height="27" viewBox="0 0 27 27"><g transform="translate(3695 -1383)"><path d="M1003.134,157.219l-10.373-9.181a.628.628,0,0,0-1.044.47v4.126a19.844,19.844,0,0,0-5.823,2.916,21.147,21.147,0,0,0-4.993,5.056,24.038,24.038,0,0,0-3.691,8.506.659.659,0,0,0-.015.1.627.627,0,0,0,.168.465l.008.007a.625.625,0,0,0,.353.185h0a.627.627,0,0,0,.556-.192,21.334,21.334,0,0,1,8.973-5.805,18.122,18.122,0,0,1,4.463-.893v3.967a.628.628,0,0,0,1.046.468l10.373-9.262a.627.627,0,0,0,0-.938Zm-10.162,8.329v-3.21a.628.628,0,0,0-.608-.628h-.108a14.621,14.621,0,0,0-2.2.2c-.5.08-1.076.191-1.7.347-.47.117-.97.258-1.495.43a22.322,22.322,0,0,0-7.818,4.509,21.983,21.983,0,0,1,2.885-5.866,19.9,19.9,0,0,1,6.943-6.154,18.187,18.187,0,0,1,2.605-1.145c.322-.111.577-.186.749-.234.086-.024.151-.04.194-.051l.047-.011.01,0h0a.627.627,0,0,0,.495-.613V149.9l8.8,7.788Z" transform="translate(-4672.194 1237.544)" fill="#fff"/><rect width="27" height="27" transform="translate(-3695 1383)" fill="none"/></g></svg>