<svg xmlns="http://www.w3.org/2000/svg" width="100" height="84.504" viewBox="0 0 100 84.504">
  <path id="shareIcon" d="M430.209,90.133a3.535,3.535,0,0,1,2.345.888l38.719,34.265a3.538,3.538,0,0,1,.014,5.287l-38.722,34.57a3.538,3.538,0,0,1-5.894-2.639v-13.52a67.557,67.557,0,0,0-15.088,3.182,77.48,77.48,0,0,0-28.747,17.109c-1.438,1.337-2.867,2.763-4.247,4.239a3.573,3.573,0,0,1-3.14,1.079,3.54,3.54,0,0,1-2.894-4.285c6.294-27.446,21.355-43.061,32.882-51.327a76.163,76.163,0,0,1,21.234-10.8V93.67a3.542,3.542,0,0,1,2.088-3.226A3.5,3.5,0,0,1,430.209,90.133ZM463.6,127.947l-29.855-26.42v9.342a3.559,3.559,0,0,1-2.788,3.458l-.365.088c-.269.069-.687.182-1.231.342-1.006.3-2.636.827-4.665,1.636a72.1,72.1,0,0,0-15.134,8.336,74.645,74.645,0,0,0-26.4,34.925,83.636,83.636,0,0,1,26.213-14.213,69.949,69.949,0,0,1,20.07-3.69c.449-.008.738,0,.827,0h.043a3.524,3.524,0,0,1,3.429,3.537V154.6Z" transform="translate(-372.467 -90.133)" fill="#bbb"/>
</svg>
