<svg xmlns="http://www.w3.org/2000/svg" width="100" height="83.915" viewBox="0 0 100 83.915">
  <path id="shareClickIcon" d="M1.717,83.915A1.771,1.771,0,0,1,.045,81.746a92.867,92.867,0,0,1,14.2-32.724A81.252,81.252,0,0,1,33.431,29.59,80.3,80.3,0,0,1,50.3,20.3a60.5,60.5,0,0,1,5.965-2.05V1.772A1.77,1.77,0,0,1,57.309.157,1.766,1.766,0,0,1,58.853.2a1.772,1.772,0,0,1,.357.245L99.4,36.013a1.771,1.771,0,0,1,.006,2.649L59.217,74.544a1.772,1.772,0,0,1-2.952-1.322V57.159C49.827,57.451,26.351,60,5.233,81.111l-.006.006c-.2.2-.4.4-.594.6-.3.3-.594.609-.891.92l-.127.133c-.183.192-.367.388-.549.583a1.768,1.768,0,0,1-1.3.563Z" fill="#fff"/>
</svg>
