<svg xmlns="http://www.w3.org/2000/svg" width="16" height="15.995" viewBox="0 0 16 15.995">
  <g id="组_1527" data-name="组 1527" transform="translate(-95.69 -361.494)">
    <path id="路径_400" data-name="路径 400" d="M111.163,395.491a.527.527,0,0,0-.527.527v5.451H96.744v-5.451a.527.527,0,1,0-1.054,0V402a.527.527,0,0,0,.527.527h14.946a.527.527,0,0,0,.527-.527v-5.978A.527.527,0,0,0,111.163,395.491Z" transform="translate(0 -25.035)" fill="#fff"/>
    <path id="路径_401" data-name="路径 401" d="M104.576,367.757l4.468-4.467V373.9a.527.527,0,0,0,1.054,0V363.289l4.467,4.467a.527.527,0,0,0,.746-.746l-5.368-5.368c-.006-.006-.014-.009-.02-.015a.529.529,0,0,0-.063-.047.489.489,0,0,0-.067-.04c-.008,0-.013-.01-.021-.013a.461.461,0,0,0-.049-.012.532.532,0,0,0-.077-.019.523.523,0,0,0-.076,0,.406.406,0,0,0-.153.023.449.449,0,0,0-.049.012c-.008,0-.014.009-.021.013a.524.524,0,0,0-.067.04.552.552,0,0,0-.063.047c-.006.006-.014.009-.02.015l-5.368,5.368a.527.527,0,0,0,.746.746Z" transform="translate(-5.881)" fill="#fff"/>
  </g>
</svg>
